ISO-10303-21;
HEADER;
FILE_DESCRIPTION (( 'STEP AP214' ),
    '1' );
FILE_NAME ('CameraMount2.STEP',
    '2026-05-20T23:44:07',
    ( '' ),
    ( '' ),
    'SwSTEP 2.0',
    'SolidWorks 2023',
    '' );
FILE_SCHEMA (( 'AUTOMOTIVE_DESIGN' ));
ENDSEC;

DATA;
#1 = ORIENTED_EDGE ( 'NONE', *, *, #396, .F. ) ;
#2 = DIRECTION ( 'NONE',  ( -0.000000000000000000, -1.000000000000000000, -0.000000000000000000 ) ) ;
#3 = CLOSED_SHELL ( 'NONE', ( #318, #226, #1224, #101, #755, #1262, #603, #20, #724, #875, #1165, #89, #431, #365, #107, #331, #132, #401, #181, #716, #719, #903, #174, #459, #768, #775, #681, #906, #1151, #324, #802, #1267, #356, #1171, #1232, #195, #159, #419, #969, #735 ) ) ;
#4 = DIRECTION ( 'NONE',  ( -0.7071067811865427988, 0.7071067811865522357, -1.298366789913641561E-17 ) ) ;
#5 = DIRECTION ( 'NONE',  ( -1.000000000000000000, 0.000000000000000000, 0.000000000000000000 ) ) ;
#6 = VECTOR ( 'NONE', #1096, 1000.000000000000000 ) ;
#7 = VERTEX_POINT ( 'NONE', #1181 ) ;
#8 = CARTESIAN_POINT ( 'NONE',  ( -4.049999999999996270, 3.000000000000000000, -5.163679313594173001E-16 ) ) ;
#9 = ORIENTED_EDGE ( 'NONE', *, *, #1226, .F. ) ;
#10 = CARTESIAN_POINT ( 'NONE',  ( 11.80940107675850470, 10.59999999999999787, 0.000000000000000000 ) ) ;
#11 = VECTOR ( 'NONE', #892, 1000.000000000000000 ) ;
#12 = AXIS2_PLACEMENT_3D ( 'NONE', #484, #372, #283 ) ;
#13 = LINE ( 'NONE', #479, #558 ) ;
#14 = ORIENTED_EDGE ( 'NONE', *, *, #957, .F. ) ;
#15 = CARTESIAN_POINT ( 'NONE',  ( -3.943157298124337215E-16, 5.000000000000000000, -3.199401076758527029 ) ) ;
#16 = VECTOR ( 'NONE', #1119, 1000.000000000000000 ) ;
#17 = LINE ( 'NONE', #1125, #742 ) ;
#18 = ORIENTED_EDGE ( 'NONE', *, *, #396, .T. ) ;
#19 = FACE_BOUND ( 'NONE', #644, .T. ) ;
#20 = ADVANCED_FACE ( 'NONE', ( #857 ), #1271, .F. ) ;
#21 = EDGE_CURVE ( 'NONE', #1090, #822, #354, .T. ) ;
#22 = EDGE_CURVE ( 'NONE', #142, #964, #908, .T. ) ;
#23 = LINE ( 'NONE', #127, #153 ) ;
#24 = CARTESIAN_POINT ( 'NONE',  ( -4.049999999999996270, 12.05096679918780822, 1.599999999999999645 ) ) ;
#25 = VERTEX_POINT ( 'NONE', #554 ) ;
#26 = DIRECTION ( 'NONE',  ( -0.7071067811865425767, -0.7071067811865525687, 0.000000000000000000 ) ) ;
#27 = AXIS2_PLACEMENT_3D ( 'NONE', #1042, #722, #36 ) ;
#28 = VECTOR ( 'NONE', #478, 1000.000000000000000 ) ;
#29 = EDGE_LOOP ( 'NONE', ( #1146, #1097 ) ) ;
#30 = DIRECTION ( 'NONE',  ( 1.000000000000000000, 0.000000000000000000, 1.232467328578682067E-16 ) ) ;
#31 = EDGE_CURVE ( 'NONE', #929, #972, #254, .T. ) ;
#32 = CARTESIAN_POINT ( 'NONE',  ( 0.000000000000000000, 1.000000000000000000, 0.000000000000000000 ) ) ;
#33 = FACE_OUTER_BOUND ( 'NONE', #457, .T. ) ;
#34 = EDGE_CURVE ( 'NONE', #1202, #858, #1073, .T. ) ;
#35 = ORIENTED_EDGE ( 'NONE', *, *, #940, .T. ) ;
#36 = DIRECTION ( 'NONE',  ( -1.000000000000000000, 0.000000000000000000, -1.232467328578682067E-16 ) ) ;
#37 = ORIENTED_EDGE ( 'NONE', *, *, #508, .F. ) ;
#38 = EDGE_LOOP ( 'NONE', ( #1113, #14, #1220, #345 ) ) ;
#39 = PLANE ( 'NONE',  #1034 ) ;
#40 = LINE ( 'NONE', #613, #463 ) ;
#41 = DIRECTION ( 'NONE',  ( -0.000000000000000000, -0.000000000000000000, -1.000000000000000000 ) ) ;
#42 = ORIENTED_EDGE ( 'NONE', *, *, #306, .F. ) ;
#43 = DIRECTION ( 'NONE',  ( 0.000000000000000000, 0.000000000000000000, -1.000000000000000000 ) ) ;
#44 = EDGE_LOOP ( 'NONE', ( #76, #1197, #795, #115, #759, #659, #532, #337 ) ) ;
#45 = AXIS2_PLACEMENT_3D ( 'NONE', #303, #1293, #5 ) ;
#46 = EDGE_CURVE ( 'NONE', #543, #425, #169, .T. ) ;
#47 = CIRCLE ( 'NONE', #825, 1.200000000000000622 ) ;
#48 = EDGE_CURVE ( 'NONE', #424, #1013, #756, .T. ) ;
#49 = DIRECTION ( 'NONE',  ( 0.000000000000000000, 0.000000000000000000, -1.000000000000000000 ) ) ;
#50 = EDGE_LOOP ( 'NONE', ( #81, #790, #505, #524 ) ) ;
#51 = LINE ( 'NONE', #242, #1159 ) ;
#52 = AXIS2_PLACEMENT_3D ( 'NONE', #862, #1258, #654 ) ;
#53 = CIRCLE ( 'NONE', #718, 3.200000000000000178 ) ;
#54 = ORIENTED_EDGE ( 'NONE', *, *, #784, .T. ) ;
#55 = DIRECTION ( 'NONE',  ( -7.542275982507860105E-16, 0.000000000000000000, -1.000000000000000000 ) ) ;
#56 = EDGE_LOOP ( 'NONE', ( #696, #1043, #1177, #233, #357, #767, #1246, #364, #702, #125 ) ) ;
#57 = LINE ( 'NONE', #367, #738 ) ;
#58 = CARTESIAN_POINT ( 'NONE',  ( -8.098528137423919304, 8.098528137423805617, -3.200000000000000622 ) ) ;
#59 = EDGE_CURVE ( 'NONE', #580, #1160, #152, .T. ) ;
#60 = CARTESIAN_POINT ( 'NONE',  ( -6.651471862576141092, 7.848528137423857132, -6.200000000000001066 ) ) ;
#61 = ORIENTED_EDGE ( 'NONE', *, *, #1204, .T. ) ;
#62 = CARTESIAN_POINT ( 'NONE',  ( 4.050000000000003375, 1.000000000000000000, 3.199999999999997069 ) ) ;
#63 = ORIENTED_EDGE ( 'NONE', *, *, #178, .F. ) ;
#64 = DIRECTION ( 'NONE',  ( -0.000000000000000000, -1.000000000000000000, -0.000000000000000000 ) ) ;
#65 = ORIENTED_EDGE ( 'NONE', *, *, #193, .F. ) ;
#66 = EDGE_LOOP ( 'NONE', ( #158, #819, #526, #545 ) ) ;
#67 = CARTESIAN_POINT ( 'NONE',  ( 7.499999999999997335, 8.697056274847724922, 0.5620386839630727716 ) ) ;
#68 = EDGE_LOOP ( 'NONE', ( #1111, #850 ) ) ;
#69 = CARTESIAN_POINT ( 'NONE',  ( 10.05000000000000249, 3.000000000000000000, -7.579987362420401979E-15 ) ) ;
#70 = LINE ( 'NONE', #456, #483 ) ;
#71 = AXIS2_PLACEMENT_3D ( 'NONE', #812, #501, #289 ) ;
#72 = PLANE ( 'NONE',  #687 ) ;
#73 = ORIENTED_EDGE ( 'NONE', *, *, #881, .T. ) ;
#74 = CARTESIAN_POINT ( 'NONE',  ( 2.168404344971030069E-16, 3.000000000000000000, -1.759401076758519977 ) ) ;
#75 = VECTOR ( 'NONE', #1178, 1000.000000000000000 ) ;
#76 = ORIENTED_EDGE ( 'NONE', *, *, #381, .F. ) ;
#77 = VECTOR ( 'NONE', #263, 1000.000000000000000 ) ;
#78 = LINE ( 'NONE', #220, #77 ) ;
#79 = LINE ( 'NONE', #1254, #1213 ) ;
#80 = CARTESIAN_POINT ( 'NONE',  ( -7.500000000000001776, 7.000000000000001776, 0.5620386839630727716 ) ) ;
#81 = ORIENTED_EDGE ( 'NONE', *, *, #475, .T. ) ;
#82 = CARTESIAN_POINT ( 'NONE',  ( -10.05000000000000071, 3.000000000000000000, 3.035766082959431348E-15 ) ) ;
#83 = LINE ( 'NONE', #69, #513 ) ;
#84 = DIRECTION ( 'NONE',  ( -0.000000000000000000, -1.000000000000000000, -0.000000000000000000 ) ) ;
#85 = CARTESIAN_POINT ( 'NONE',  ( 5.955020887681574400E-16, 0.000000000000000000, 4.599999999999999645 ) ) ;
#86 = DIRECTION ( 'NONE',  ( -1.000000000000000000, 0.000000000000000000, 0.000000000000000000 ) ) ;
#87 = ORIENTED_EDGE ( 'NONE', *, *, #406, .F. ) ;
#88 = CARTESIAN_POINT ( 'NONE',  ( 11.80940107675850470, 0.000000000000000000, -1.759401076758520865 ) ) ;
#89 = ADVANCED_FACE ( 'NONE', ( #443 ), #72, .T. ) ;
#90 = CARTESIAN_POINT ( 'NONE',  ( -8.348528137423866013, 7.848528137423855355, -3.200000000000000622 ) ) ;
#91 = CARTESIAN_POINT ( 'NONE',  ( -8.098528137423919304, 8.098528137423805617, 0.5620386839630727716 ) ) ;
#92 = CARTESIAN_POINT ( 'NONE',  ( -6.651471862576141980, 7.848528137423857132, -3.200000000000000622 ) ) ;
#93 = AXIS2_PLACEMENT_3D ( 'NONE', #395, #1014, #708 ) ;
#94 = ORIENTED_EDGE ( 'NONE', *, *, #340, .T. ) ;
#95 = PLANE ( 'NONE',  #93 ) ;
#96 = CIRCLE ( 'NONE', #808, 1.200000000000001510 ) ;
#97 = CARTESIAN_POINT ( 'NONE',  ( 0.000000000000000000, 10.59999999999999964, 0.000000000000000000 ) ) ;
#98 = CYLINDRICAL_SURFACE ( 'NONE', #12, 3.200000000000000178 ) ;
#99 = FACE_OUTER_BOUND ( 'NONE', #1082, .T. ) ;
#100 = CARTESIAN_POINT ( 'NONE',  ( -8.700000000000002842, 7.000000000000001776, -3.200000000000000622 ) ) ;
#101 = ADVANCED_FACE ( 'NONE', ( #562 ), #979, .F. ) ;
#102 = ORIENTED_EDGE ( 'NONE', *, *, #818, .F. ) ;
#103 = DIRECTION ( 'NONE',  ( 0.000000000000000000, 0.000000000000000000, 1.000000000000000000 ) ) ;
#104 = CARTESIAN_POINT ( 'NONE',  ( -4.049999999999996270, 1.000000000000000000, -5.163679313594173001E-16 ) ) ;
#105 = FACE_BOUND ( 'NONE', #68, .T. ) ;
#106 = CARTESIAN_POINT ( 'NONE',  ( 5.025000000000053646, 3.000000000000000000, 5.025000000000002132 ) ) ;
#107 = ADVANCED_FACE ( 'NONE', ( #1278 ), #369, .F. ) ;
#108 = ORIENTED_EDGE ( 'NONE', *, *, #213, .T. ) ;
#109 = AXIS2_PLACEMENT_3D ( 'NONE', #450, #958, #86 ) ;
#110 = DIRECTION ( 'NONE',  ( -0.000000000000000000, -0.000000000000000000, -1.000000000000000000 ) ) ;
#111 = PLANE ( 'NONE',  #494 ) ;
#112 = ORIENTED_EDGE ( 'NONE', *, *, #824, .T. ) ;
#113 = DIRECTION ( 'NONE',  ( -1.000000000000000000, 0.000000000000000000, 0.000000000000000000 ) ) ;
#114 = EDGE_CURVE ( 'NONE', #135, #963, #119, .T. ) ;
#115 = ORIENTED_EDGE ( 'NONE', *, *, #818, .T. ) ;
#116 = VECTOR ( 'NONE', #786, 1000.000000000000114 ) ;
#117 = AXIS2_PLACEMENT_3D ( 'NONE', #287, #1297, #577 ) ;
#118 = CARTESIAN_POINT ( 'NONE',  ( 3.943157298124336722E-16, 5.000000000000000000, -3.199401076758523921 ) ) ;
#119 = LINE ( 'NONE', #393, #292 ) ;
#120 = ORIENTED_EDGE ( 'NONE', *, *, #340, .F. ) ;
#121 = LINE ( 'NONE', #581, #1047 ) ;
#122 = EDGE_CURVE ( 'NONE', #25, #251, #1189, .T. ) ;
#123 = EDGE_CURVE ( 'NONE', #838, #1168, #688, .T. ) ;
#124 = CARTESIAN_POINT ( 'NONE',  ( -4.049999999999996270, 0.000000000000000000, -1.600000000000000533 ) ) ;
#125 = ORIENTED_EDGE ( 'NONE', *, *, #440, .T. ) ;
#126 = CARTESIAN_POINT ( 'NONE',  ( 4.050000000000003375, 3.000000000000000000, -3.200000000000000622 ) ) ;
#127 = CARTESIAN_POINT ( 'NONE',  ( -4.049999999999996270, 3.000000000000000000, -3.200000000000000622 ) ) ;
#128 = DIRECTION ( 'NONE',  ( 0.000000000000000000, 0.000000000000000000, -1.000000000000000000 ) ) ;
#129 = ORIENTED_EDGE ( 'NONE', *, *, #1007, .T. ) ;
#130 = CARTESIAN_POINT ( 'NONE',  ( -4.049999999999996270, 12.05096679918780822, -5.163679313594173001E-16 ) ) ;
#131 = AXIS2_PLACEMENT_3D ( 'NONE', #939, #423, #934 ) ;
#132 = ADVANCED_FACE ( 'NONE', ( #585 ), #111, .T. ) ;
#133 = CARTESIAN_POINT ( 'NONE',  ( -11.80940107675850470, 5.000000000000000000, 0.000000000000000000 ) ) ;
#134 = VECTOR ( 'NONE', #1147, 1000.000000000000000 ) ;
#135 = VERTEX_POINT ( 'NONE', #578 ) ;
#136 = CYLINDRICAL_SURFACE ( 'NONE', #131, 1.200000000000001510 ) ;
#137 = EDGE_CURVE ( 'NONE', #135, #1265, #1117, .T. ) ;
#138 = EDGE_LOOP ( 'NONE', ( #761, #218, #806, #925 ) ) ;
#139 = LINE ( 'NONE', #544, #1164 ) ;
#140 = DIRECTION ( 'NONE',  ( -1.000000000000000000, 0.000000000000000000, 0.000000000000000000 ) ) ;
#141 = ORIENTED_EDGE ( 'NONE', *, *, #881, .F. ) ;
#142 = VERTEX_POINT ( 'NONE', #309 ) ;
#143 = EDGE_CURVE ( 'NONE', #422, #749, #600, .T. ) ;
#144 = EDGE_LOOP ( 'NONE', ( #323, #1279, #491, #1038 ) ) ;
#145 = DIRECTION ( 'NONE',  ( 0.000000000000000000, 0.000000000000000000, -1.000000000000000000 ) ) ;
#146 =( LENGTH_UNIT ( ) NAMED_UNIT ( * ) SI_UNIT ( .MILLI., .METRE. ) );
#147 = ORIENTED_EDGE ( 'NONE', *, *, #730, .T. ) ;
#148 = CARTESIAN_POINT ( 'NONE',  ( -11.80940107675850470, 0.000000000000000000, -0.000000000000000000 ) ) ;
#149 = VERTEX_POINT ( 'NONE', #602 ) ;
#150 = AXIS2_PLACEMENT_3D ( 'NONE', #1059, #565, #164 ) ;
#151 = DIRECTION ( 'NONE',  ( 0.000000000000000000, 0.000000000000000000, 1.000000000000000000 ) ) ;
#152 = LINE ( 'NONE', #471, #192 ) ;
#153 = VECTOR ( 'NONE', #753, 1000.000000000000000 ) ;
#154 = DIRECTION ( 'NONE',  ( -0.000000000000000000, -1.000000000000000000, -0.000000000000000000 ) ) ;
#155 = CIRCLE ( 'NONE', #897, 3.200000000000000178 ) ;
#156 = ORIENTED_EDGE ( 'NONE', *, *, #224, .T. ) ;
#157 = DIRECTION ( 'NONE',  ( -0.000000000000000000, -1.000000000000000000, -0.000000000000000000 ) ) ;
#158 = ORIENTED_EDGE ( 'NONE', *, *, #202, .F. ) ;
#159 = ADVANCED_FACE ( 'NONE', ( #189 ), #284, .T. ) ;
#160 = EDGE_CURVE ( 'NONE', #826, #362, #804, .T. ) ;
#161 = CARTESIAN_POINT ( 'NONE',  ( 4.050000000000003375, 0.9999999999999991118, -2.996277699632807206E-15 ) ) ;
#162 = ORIENTED_EDGE ( 'NONE', *, *, #980, .T. ) ;
#163 = ORIENTED_EDGE ( 'NONE', *, *, #509, .T. ) ;
#164 = DIRECTION ( 'NONE',  ( -1.000000000000000000, -1.084202172485503014E-14, 0.000000000000000000 ) ) ;
#165 = ORIENTED_EDGE ( 'NONE', *, *, #1281, .F. ) ;
#166 = FACE_BOUND ( 'NONE', #237, .T. ) ;
#167 = DIRECTION ( 'NONE',  ( 1.000000000000000000, 0.000000000000000000, -1.232467328578680834E-16 ) ) ;
#168 = VECTOR ( 'NONE', #1174, 1000.000000000000000 ) ;
#169 = LINE ( 'NONE', #58, #507 ) ;
#170 = VERTEX_POINT ( 'NONE', #197 ) ;
#171 = DIRECTION ( 'NONE',  ( -0.000000000000000000, -1.000000000000000000, -0.000000000000000000 ) ) ;
#172 = VERTEX_POINT ( 'NONE', #1114 ) ;
#173 = CARTESIAN_POINT ( 'NONE',  ( -4.049999999999996270, 1.000000000000000000, 3.199999999999999734 ) ) ;
#174 = ADVANCED_FACE ( 'NONE', ( #1001, #1196 ), #701, .T. ) ;
#175 = VERTEX_POINT ( 'NONE', #100 ) ;
#176 = ORIENTED_EDGE ( 'NONE', *, *, #1211, .F. ) ;
#177 = AXIS2_PLACEMENT_3D ( 'NONE', #452, #256, #1280 ) ;
#178 = EDGE_CURVE ( 'NONE', #1160, #1256, #205, .T. ) ;
#179 = VECTOR ( 'NONE', #488, 1000.000000000000114 ) ;
#180 = PRODUCT_DEFINITION_CONTEXT ( 'detailed design', #1140, 'design' ) ;
#181 = ADVANCED_FACE ( 'NONE', ( #591 ), #902, .F. ) ;
#182 = LINE ( 'NONE', #1291, #334 ) ;
#183 = DIRECTION ( 'NONE',  ( 0.7071067811865525687, -0.7071067811865425767, 0.000000000000000000 ) ) ;
#184 = VERTEX_POINT ( 'NONE', #92 ) ;
#185 = ORIENTED_EDGE ( 'NONE', *, *, #475, .F. ) ;
#186 = PLANE ( 'NONE',  #482 ) ;
#187 = LINE ( 'NONE', #576, #539 ) ;
#188 = PLANE ( 'NONE',  #279 ) ;
#189 = FACE_OUTER_BOUND ( 'NONE', #675, .T. ) ;
#190 = EDGE_LOOP ( 'NONE', ( #1139, #731, #993, #9 ) ) ;
#191 = DIRECTION ( 'NONE',  ( -1.000000000000000000, 0.000000000000000000, 0.000000000000000000 ) ) ;
#192 = VECTOR ( 'NONE', #970, 1000.000000000000000 ) ;
#193 = EDGE_CURVE ( 'NONE', #290, #312, #13, .T. ) ;
#194 = DIRECTION ( 'NONE',  ( 0.000000000000000000, 0.000000000000000000, -1.000000000000000000 ) ) ;
#195 = ADVANCED_FACE ( 'NONE', ( #910 ), #1214, .T. ) ;
#196 = CARTESIAN_POINT ( 'NONE',  ( -10.05000000000000249, 0.000000000000000000, 4.600000000000000533 ) ) ;
#197 = CARTESIAN_POINT ( 'NONE',  ( 11.80940107675850470, 10.59999999999999787, -6.200000000000001066 ) ) ;
#198 = CIRCLE ( 'NONE', #931, 3.200000000000000178 ) ;
#199 = VERTEX_POINT ( 'NONE', #821 ) ;
#200 = LINE ( 'NONE', #899, #951 ) ;
#201 = STYLED_ITEM ( 'NONE', ( #855 ), #750 ) ;
#202 = EDGE_CURVE ( 'NONE', #245, #1272, #623, .T. ) ;
#203 = LINE ( 'NONE', #1200, #232 ) ;
#204 = CARTESIAN_POINT ( 'NONE',  ( -6.651471862576141092, 7.848528137423857132, 0.5620386839630727716 ) ) ;
#205 = LINE ( 'NONE', #485, #870 ) ;
#206 = ORIENTED_EDGE ( 'NONE', *, *, #588, .T. ) ;
#207 = CARTESIAN_POINT ( 'NONE',  ( 7.499999999999997335, 8.697056274847724922, -3.200000000000000622 ) ) ;
#208 = DIRECTION ( 'NONE',  ( 1.000000000000000000, 0.000000000000000000, -1.294569758191646662E-16 ) ) ;
#209 = DIRECTION ( 'NONE',  ( -0.000000000000000000, -1.000000000000000000, -0.000000000000000000 ) ) ;
#210 = ORIENTED_EDGE ( 'NONE', *, *, #693, .F. ) ;
#211 = CARTESIAN_POINT ( 'NONE',  ( -11.80940107675850470, 10.59999999999999787, -3.200000000000000622 ) ) ;
#212 = ORIENTED_EDGE ( 'NONE', *, *, #1127, .F. ) ;
#213 = EDGE_CURVE ( 'NONE', #543, #480, #720, .T. ) ;
#214 = VERTEX_POINT ( 'NONE', #924 ) ;
#215 = VECTOR ( 'NONE', #157, 1000.000000000000000 ) ;
#216 = VECTOR ( 'NONE', #4, 1000.000000000000000 ) ;
#217 = FACE_OUTER_BOUND ( 'NONE', #190, .T. ) ;
#218 = ORIENTED_EDGE ( 'NONE', *, *, #1124, .F. ) ;
#219 = PRODUCT_DEFINITION ( 'UNKNOWN', '', #1156, #180 ) ;
#220 = CARTESIAN_POINT ( 'NONE',  ( -10.05000000000000249, 3.000000000000000000, 4.600000000000000533 ) ) ;
#221 = CARTESIAN_POINT ( 'NONE',  ( -11.80940107675850470, 3.000000000000000000, -1.759401076758520421 ) ) ;
#222 = DIRECTION ( 'NONE',  ( -1.836167923230703129E-17, -0.000000000000000000, 1.000000000000000000 ) ) ;
#223 = CARTESIAN_POINT ( 'NONE',  ( 11.80940107675850470, 10.59999999999999787, -3.200000000000000622 ) ) ;
#224 = EDGE_CURVE ( 'NONE', #199, #941, #17, .T. ) ;
#225 = CARTESIAN_POINT ( 'NONE',  ( -4.049999999999996270, 0.9999999999999991118, 1.599999999999999645 ) ) ;
#226 = ADVANCED_FACE ( 'NONE', ( #217 ), #1037, .F. ) ;
#227 = APPLICATION_PROTOCOL_DEFINITION ( 'draft international standard', 'automotive_design', 1998, #1015 ) ;
#228 = EDGE_LOOP ( 'NONE', ( #843, #1191, #156, #394 ) ) ;
#229 = CARTESIAN_POINT ( 'NONE',  ( 0.000000000000000000, 3.000000000000000000, -6.200000000000001066 ) ) ;
#230 = EDGE_CURVE ( 'NONE', #175, #938, #341, .T. ) ;
#231 = CIRCLE ( 'NONE', #1053, 1.200000000000000622 ) ;
#232 = VECTOR ( 'NONE', #208, 1000.000000000000000 ) ;
#233 = ORIENTED_EDGE ( 'NONE', *, *, #34, .F. ) ;
#234 = CYLINDRICAL_SURFACE ( 'NONE', #473, 1.200000000000000622 ) ;
#235 = ORIENTED_EDGE ( 'NONE', *, *, #1239, .F. ) ;
#236 = FACE_BOUND ( 'NONE', #276, .T. ) ;
#237 = EDGE_LOOP ( 'NONE', ( #1, #1263 ) ) ;
#238 = VECTOR ( 'NONE', #145, 1000.000000000000000 ) ;
#239 = PRODUCT_DEFINITION_SHAPE ( 'NONE', 'NONE',  #219 ) ;
#240 = CARTESIAN_POINT ( 'NONE',  ( 6.299999999999997158, 7.000000000000000000, -6.200000000000001066 ) ) ;
#241 = CARTESIAN_POINT ( 'NONE',  ( 5.875737354338250998E-17, 3.000000000000000000, -3.200000000000000622 ) ) ;
#242 = CARTESIAN_POINT ( 'NONE',  ( 6.651471862576134875, 7.848528137423852691, 0.5620386839630727716 ) ) ;
#243 = VERTEX_POINT ( 'NONE', #1040 ) ;
#244 = CARTESIAN_POINT ( 'NONE',  ( 10.05000000000000071, 3.000000000000000000, -1.759401076758520865 ) ) ;
#245 = VERTEX_POINT ( 'NONE', #225 ) ;
#246 = SURFACE_SIDE_STYLE ('',( #441 ) ) ;
#247 = CARTESIAN_POINT ( 'NONE',  ( 4.050000000000003375, 12.05096679918780822, -2.996277699632807206E-15 ) ) ;
#248 = EDGE_CURVE ( 'NONE', #515, #1250, #1025, .T. ) ;
#249 = ORIENTED_EDGE ( 'NONE', *, *, #224, .F. ) ;
#250 = CARTESIAN_POINT ( 'NONE',  ( 0.000000000000000000, 0.000000000000000000, 0.000000000000000000 ) ) ;
#251 = VERTEX_POINT ( 'NONE', #944 ) ;
#252 = ORIENTED_EDGE ( 'NONE', *, *, #535, .T. ) ;
#253 = CARTESIAN_POINT ( 'NONE',  ( 11.80940107675850470, 42.00856600400326357, -6.200000000000001066 ) ) ;
#254 = LINE ( 'NONE', #640, #836 ) ;
#255 = ORIENTED_EDGE ( 'NONE', *, *, #814, .T. ) ;
#256 = DIRECTION ( 'NONE',  ( 0.000000000000000000, 1.000000000000000000, -0.000000000000000000 ) ) ;
#257 = VERTEX_POINT ( 'NONE', #221 ) ;
#258 = LINE ( 'NONE', #943, #895 ) ;
#259 = LINE ( 'NONE', #360, #977 ) ;
#260 = DIRECTION ( 'NONE',  ( -0.000000000000000000, -1.000000000000000000, -0.000000000000000000 ) ) ;
#261 = ORIENTED_EDGE ( 'NONE', *, *, #1072, .T. ) ;
#262 = LINE ( 'NONE', #268, #919 ) ;
#263 = DIRECTION ( 'NONE',  ( -0.000000000000000000, -1.000000000000000000, -0.000000000000000000 ) ) ;
#264 = LINE ( 'NONE', #661, #1266 ) ;
#265 = PLANE ( 'NONE',  #1024 ) ;
#266 = DIRECTION ( 'NONE',  ( -1.000000000000000000, 0.000000000000000000, 0.000000000000000000 ) ) ;
#267 = EDGE_LOOP ( 'NONE', ( #966, #714, #417, #933, #252, #429, #359, #866, #1274, #961, #911, #249, #1052, #255, #472, #1230 ) ) ;
#268 = CARTESIAN_POINT ( 'NONE',  ( 11.80940107675850470, 0.000000000000000000, 0.000000000000000000 ) ) ;
#269 = ORIENTED_EDGE ( 'NONE', *, *, #779, .F. ) ;
#270 = AXIS2_PLACEMENT_3D ( 'NONE', #992, #896, #680 ) ;
#271 =( GEOMETRIC_REPRESENTATION_CONTEXT ( 3 ) GLOBAL_UNCERTAINTY_ASSIGNED_CONTEXT ( ( #281 ) ) GLOBAL_UNIT_ASSIGNED_CONTEXT ( ( #146, #530, #414 ) ) REPRESENTATION_CONTEXT ( 'NONE', 'WORKASPACE' ) );
#272 = PLANE ( 'NONE',  #846 ) ;
#273 = FACE_OUTER_BOUND ( 'NONE', #38, .T. ) ;
#274 = EDGE_CURVE ( 'NONE', #974, #815, #829, .T. ) ;
#275 = DIRECTION ( 'NONE',  ( 0.000000000000000000, 1.000000000000000000, -0.000000000000000000 ) ) ;
#276 = EDGE_LOOP ( 'NONE', ( #988, #403, #1161, #1121, #540 ) ) ;
#277 = ORIENTED_EDGE ( 'NONE', *, *, #213, .F. ) ;
#278 = CARTESIAN_POINT ( 'NONE',  ( -7.500000000000001776, 8.697056274847728474, 0.5620386839630727716 ) ) ;
#279 = AXIS2_PLACEMENT_3D ( 'NONE', #91, #183, #686 ) ;
#280 = VECTOR ( 'NONE', #288, 1000.000000000000114 ) ;
#281 = UNCERTAINTY_MEASURE_WITH_UNIT (LENGTH_MEASURE( 1.000000000000000082E-05 ), #146, 'distance_accuracy_value', 'NONE');
#282 = DIRECTION ( 'NONE',  ( 0.000000000000000000, 1.000000000000000000, -0.000000000000000000 ) ) ;
#283 = DIRECTION ( 'NONE',  ( 0.000000000000000000, 0.000000000000000000, -1.000000000000000000 ) ) ;
#284 = PLANE ( 'NONE',  #913 ) ;
#285 = EDGE_LOOP ( 'NONE', ( #1083, #1215, #800, #399, #1175 ) ) ;
#286 = DIRECTION ( 'NONE',  ( 1.000000000000000000, 0.000000000000000000, -1.232467328578680834E-16 ) ) ;
#287 = CARTESIAN_POINT ( 'NONE',  ( -4.049999999999996270, 1.000000000000000000, -5.163679313594173001E-16 ) ) ;
#288 = DIRECTION ( 'NONE',  ( -0.7071067811865435759, -0.7071067811865513475, 0.000000000000000000 ) ) ;
#289 = DIRECTION ( 'NONE',  ( 0.000000000000000000, 0.000000000000000000, 1.000000000000000000 ) ) ;
#290 = VERTEX_POINT ( 'NONE', #608 ) ;
#291 = DIRECTION ( 'NONE',  ( -1.836167923230703129E-17, -0.000000000000000000, 1.000000000000000000 ) ) ;
#292 = VECTOR ( 'NONE', #695, 1000.000000000000000 ) ;
#293 = EDGE_CURVE ( 'NONE', #1013, #149, #40, .T. ) ;
#294 = DIRECTION ( 'NONE',  ( -1.000000000000000000, -1.445602896647337339E-15, 0.000000000000000000 ) ) ;
#295 = CARTESIAN_POINT ( 'NONE',  ( -4.049999999999996270, 0.9999999999999991118, -5.163679313594173001E-16 ) ) ;
#296 = DIRECTION ( 'NONE',  ( 0.000000000000000000, 0.000000000000000000, 1.000000000000000000 ) ) ;
#297 = DIRECTION ( 'NONE',  ( -1.294569758191646662E-16, 0.000000000000000000, -1.000000000000000000 ) ) ;
#298 = CIRCLE ( 'NONE', #782, 1.200000000000000622 ) ;
#299 = ORIENTED_EDGE ( 'NONE', *, *, #574, .T. ) ;
#300 = CARTESIAN_POINT ( 'NONE',  ( 10.05000000000000071, 3.559999999999999609, -1.759401076758520865 ) ) ;
#301 = VECTOR ( 'NONE', #387, 1000.000000000000000 ) ;
#302 = CARTESIAN_POINT ( 'NONE',  ( 5.875737354338250998E-17, 3.000000000000000000, -3.200000000000000622 ) ) ;
#303 = CARTESIAN_POINT ( 'NONE',  ( 7.499999999999998224, 7.000000000000000000, -6.200000000000001066 ) ) ;
#304 = ORIENTED_EDGE ( 'NONE', *, *, #758, .F. ) ;
#305 = PLANE ( 'NONE',  #412 ) ;
#306 = EDGE_CURVE ( 'NONE', #1202, #1090, #1219, .T. ) ;
#307 = ORIENTED_EDGE ( 'NONE', *, *, #997, .T. ) ;
#308 = LINE ( 'NONE', #568, #398 ) ;
#309 = CARTESIAN_POINT ( 'NONE',  ( -6.299999999999998934, 7.000000000000001776, -6.200000000000001066 ) ) ;
#310 = EDGE_LOOP ( 'NONE', ( #638, #624, #732, #842 ) ) ;
#311 = DIRECTION ( 'NONE',  ( 1.000000000000000000, 0.000000000000000000, 1.836167923230703129E-17 ) ) ;
#312 = VERTEX_POINT ( 'NONE', #124 ) ;
#313 = DIRECTION ( 'NONE',  ( -0.000000000000000000, -1.000000000000000000, -0.000000000000000000 ) ) ;
#314 = EDGE_CURVE ( 'NONE', #1130, #1153, #712, .T. ) ;
#315 = VECTOR ( 'NONE', #807, 1000.000000000000000 ) ;
#316 = ORIENTED_EDGE ( 'NONE', *, *, #46, .F. ) ;
#317 = DIRECTION ( 'NONE',  ( 0.000000000000000000, 1.000000000000000000, -0.000000000000000000 ) ) ;
#318 = ADVANCED_FACE ( 'NONE', ( #1240 ), #618, .F. ) ;
#319 = PRESENTATION_LAYER_ASSIGNMENT (  '', '', ( #201 ) ) ;
#320 = VECTOR ( 'NONE', #583, 1000.000000000000000 ) ;
#321 = EDGE_CURVE ( 'NONE', #1013, #845, #408, .T. ) ;
#322 = DIRECTION ( 'NONE',  ( 0.000000000000000000, 0.000000000000000000, 1.000000000000000000 ) ) ;
#323 = ORIENTED_EDGE ( 'NONE', *, *, #521, .T. ) ;
#324 = ADVANCED_FACE ( 'NONE', ( #1030 ), #632, .T. ) ;
#325 = PLANE ( 'NONE',  #625 ) ;
#326 = ORIENTED_EDGE ( 'NONE', *, *, #839, .F. ) ;
#327 = CARTESIAN_POINT ( 'NONE',  ( -8.098528137423919304, 8.098528137423805617, -6.200000000000001066 ) ) ;
#328 = EDGE_LOOP ( 'NONE', ( #439, #453 ) ) ;
#329 = CARTESIAN_POINT ( 'NONE',  ( -10.05000000000000249, 9.273943140569590682, -1.759401076758521310 ) ) ;
#330 = ORIENTED_EDGE ( 'NONE', *, *, #1012, .F. ) ;
#331 = ADVANCED_FACE ( 'NONE', ( #33 ), #325, .F. ) ;
#332 = CIRCLE ( 'NONE', #827, 1.200000000000001510 ) ;
#333 = DIRECTION ( 'NONE',  ( -1.000000000000000000, 0.000000000000000000, 0.000000000000000000 ) ) ;
#334 = VECTOR ( 'NONE', #194, 1000.000000000000000 ) ;
#335 = ORIENTED_EDGE ( 'NONE', *, *, #1089, .T. ) ;
#336 = DIRECTION ( 'NONE',  ( 1.000000000000000000, 0.000000000000000000, 0.000000000000000000 ) ) ;
#337 = ORIENTED_EDGE ( 'NONE', *, *, #595, .T. ) ;
#338 = ORIENTED_EDGE ( 'NONE', *, *, #59, .T. ) ;
#339 = AXIS2_PLACEMENT_3D ( 'NONE', #1063, #64, #49 ) ;
#340 = EDGE_CURVE ( 'NONE', #1235, #515, #1071, .T. ) ;
#341 = CIRCLE ( 'NONE', #1085, 1.200000000000001510 ) ;
#342 = DIRECTION ( 'NONE',  ( 0.000000000000000000, 1.000000000000000000, -0.000000000000000000 ) ) ;
#343 = DIRECTION ( 'NONE',  ( 1.000000000000000000, 0.000000000000000000, 1.836167923230703129E-17 ) ) ;
#344 = LINE ( 'NONE', #204, #698 ) ;
#345 = ORIENTED_EDGE ( 'NONE', *, *, #406, .T. ) ;
#346 = DIRECTION ( 'NONE',  ( -0.7071067811865439090, 0.000000000000000000, 0.7071067811865512365 ) ) ;
#347 = ORIENTED_EDGE ( 'NONE', *, *, #1016, .F. ) ;
#348 = CARTESIAN_POINT ( 'NONE',  ( 10.05000000000000249, 3.000000000000000000, -7.579987362420401979E-15 ) ) ;
#349 = VERTEX_POINT ( 'NONE', #647 ) ;
#350 = ORIENTED_EDGE ( 'NONE', *, *, #824, .F. ) ;
#351 = VERTEX_POINT ( 'NONE', #1249 ) ;
#352 = CIRCLE ( 'NONE', #1260, 3.200000000000000178 ) ;
#353 = CARTESIAN_POINT ( 'NONE',  ( 0.000000000000000000, 5.000000000000000000, 0.000000000000000000 ) ) ;
#354 = LINE ( 'NONE', #673, #168 ) ;
#355 = VECTOR ( 'NONE', #1095, 1000.000000000000000 ) ;
#356 = ADVANCED_FACE ( 'NONE', ( #873 ), #1046, .T. ) ;
#357 = ORIENTED_EDGE ( 'NONE', *, *, #693, .T. ) ;
#358 = CARTESIAN_POINT ( 'NONE',  ( -10.05000000000000249, 3.000000000000000000, -3.200000000000000622 ) ) ;
#359 = ORIENTED_EDGE ( 'NONE', *, *, #1007, .F. ) ;
#360 = CARTESIAN_POINT ( 'NONE',  ( 4.050000000000003375, 12.05096679918780822, 1.599999999999996980 ) ) ;
#361 = ORIENTED_EDGE ( 'NONE', *, *, #622, .F. ) ;
#362 = VERTEX_POINT ( 'NONE', #173 ) ;
#363 = LINE ( 'NONE', #1162, #11 ) ;
#364 = ORIENTED_EDGE ( 'NONE', *, *, #321, .T. ) ;
#365 = ADVANCED_FACE ( 'NONE', ( #1166 ), #265, .T. ) ;
#366 = LINE ( 'NONE', #551, #75 ) ;
#367 = CARTESIAN_POINT ( 'NONE',  ( -11.80940107675850470, 3.000000000000000000, -1.759401076758520421 ) ) ;
#368 = CARTESIAN_POINT ( 'NONE',  ( 0.000000000000000000, 3.000000000000000000, 0.000000000000000000 ) ) ;
#369 = PLANE ( 'NONE',  #1092 ) ;
#370 = ORIENTED_EDGE ( 'NONE', *, *, #839, .T. ) ;
#371 = DIRECTION ( 'NONE',  ( -1.000000000000000000, 0.000000000000000000, 0.000000000000000000 ) ) ;
#372 = DIRECTION ( 'NONE',  ( -0.000000000000000000, -1.000000000000000000, -0.000000000000000000 ) ) ;
#373 = CARTESIAN_POINT ( 'NONE',  ( -0.5985281374238223817, 0.5985281374238158314, -3.200000000000000622 ) ) ;
#374 = DIRECTION ( 'NONE',  ( 0.000000000000000000, 0.000000000000000000, 1.000000000000000000 ) ) ;
#375 = EDGE_LOOP ( 'NONE', ( #1031, #1217, #904, #1069 ) ) ;
#376 = CARTESIAN_POINT ( 'NONE',  ( 7.499999999999997335, 8.697056274847724922, -6.200000000000001066 ) ) ;
#377 = AXIS2_PLACEMENT_3D ( 'NONE', #844, #832, #1231 ) ;
#378 = AXIS2_PLACEMENT_3D ( 'NONE', #1259, #655, #167 ) ;
#379 = DIRECTION ( 'NONE',  ( 0.000000000000000000, 1.000000000000000000, -0.000000000000000000 ) ) ;
#380 = CARTESIAN_POINT ( 'NONE',  ( 11.80940107675850470, 9.273943140569590682, -1.759401076758520865 ) ) ;
#381 = EDGE_CURVE ( 'NONE', #25, #1256, #79, .T. ) ;
#382 = CARTESIAN_POINT ( 'NONE',  ( -4.049999999999996270, 3.000000000000000000, -5.163679313594173001E-16 ) ) ;
#383 = DIRECTION ( 'NONE',  ( 7.542275982507861091E-16, 0.000000000000000000, 1.000000000000000000 ) ) ;
#384 = EDGE_LOOP ( 'NONE', ( #451, #269, #649, #73 ) ) ;
#385 = DIRECTION ( 'NONE',  ( -5.333194492811752081E-16, 0.7071067811865457964, -0.7071067811865492381 ) ) ;
#386 = CARTESIAN_POINT ( 'NONE',  ( 0.5985281374238125007, 0.5985281374238045071, -3.200000000000000622 ) ) ;
#387 = DIRECTION ( 'NONE',  ( -1.000000000000000000, 0.000000000000000000, 1.232467328578680834E-16 ) ) ;
#388 = CARTESIAN_POINT ( 'NONE',  ( 0.000000000000000000, 5.000000000000000000, 0.000000000000000000 ) ) ;
#389 = ORIENTED_EDGE ( 'NONE', *, *, #758, .T. ) ;
#390 = FACE_BOUND ( 'NONE', #1294, .T. ) ;
#391 = EDGE_CURVE ( 'NONE', #170, #657, #528, .T. ) ;
#392 = CARTESIAN_POINT ( 'NONE',  ( 4.050000000000003375, 3.000000000000000000, -2.996277699632807206E-15 ) ) ;
#393 = CARTESIAN_POINT ( 'NONE',  ( 4.050000000000003375, 3.000000000000000000, 3.199999999999997069 ) ) ;
#394 = ORIENTED_EDGE ( 'NONE', *, *, #957, .T. ) ;
#395 = CARTESIAN_POINT ( 'NONE',  ( 5.875737354338250998E-17, 42.00856600400326357, -3.200000000000000622 ) ) ;
#396 = EDGE_CURVE ( 'NONE', #682, #435, #1108, .T. ) ;
#397 = AXIS2_PLACEMENT_3D ( 'NONE', #772, #556, #878 ) ;
#398 = VECTOR ( 'NONE', #110, 1000.000000000000000 ) ;
#399 = ORIENTED_EDGE ( 'NONE', *, *, #22, .F. ) ;
#400 = DIRECTION ( 'NONE',  ( 0.000000000000000000, 0.000000000000000000, -1.000000000000000000 ) ) ;
#401 = ADVANCED_FACE ( 'NONE', ( #546 ), #950, .F. ) ;
#402 = DIRECTION ( 'NONE',  ( -0.000000000000000000, -1.000000000000000000, -0.000000000000000000 ) ) ;
#403 = ORIENTED_EDGE ( 'NONE', *, *, #617, .T. ) ;
#404 = DIRECTION ( 'NONE',  ( 0.000000000000000000, 0.000000000000000000, 1.000000000000000000 ) ) ;
#405 = ORIENTED_EDGE ( 'NONE', *, *, #202, .T. ) ;
#406 = EDGE_CURVE ( 'NONE', #257, #1130, #57, .T. ) ;
#407 = EDGE_CURVE ( 'NONE', #435, #815, #259, .T. ) ;
#408 = LINE ( 'NONE', #241, #1270 ) ;
#409 = ORIENTED_EDGE ( 'NONE', *, *, #476, .T. ) ;
#410 = CARTESIAN_POINT ( 'NONE',  ( 7.499999999999998224, 7.000000000000000000, -3.200000000000000622 ) ) ;
#411 = DIRECTION ( 'NONE',  ( 0.000000000000000000, 0.000000000000000000, 1.000000000000000000 ) ) ;
#412 = AXIS2_PLACEMENT_3D ( 'NONE', #926, #994, #703 ) ;
#413 = ORIENTED_EDGE ( 'NONE', *, *, #796, .F. ) ;
#414 =( NAMED_UNIT ( * ) SI_UNIT ( $, .STERADIAN. ) SOLID_ANGLE_UNIT ( ) );
#415 = LINE ( 'NONE', #1138, #999 ) ;
#416 = VECTOR ( 'NONE', #1192, 1000.000000000000000 ) ;
#417 = ORIENTED_EDGE ( 'NONE', *, *, #137, .F. ) ;
#418 = CARTESIAN_POINT ( 'NONE',  ( 11.80940107675850470, 5.000000000000000000, -3.200000000000000178 ) ) ;
#419 = ADVANCED_FACE ( 'NONE', ( #442 ), #863, .T. ) ;
#420 = LINE ( 'NONE', #329, #215 ) ;
#421 = DIRECTION ( 'NONE',  ( -0.000000000000000000, -0.000000000000000000, -1.000000000000000000 ) ) ;
#422 = VERTEX_POINT ( 'NONE', #552 ) ;
#423 = DIRECTION ( 'NONE',  ( -0.000000000000000000, -0.000000000000000000, -1.000000000000000000 ) ) ;
#424 = VERTEX_POINT ( 'NONE', #1179 ) ;
#425 = VERTEX_POINT ( 'NONE', #968 ) ;
#426 = CARTESIAN_POINT ( 'NONE',  ( 4.050000000000003375, 0.000000000000000000, -2.996277699632807206E-15 ) ) ;
#427 = ORIENTED_EDGE ( 'NONE', *, *, #1124, .T. ) ;
#428 = FACE_OUTER_BOUND ( 'NONE', #1137, .T. ) ;
#429 = ORIENTED_EDGE ( 'NONE', *, *, #1101, .F. ) ;
#430 = PLANE ( 'NONE',  #377 ) ;
#431 = ADVANCED_FACE ( 'NONE', ( #273 ), #662, .F. ) ;
#432 = AXIS2_PLACEMENT_3D ( 'NONE', #118, #1218, #1228 ) ;
#433 = CARTESIAN_POINT ( 'NONE',  ( 4.050000000000003375, 0.9999999999999991118, 1.599999999999996980 ) ) ;
#434 = CIRCLE ( 'NONE', #762, 1.600000000000000089 ) ;
#435 = VERTEX_POINT ( 'NONE', #433 ) ;
#436 = CARTESIAN_POINT ( 'NONE',  ( 7.499999999999998224, 7.000000000000000000, 0.5620386839630727716 ) ) ;
#437 = ORIENTED_EDGE ( 'NONE', *, *, #314, .F. ) ;
#438 = DIRECTION ( 'NONE',  ( -1.000000000000000000, 0.000000000000000000, 0.000000000000000000 ) ) ;
#439 = ORIENTED_EDGE ( 'NONE', *, *, #612, .T. ) ;
#440 = EDGE_CURVE ( 'NONE', #1265, #214, #70, .T. ) ;
#441 = SURFACE_STYLE_FILL_AREA ( #519 ) ;
#442 = FACE_OUTER_BOUND ( 'NONE', #534, .T. ) ;
#443 = FACE_OUTER_BOUND ( 'NONE', #1115, .T. ) ;
#444 = ORIENTED_EDGE ( 'NONE', *, *, #1106, .T. ) ;
#445 = CARTESIAN_POINT ( 'NONE',  ( -7.500000000000001776, 7.000000000000001776, -6.200000000000001066 ) ) ;
#446 = ORIENTED_EDGE ( 'NONE', *, *, #784, .F. ) ;
#447 = CYLINDRICAL_SURFACE ( 'NONE', #52, 1.600000000000000089 ) ;
#448 = DIRECTION ( 'NONE',  ( -0.000000000000000000, -1.000000000000000000, -0.000000000000000000 ) ) ;
#449 = EDGE_CURVE ( 'NONE', #435, #682, #1123, .T. ) ;
#450 = CARTESIAN_POINT ( 'NONE',  ( -7.500000000000001776, 7.000000000000001776, -6.200000000000001066 ) ) ;
#451 = ORIENTED_EDGE ( 'NONE', *, *, #391, .T. ) ;
#452 = CARTESIAN_POINT ( 'NONE',  ( -4.049999999999996270, 0.000000000000000000, -5.163679313594173001E-16 ) ) ;
#453 = ORIENTED_EDGE ( 'NONE', *, *, #508, .T. ) ;
#454 = AXIS2_PLACEMENT_3D ( 'NONE', #787, #1298, #374 ) ;
#455 = DIRECTION ( 'NONE',  ( 0.7071067811865427988, -0.7071067811865522357, 0.000000000000000000 ) ) ;
#456 = CARTESIAN_POINT ( 'NONE',  ( 5.875737354338250998E-17, 3.000000000000000000, -3.200000000000000622 ) ) ;
#457 = EDGE_LOOP ( 'NONE', ( #370, #765, #609, #427 ) ) ;
#458 = VECTOR ( 'NONE', #286, 1000.000000000000000 ) ;
#459 = ADVANCED_FACE ( 'NONE', ( #1149 ), #1269, .F. ) ;
#460 = ORIENTED_EDGE ( 'NONE', *, *, #571, .F. ) ;
#461 = DIRECTION ( 'NONE',  ( -1.000000000000000000, 0.000000000000000000, -1.232467328578682067E-16 ) ) ;
#462 = ORIENTED_EDGE ( 'NONE', *, *, #1094, .F. ) ;
#463 = VECTOR ( 'NONE', #322, 1000.000000000000000 ) ;
#464 = DIRECTION ( 'NONE',  ( 0.000000000000000000, 1.000000000000000000, -0.000000000000000000 ) ) ;
#465 = DIRECTION ( 'NONE',  ( 0.000000000000000000, 0.000000000000000000, 1.000000000000000000 ) ) ;
#466 = DIRECTION ( 'NONE',  ( -0.000000000000000000, -0.000000000000000000, -1.000000000000000000 ) ) ;
#467 = VERTEX_POINT ( 'NONE', #1004 ) ;
#468 = CARTESIAN_POINT ( 'NONE',  ( -11.80940107675850470, 3.559999999999989395, -1.759401076758521532 ) ) ;
#469 = DIRECTION ( 'NONE',  ( 0.000000000000000000, 1.000000000000000000, -0.000000000000000000 ) ) ;
#470 = FACE_OUTER_BOUND ( 'NONE', #707, .T. ) ;
#471 = CARTESIAN_POINT ( 'NONE',  ( 10.05000000000000249, 5.000000000000000000, -7.579987362420401979E-15 ) ) ;
#472 = ORIENTED_EDGE ( 'NONE', *, *, #868, .F. ) ;
#473 = AXIS2_PLACEMENT_3D ( 'NONE', #436, #831, #1251 ) ;
#474 = CIRCLE ( 'NONE', #1099, 1.200000000000001510 ) ;
#475 = EDGE_CURVE ( 'NONE', #184, #425, #692, .T. ) ;
#476 = EDGE_CURVE ( 'NONE', #500, #963, #53, .T. ) ;
#477 = LINE ( 'NONE', #380, #320 ) ;
#478 = DIRECTION ( 'NONE',  ( -0.000000000000000000, -1.000000000000000000, -0.000000000000000000 ) ) ;
#479 = CARTESIAN_POINT ( 'NONE',  ( -4.049999999999996270, 12.05096679918780822, -1.600000000000000533 ) ) ;
#480 = VERTEX_POINT ( 'NONE', #915 ) ;
#481 = CARTESIAN_POINT ( 'NONE',  ( -10.05000000000000071, 0.000000000000000000, 3.035766082959431348E-15 ) ) ;
#482 = AXIS2_PLACEMENT_3D ( 'NONE', #573, #658, #965 ) ;
#483 = VECTOR ( 'NONE', #848, 1000.000000000000000 ) ;
#484 = CARTESIAN_POINT ( 'NONE',  ( -4.049999999999996270, 3.000000000000000000, -5.163679313594173001E-16 ) ) ;
#485 = CARTESIAN_POINT ( 'NONE',  ( 5.875737354338250998E-17, 5.000000000000000000, -3.200000000000000622 ) ) ;
#486 = ORIENTED_EDGE ( 'NONE', *, *, #1239, .T. ) ;
#487 = LINE ( 'NONE', #498, #893 ) ;
#488 = DIRECTION ( 'NONE',  ( 0.000000000000000000, -0.7071067811865491270, 0.7071067811865459074 ) ) ;
#489 = PLANE ( 'NONE',  #587 ) ;
#490 = CARTESIAN_POINT ( 'NONE',  ( 8.098528137423906870, 8.098528137423807394, -3.200000000000000622 ) ) ;
#491 = ORIENTED_EDGE ( 'NONE', *, *, #476, .F. ) ;
#492 = DIRECTION ( 'NONE',  ( 0.7071067811865436870, 0.000000000000000000, 0.7071067811865513475 ) ) ;
#493 = ORIENTED_EDGE ( 'NONE', *, *, #1204, .F. ) ;
#494 = AXIS2_PLACEMENT_3D ( 'NONE', #106, #706, #496 ) ;
#495 = FACE_OUTER_BOUND ( 'NONE', #643, .T. ) ;
#496 = DIRECTION ( 'NONE',  ( 0.7071067811865439090, 0.000000000000000000, -0.7071067811865512365 ) ) ;
#497 = ORIENTED_EDGE ( 'NONE', *, *, #1243, .F. ) ;
#498 = CARTESIAN_POINT ( 'NONE',  ( -8.700000000000002842, 7.000000000000001776, 0.5620386839630727716 ) ) ;
#499 = AXIS2_PLACEMENT_3D ( 'NONE', #97, #379, #575 ) ;
#500 = VERTEX_POINT ( 'NONE', #901 ) ;
#501 = DIRECTION ( 'NONE',  ( 0.000000000000000000, 1.000000000000000000, -0.000000000000000000 ) ) ;
#502 = ORIENTED_EDGE ( 'NONE', *, *, #935, .T. ) ;
#503 = DIRECTION ( 'NONE',  ( -1.000000000000000000, 0.000000000000000000, 0.000000000000000000 ) ) ;
#504 = DIRECTION ( 'NONE',  ( -1.836167923230703129E-17, -0.000000000000000000, 1.000000000000000000 ) ) ;
#505 = ORIENTED_EDGE ( 'NONE', *, *, #789, .T. ) ;
#506 = LINE ( 'NONE', #737, #865 ) ;
#507 = VECTOR ( 'NONE', #570, 1000.000000000000000 ) ;
#508 = EDGE_CURVE ( 'NONE', #362, #351, #1136, .T. ) ;
#509 = EDGE_CURVE ( 'NONE', #172, #424, #187, .T. ) ;
#510 = CARTESIAN_POINT ( 'NONE',  ( 7.499999999999998224, 7.000000000000000000, 0.5620386839630727716 ) ) ;
#511 = VECTOR ( 'NONE', #41, 1000.000000000000000 ) ;
#512 = ORIENTED_EDGE ( 'NONE', *, *, #612, .F. ) ;
#513 = VECTOR ( 'NONE', #887, 1000.000000000000000 ) ;
#514 = DIRECTION ( 'NONE',  ( 0.7071067811865514585, -0.7071067811865436870, 0.000000000000000000 ) ) ;
#515 = VERTEX_POINT ( 'NONE', #1086 ) ;
#516 = DIRECTION ( 'NONE',  ( -0.000000000000000000, -1.000000000000000000, -0.000000000000000000 ) ) ;
#517 = EDGE_CURVE ( 'NONE', #858, #170, #990, .T. ) ;
#518 = ORIENTED_EDGE ( 'NONE', *, *, #293, .F. ) ;
#519 = FILL_AREA_STYLE ('',( #1062 ) ) ;
#520 = DIRECTION ( 'NONE',  ( 0.000000000000000000, 0.000000000000000000, -1.000000000000000000 ) ) ;
#521 = EDGE_CURVE ( 'NONE', #1265, #135, #155, .T. ) ;
#522 = ORIENTED_EDGE ( 'NONE', *, *, #123, .T. ) ;
#523 = CARTESIAN_POINT ( 'NONE',  ( 7.499999999999998224, 7.000000000000000000, -6.200000000000001066 ) ) ;
#524 = ORIENTED_EDGE ( 'NONE', *, *, #653, .F. ) ;
#525 = CARTESIAN_POINT ( 'NONE',  ( 10.05000000000000249, 0.000000000000000000, -7.579987362420401979E-15 ) ) ;
#526 = ORIENTED_EDGE ( 'NONE', *, *, #193, .T. ) ;
#527 = VECTOR ( 'NONE', #343, 1000.000000000000000 ) ;
#528 = LINE ( 'NONE', #253, #1145 ) ;
#529 = EDGE_LOOP ( 'NONE', ( #18, #597, #946, #304 ) ) ;
#530 =( NAMED_UNIT ( * ) PLANE_ANGLE_UNIT ( ) SI_UNIT ( $, .RADIAN. ) );
#531 = VECTOR ( 'NONE', #461, 1000.000000000000000 ) ;
#532 = ORIENTED_EDGE ( 'NONE', *, *, #517, .F. ) ;
#533 = DIRECTION ( 'NONE',  ( 1.000000000000000000, 0.000000000000000000, 0.000000000000000000 ) ) ;
#534 = EDGE_LOOP ( 'NONE', ( #460, #764, #206, #1045 ) ) ;
#535 = EDGE_CURVE ( 'NONE', #1265, #845, #894, .T. ) ;
#536 = EDGE_CURVE ( 'NONE', #172, #349, #1100, .T. ) ;
#537 = AXIS2_PLACEMENT_3D ( 'NONE', #791, #982, #683 ) ;
#538 = DIRECTION ( 'NONE',  ( 0.000000000000000000, 0.000000000000000000, 1.000000000000000000 ) ) ;
#539 = VECTOR ( 'NONE', #797, 1000.000000000000000 ) ;
#540 = ORIENTED_EDGE ( 'NONE', *, *, #854, .F. ) ;
#541 = AXIS2_PLACEMENT_3D ( 'NONE', #510, #421, #333 ) ;
#542 = DIRECTION ( 'NONE',  ( -0.000000000000000000, -1.000000000000000000, -0.000000000000000000 ) ) ;
#543 = VERTEX_POINT ( 'NONE', #90 ) ;
#544 = CARTESIAN_POINT ( 'NONE',  ( 5.025000000000053646, 3.000000000000000000, 5.025000000000002132 ) ) ;
#545 = ORIENTED_EDGE ( 'NONE', *, *, #592, .F. ) ;
#546 = FACE_OUTER_BOUND ( 'NONE', #310, .T. ) ;
#547 = CARTESIAN_POINT ( 'NONE',  ( 5.875737354338250998E-17, 10.59999999999999787, -3.200000000000000622 ) ) ;
#548 = ORIENTED_EDGE ( 'NONE', *, *, #1029, .F. ) ;
#549 = CARTESIAN_POINT ( 'NONE',  ( 7.499999999999998224, 7.000000000000000000, -3.200000000000000622 ) ) ;
#550 = ORIENTED_EDGE ( 'NONE', *, *, #230, .T. ) ;
#551 = CARTESIAN_POINT ( 'NONE',  ( 5.025000000000053646, 0.000000000000000000, 5.025000000000002132 ) ) ;
#552 = CARTESIAN_POINT ( 'NONE',  ( 8.699999999999999289, 7.000000000000000000, -6.200000000000001066 ) ) ;
#553 = EDGE_CURVE ( 'NONE', #633, #1153, #182, .T. ) ;
#554 = CARTESIAN_POINT ( 'NONE',  ( 11.80940107675850470, 5.000000000000000000, -3.199401076758528362 ) ) ;
#555 = ORIENTED_EDGE ( 'NONE', *, *, #940, .F. ) ;
#556 = DIRECTION ( 'NONE',  ( 0.000000000000000000, 1.000000000000000000, -0.000000000000000000 ) ) ;
#557 = ORIENTED_EDGE ( 'NONE', *, *, #381, .T. ) ;
#558 = VECTOR ( 'NONE', #209, 1000.000000000000000 ) ;
#559 = FACE_OUTER_BOUND ( 'NONE', #948, .T. ) ;
#560 = DIRECTION ( 'NONE',  ( 0.7071067811865513475, 0.000000000000000000, -0.7071067811865436870 ) ) ;
#561 = VECTOR ( 'NONE', #760, 1000.000000000000000 ) ;
#562 = FACE_OUTER_BOUND ( 'NONE', #1060, .T. ) ;
#563 = CIRCLE ( 'NONE', #1245, 1.600000000000000089 ) ;
#564 = ORIENTED_EDGE ( 'NONE', *, *, #1061, .F. ) ;
#565 = DIRECTION ( 'NONE',  ( -1.836167923230703129E-17, -0.000000000000000000, 1.000000000000000000 ) ) ;
#566 = EDGE_CURVE ( 'NONE', #860, #749, #308, .T. ) ;
#567 = PLANE ( 'NONE',  #499 ) ;
#568 = CARTESIAN_POINT ( 'NONE',  ( 6.299999999999997158, 7.000000000000000000, 0.5620386839630727716 ) ) ;
#569 = CARTESIAN_POINT ( 'NONE',  ( 4.050000000000003375, 0.9999999999999991118, -1.600000000000003197 ) ) ;
#570 = DIRECTION ( 'NONE',  ( 0.7071067811865425767, 0.7071067811865525687, 1.298366789913641099E-17 ) ) ;
#571 = EDGE_CURVE ( 'NONE', #251, #1027, #477, .T. ) ;
#572 = EDGE_LOOP ( 'NONE', ( #741, #1242, #555, #1050 ) ) ;
#573 = CARTESIAN_POINT ( 'NONE',  ( -2.168404344971026617E-16, 3.559999999999999609, -1.759401076758519311 ) ) ;
#574 = EDGE_CURVE ( 'NONE', #1160, #214, #985, .T. ) ;
#575 = DIRECTION ( 'NONE',  ( 0.000000000000000000, 0.000000000000000000, 1.000000000000000000 ) ) ;
#576 = CARTESIAN_POINT ( 'NONE',  ( -10.05000000000000249, 5.000000000000000000, 0.000000000000000000 ) ) ;
#577 = DIRECTION ( 'NONE',  ( 0.000000000000000000, 0.000000000000000000, 1.000000000000000000 ) ) ;
#578 = CARTESIAN_POINT ( 'NONE',  ( 4.050000000000003375, 3.000000000000000000, 3.199999999999997069 ) ) ;
#579 = PRODUCT ( 'CameraMount2', 'CameraMount2', '', ( #1182 ) ) ;
#580 = VERTEX_POINT ( 'NONE', #700 ) ;
#581 = CARTESIAN_POINT ( 'NONE',  ( 10.04999999999999893, 5.537271031905524055, -3.736672108664054637 ) ) ;
#582 = AXIS2_PLACEMENT_3D ( 'NONE', #410, #291, #113 ) ;
#583 = DIRECTION ( 'NONE',  ( -0.000000000000000000, -1.000000000000000000, -0.000000000000000000 ) ) ;
#584 = DIRECTION ( 'NONE',  ( -0.000000000000000000, -0.000000000000000000, -1.000000000000000000 ) ) ;
#585 = FACE_OUTER_BOUND ( 'NONE', #656, .T. ) ;
#586 = ORIENTED_EDGE ( 'NONE', *, *, #588, .F. ) ;
#587 = AXIS2_PLACEMENT_3D ( 'NONE', #250, #642, #465 ) ;
#588 = EDGE_CURVE ( 'NONE', #1104, #837, #998, .T. ) ;
#589 = DIRECTION ( 'NONE',  ( 0.000000000000000000, 1.000000000000000000, -0.000000000000000000 ) ) ;
#590 = CARTESIAN_POINT ( 'NONE',  ( -11.80940107675850470, 9.273943140569590682, -1.759401076758520421 ) ) ;
#591 = FACE_OUTER_BOUND ( 'NONE', #44, .T. ) ;
#592 = EDGE_CURVE ( 'NONE', #1272, #312, #1054, .T. ) ;
#593 = EDGE_LOOP ( 'NONE', ( #746, #486, #163, #212 ) ) ;
#594 = DIRECTION ( 'NONE',  ( 0.000000000000000000, 0.000000000000000000, 1.000000000000000000 ) ) ;
#595 = EDGE_CURVE ( 'NONE', #858, #1256, #1296, .T. ) ;
#596 = EDGE_CURVE ( 'NONE', #199, #1074, #203, .T. ) ;
#597 = ORIENTED_EDGE ( 'NONE', *, *, #407, .T. ) ;
#598 = CARTESIAN_POINT ( 'NONE',  ( 4.050000000000003375, 1.000000000000000000, -2.996277699632807206E-15 ) ) ;
#599 = ORIENTED_EDGE ( 'NONE', *, *, #123, .F. ) ;
#600 = CIRCLE ( 'NONE', #45, 1.200000000000000622 ) ;
#601 = VECTOR ( 'NONE', #311, 1000.000000000000000 ) ;
#602 = CARTESIAN_POINT ( 'NONE',  ( -10.05000000000000249, 3.000000000000000000, -1.759401076758521310 ) ) ;
#603 = ADVANCED_FACE ( 'NONE', ( #495 ), #98, .F. ) ;
#604 = EDGE_LOOP ( 'NONE', ( #409, #444 ) ) ;
#605 = CARTESIAN_POINT ( 'NONE',  ( -11.80940107675850470, 0.000000000000000000, -1.759401076758520421 ) ) ;
#606 =( GEOMETRIC_REPRESENTATION_CONTEXT ( 3 ) GLOBAL_UNCERTAINTY_ASSIGNED_CONTEXT ( ( #1193 ) ) GLOBAL_UNIT_ASSIGNED_CONTEXT ( ( #631, #1055, #743 ) ) REPRESENTATION_CONTEXT ( 'NONE', 'WORKASPACE' ) );
#607 = VECTOR ( 'NONE', #888, 1000.000000000000000 ) ;
#608 = CARTESIAN_POINT ( 'NONE',  ( -4.049999999999996270, 0.9999999999999991118, -1.600000000000000533 ) ) ;
#609 = ORIENTED_EDGE ( 'NONE', *, *, #814, .F. ) ;
#610 = FACE_OUTER_BOUND ( 'NONE', #375, .T. ) ;
#611 = EDGE_CURVE ( 'NONE', #245, #290, #563, .T. ) ;
#612 = EDGE_CURVE ( 'NONE', #351, #362, #922, .T. ) ;
#613 = CARTESIAN_POINT ( 'NONE',  ( -10.05000000000000249, 3.000000000000000000, 0.000000000000000000 ) ) ;
#614 = DIRECTION ( 'NONE',  ( 0.000000000000000000, 0.000000000000000000, -1.000000000000000000 ) ) ;
#615 = FACE_OUTER_BOUND ( 'NONE', #66, .T. ) ;
#616 = EDGE_CURVE ( 'NONE', #1235, #257, #672, .T. ) ;
#617 = EDGE_CURVE ( 'NONE', #929, #243, #1180, .T. ) ;
#618 = CYLINDRICAL_SURFACE ( 'NONE', #541, 1.200000000000000622 ) ;
#619 = CARTESIAN_POINT ( 'NONE',  ( 0.000000000000000000, 0.000000000000000000, 0.000000000000000000 ) ) ;
#620 = ORIENTED_EDGE ( 'NONE', *, *, #517, .T. ) ;
#621 = VECTOR ( 'NONE', #1199, 1000.000000000000000 ) ;
#622 = EDGE_CURVE ( 'NONE', #815, #974, #434, .T. ) ;
#623 = LINE ( 'NONE', #24, #1241 ) ;
#624 = ORIENTED_EDGE ( 'NONE', *, *, #137, .T. ) ;
#625 = AXIS2_PLACEMENT_3D ( 'NONE', #348, #856, #1173 ) ;
#626 = DIRECTION ( 'NONE',  ( -1.000000000000000000, 0.000000000000000000, 0.000000000000000000 ) ) ;
#627 = AXIS2_PLACEMENT_3D ( 'NONE', #426, #1234, #411 ) ;
#628 = EDGE_LOOP ( 'NONE', ( #1048, #54, #879, #307 ) ) ;
#629 = CYLINDRICAL_SURFACE ( 'NONE', #646, 1.600000000000000089 ) ;
#630 = EDGE_LOOP ( 'NONE', ( #522, #35, #1170, #176 ) ) ;
#631 =( LENGTH_UNIT ( ) NAMED_UNIT ( * ) SI_UNIT ( .MILLI., .METRE. ) );
#632 = PLANE ( 'NONE',  #876 ) ;
#633 = VERTEX_POINT ( 'NONE', #196 ) ;
#634 = DIRECTION ( 'NONE',  ( -1.000000000000000000, -3.614007241618346010E-15, 0.000000000000000000 ) ) ;
#635 = EDGE_LOOP ( 'NONE', ( #120, #330, #666, #235 ) ) ;
#636 = FACE_BOUND ( 'NONE', #285, .T. ) ;
#637 = PRODUCT_RELATED_PRODUCT_CATEGORY ( 'part', '', ( #579 ) ) ;
#638 = ORIENTED_EDGE ( 'NONE', *, *, #114, .F. ) ;
#639 = DIRECTION ( 'NONE',  ( -0.000000000000000000, -1.000000000000000000, -0.000000000000000000 ) ) ;
#640 = CARTESIAN_POINT ( 'NONE',  ( 8.098528137423906870, 8.098528137423807394, -6.200000000000001066 ) ) ;
#641 = AXIS2_PLACEMENT_3D ( 'NONE', #1098, #1105, #1295 ) ;
#642 = DIRECTION ( 'NONE',  ( 0.000000000000000000, 1.000000000000000000, -0.000000000000000000 ) ) ;
#643 = EDGE_LOOP ( 'NONE', ( #129, #810, #512, #1148 ) ) ;
#644 = EDGE_LOOP ( 'NONE', ( #751, #185, #446, #1255, #548 ) ) ;
#645 = EDGE_CURVE ( 'NONE', #938, #142, #679, .T. ) ;
#646 = AXIS2_PLACEMENT_3D ( 'NONE', #130, #947, #43 ) ;
#647 = CARTESIAN_POINT ( 'NONE',  ( -10.05000000000000249, 3.559999999999989395, -1.759401076758521310 ) ) ;
#648 = VECTOR ( 'NONE', #1205, 1000.000000000000000 ) ;
#649 = ORIENTED_EDGE ( 'NONE', *, *, #21, .F. ) ;
#650 = ORIENTED_EDGE ( 'NONE', *, *, #1190, .T. ) ;
#651 = DIRECTION ( 'NONE',  ( 0.000000000000000000, 0.000000000000000000, -1.000000000000000000 ) ) ;
#652 = ORIENTED_EDGE ( 'NONE', *, *, #306, .T. ) ;
#653 = EDGE_CURVE ( 'NONE', #184, #704, #344, .T. ) ;
#654 = DIRECTION ( 'NONE',  ( 0.000000000000000000, 0.000000000000000000, -1.000000000000000000 ) ) ;
#655 = DIRECTION ( 'NONE',  ( 1.232467328578680834E-16, -0.000000000000000000, 1.000000000000000000 ) ) ;
#656 = EDGE_LOOP ( 'NONE', ( #413, #102, #987, #502 ) ) ;
#657 = VERTEX_POINT ( 'NONE', #1081 ) ;
#658 = DIRECTION ( 'NONE',  ( -8.714860056288519254E-17, -0.7071067811865492381, -0.7071067811865457964 ) ) ;
#659 = ORIENTED_EDGE ( 'NONE', *, *, #391, .F. ) ;
#660 = AXIS2_PLACEMENT_3D ( 'NONE', #1261, #1150, #1057 ) ;
#661 = CARTESIAN_POINT ( 'NONE',  ( 11.80940107675850470, 3.000000000000000000, -1.759401076758520865 ) ) ;
#662 = PLANE ( 'NONE',  #1186 ) ;
#663 = DIRECTION ( 'NONE',  ( 0.000000000000000000, 0.000000000000000000, 1.000000000000000000 ) ) ;
#664 = ORIENTED_EDGE ( 'NONE', *, *, #670, .F. ) ;
#665 = LINE ( 'NONE', #1075, #711 ) ;
#666 = ORIENTED_EDGE ( 'NONE', *, *, #536, .F. ) ;
#667 = VECTOR ( 'NONE', #402, 1000.000000000000000 ) ;
#668 = CARTESIAN_POINT ( 'NONE',  ( -7.500000000000001776, 7.000000000000001776, -3.200000000000000622 ) ) ;
#669 = CARTESIAN_POINT ( 'NONE',  ( -5.025000000000056311, 3.000000000000000000, 5.025000000000002132 ) ) ;
#670 = EDGE_CURVE ( 'NONE', #251, #1104, #1195, .T. ) ;
#671 = VECTOR ( 'NONE', #154, 1000.000000000000000 ) ;
#672 = LINE ( 'NONE', #590, #847 ) ;
#673 = CARTESIAN_POINT ( 'NONE',  ( -11.80940107675850470, 42.00856600400326357, -6.200000000000001066 ) ) ;
#674 = VECTOR ( 'NONE', #1187, 1000.000000000000000 ) ;
#675 = EDGE_LOOP ( 'NONE', ( #586, #1257, #338, #299, #650 ) ) ;
#676 = DIRECTION ( 'NONE',  ( -0.000000000000000000, -0.000000000000000000, -1.000000000000000000 ) ) ;
#677 = CARTESIAN_POINT ( 'NONE',  ( 8.699999999999999289, 7.000000000000000000, 0.5620386839630727716 ) ) ;
#678 = CARTESIAN_POINT ( 'NONE',  ( 10.05000000000000071, 9.273943140569590682, -1.759401076758520865 ) ) ;
#679 = LINE ( 'NONE', #909, #1288 ) ;
#680 = DIRECTION ( 'NONE',  ( 0.000000000000000000, 0.000000000000000000, 1.000000000000000000 ) ) ;
#681 = ADVANCED_FACE ( 'NONE', ( #99 ), #188, .T. ) ;
#682 = VERTEX_POINT ( 'NONE', #569 ) ;
#683 = DIRECTION ( 'NONE',  ( 0.000000000000000000, 0.000000000000000000, 1.000000000000000000 ) ) ;
#684 = LINE ( 'NONE', #900, #621 ) ;
#685 = CARTESIAN_POINT ( 'NONE',  ( 4.050000000000003375, 1.000000000000000000, -2.996277699632807206E-15 ) ) ;
#686 = DIRECTION ( 'NONE',  ( 0.7071067811865425767, 0.7071067811865525687, 0.000000000000000000 ) ) ;
#687 = AXIS2_PLACEMENT_3D ( 'NONE', #883, #266, #663 ) ;
#688 = LINE ( 'NONE', #490, #6 ) ;
#689 = ORIENTED_EDGE ( 'NONE', *, *, #779, .T. ) ;
#690 = CARTESIAN_POINT ( 'NONE',  ( -7.500000000000001776, 8.697056274847728474, -6.200000000000001066 ) ) ;
#691 = CARTESIAN_POINT ( 'NONE',  ( 0.5985281374238125007, 0.5985281374238045071, -6.200000000000001066 ) ) ;
#692 = LINE ( 'NONE', #386, #216 ) ;
#693 = EDGE_CURVE ( 'NONE', #1202, #1250, #1102, .T. ) ;
#694 = FACE_OUTER_BOUND ( 'NONE', #1163, .T. ) ;
#695 = DIRECTION ( 'NONE',  ( -0.000000000000000000, -1.000000000000000000, -0.000000000000000000 ) ) ;
#696 = ORIENTED_EDGE ( 'NONE', *, *, #574, .F. ) ;
#697 = LINE ( 'NONE', #816, #1222 ) ;
#698 = VECTOR ( 'NONE', #584, 1000.000000000000000 ) ;
#699 = EDGE_CURVE ( 'NONE', #633, #885, #1152, .T. ) ;
#700 = CARTESIAN_POINT ( 'NONE',  ( 10.05000000000000071, 5.000000000000000000, -3.199401076758528362 ) ) ;
#701 = PLANE ( 'NONE',  #71 ) ;
#702 = ORIENTED_EDGE ( 'NONE', *, *, #535, .F. ) ;
#703 = DIRECTION ( 'NONE',  ( 0.000000000000000000, 0.000000000000000000, 1.000000000000000000 ) ) ;
#704 = VERTEX_POINT ( 'NONE', #60 ) ;
#705 = DIRECTION ( 'NONE',  ( 0.000000000000000000, 1.000000000000000000, -0.000000000000000000 ) ) ;
#706 = DIRECTION ( 'NONE',  ( 0.7071067811865512365, -0.000000000000000000, 0.7071067811865439090 ) ) ;
#707 = EDGE_LOOP ( 'NONE', ( #778, #981, #898, #37 ) ) ;
#708 = DIRECTION ( 'NONE',  ( -1.000000000000000000, 0.000000000000000000, -1.836167923230703129E-17 ) ) ;
#709 = ORIENTED_EDGE ( 'NONE', *, *, #143, .T. ) ;
#710 = AXIS2_PLACEMENT_3D ( 'NONE', #523, #614, #626 ) ;
#711 = VECTOR ( 'NONE', #492, 1000.000000000000000 ) ;
#712 = LINE ( 'NONE', #1128, #983 ) ;
#713 = EDGE_CURVE ( 'NONE', #1265, #500, #1000, .T. ) ;
#714 = ORIENTED_EDGE ( 'NONE', *, *, #440, .F. ) ;
#715 = FACE_OUTER_BOUND ( 'NONE', #628, .T. ) ;
#716 = ADVANCED_FACE ( 'NONE', ( #470 ), #1292, .F. ) ;
#717 = MECHANICAL_DESIGN_GEOMETRIC_PRESENTATION_REPRESENTATION (  '', ( #201 ), #606 ) ;
#718 = AXIS2_PLACEMENT_3D ( 'NONE', #685, #589, #783 ) ;
#719 = ADVANCED_FACE ( 'NONE', ( #694, #105, #1201 ), #489, .F. ) ;
#720 = LINE ( 'NONE', #1142, #16 ) ;
#721 = EDGE_LOOP ( 'NONE', ( #1184, #335, #557, #63 ) ) ;
#722 = DIRECTION ( 'NONE',  ( 1.232467328578682067E-16, 0.000000000000000000, -1.000000000000000000 ) ) ;
#723 = CARTESIAN_POINT ( 'NONE',  ( -4.049999999999996270, 3.000000000000000000, 3.199999999999999734 ) ) ;
#724 = ADVANCED_FACE ( 'NONE', ( #882 ), #1277, .T. ) ;
#725 = CARTESIAN_POINT ( 'NONE',  ( -11.80940107675850470, 10.59999999999999787, 0.000000000000000000 ) ) ;
#726 = CARTESIAN_POINT ( 'NONE',  ( -4.049999999999996270, 12.05096679918780822, -5.163679313594173001E-16 ) ) ;
#727 = LINE ( 'NONE', #525, #1225 ) ;
#728 = CARTESIAN_POINT ( 'NONE',  ( 7.499999999999998224, 7.000000000000000000, 0.5620386839630727716 ) ) ;
#729 = FACE_OUTER_BOUND ( 'NONE', #869, .T. ) ;
#730 = EDGE_CURVE ( 'NONE', #1237, #1168, #1283, .T. ) ;
#731 = ORIENTED_EDGE ( 'NONE', *, *, #566, .T. ) ;
#732 = ORIENTED_EDGE ( 'NONE', *, *, #713, .T. ) ;
#733 = CIRCLE ( 'NONE', #177, 1.600000000000000089 ) ;
#734 = AXIS2_PLACEMENT_3D ( 'NONE', #104, #705, #594 ) ;
#735 = ADVANCED_FACE ( 'NONE', ( #1188 ), #917, .T. ) ;
#736 = EDGE_LOOP ( 'NONE', ( #852, #1248, #1210, #518, #770 ) ) ;
#737 = CARTESIAN_POINT ( 'NONE',  ( -10.05000000000000249, 5.000000000000000000, -3.199401076758525253 ) ) ;
#738 = VECTOR ( 'NONE', #776, 1000.000000000000000 ) ;
#739 = ORIENTED_EDGE ( 'NONE', *, *, #854, .T. ) ;
#740 = CARTESIAN_POINT ( 'NONE',  ( 8.348528137423857132, 7.848528137423852691, -3.200000000000000622 ) ) ;
#741 = ORIENTED_EDGE ( 'NONE', *, *, #1226, .T. ) ;
#742 = VECTOR ( 'NONE', #128, 1000.000000000000000 ) ;
#743 =( NAMED_UNIT ( * ) SI_UNIT ( $, .STERADIAN. ) SOLID_ANGLE_UNIT ( ) );
#744 = DIRECTION ( 'NONE',  ( 0.000000000000000000, 0.000000000000000000, 1.000000000000000000 ) ) ;
#745 = EDGE_CURVE ( 'NONE', #845, #351, #23, .T. ) ;
#746 = ORIENTED_EDGE ( 'NONE', *, *, #248, .F. ) ;
#747 = CARTESIAN_POINT ( 'NONE',  ( -11.80940107675850470, 4.999999999999997335, -3.200000000000000622 ) ) ;
#748 = DIRECTION ( 'NONE',  ( 0.000000000000000000, 0.000000000000000000, -1.000000000000000000 ) ) ;
#749 = VERTEX_POINT ( 'NONE', #240 ) ;
#750 = MANIFOLD_SOLID_BREP ( 'Chamfer1', #3 ) ;
#751 = ORIENTED_EDGE ( 'NONE', *, *, #46, .T. ) ;
#752 = VECTOR ( 'NONE', #260, 1000.000000000000000 ) ;
#753 = DIRECTION ( 'NONE',  ( -0.000000000000000000, -1.000000000000000000, -0.000000000000000000 ) ) ;
#754 = DIRECTION ( 'NONE',  ( 0.000000000000000000, 1.000000000000000000, -0.000000000000000000 ) ) ;
#755 = ADVANCED_FACE ( 'NONE', ( #1036 ), #447, .F. ) ;
#756 = LINE ( 'NONE', #1167, #752 ) ;
#757 = VECTOR ( 'NONE', #676, 1000.000000000000000 ) ;
#758 = EDGE_CURVE ( 'NONE', #682, #974, #258, .T. ) ;
#759 = ORIENTED_EDGE ( 'NONE', *, *, #1026, .T. ) ;
#760 = DIRECTION ( 'NONE',  ( -1.000000000000000000, -0.000000000000000000, -1.232467328578682067E-16 ) ) ;
#761 = ORIENTED_EDGE ( 'NONE', *, *, #699, .T. ) ;
#762 = AXIS2_PLACEMENT_3D ( 'NONE', #1087, #986, #296 ) ;
#763 = DIRECTION ( 'NONE',  ( 0.000000000000000000, 0.000000000000000000, -1.000000000000000000 ) ) ;
#764 = ORIENTED_EDGE ( 'NONE', *, *, #670, .T. ) ;
#765 = ORIENTED_EDGE ( 'NONE', *, *, #935, .F. ) ;
#766 = CARTESIAN_POINT ( 'NONE',  ( -10.05000000000000071, 3.000000000000000000, 3.035766082959431348E-15 ) ) ;
#767 = ORIENTED_EDGE ( 'NONE', *, *, #1127, .T. ) ;
#768 = ADVANCED_FACE ( 'NONE', ( #166, #1233 ), #39, .T. ) ;
#769 = DIRECTION ( 'NONE',  ( 0.000000000000000000, 0.7071067811865491270, -0.7071067811865459074 ) ) ;
#770 = ORIENTED_EDGE ( 'NONE', *, *, #48, .F. ) ;
#771 = ORIENTED_EDGE ( 'NONE', *, *, #22, .T. ) ;
#772 = CARTESIAN_POINT ( 'NONE',  ( -4.049999999999996270, 3.000000000000000000, -5.163679313594173001E-16 ) ) ;
#773 = VERTEX_POINT ( 'NONE', #1289 ) ;
#774 = LINE ( 'NONE', #677, #134 ) ;
#775 = ADVANCED_FACE ( 'NONE', ( #559 ), #567, .T. ) ;
#776 = DIRECTION ( 'NONE',  ( -0.000000000000000000, -1.000000000000000000, -0.000000000000000000 ) ) ;
#777 = CARTESIAN_POINT ( 'NONE',  ( 4.050000000000003375, 3.000000000000000000, -3.200000000000003286 ) ) ;
#778 = ORIENTED_EDGE ( 'NONE', *, *, #160, .F. ) ;
#779 = EDGE_CURVE ( 'NONE', #822, #657, #684, .T. ) ;
#780 = ORIENTED_EDGE ( 'NONE', *, *, #927, .F. ) ;
#781 = DIRECTION ( 'NONE',  ( -0.000000000000000000, -0.000000000000000000, -1.000000000000000000 ) ) ;
#782 = AXIS2_PLACEMENT_3D ( 'NONE', #1144, #222, #634 ) ;
#783 = DIRECTION ( 'NONE',  ( 0.000000000000000000, 0.000000000000000000, 1.000000000000000000 ) ) ;
#784 = EDGE_CURVE ( 'NONE', #938, #184, #332, .T. ) ;
#785 = COLOUR_RGB ( '',0.7921568627450980005, 0.8196078431372548767, 0.9333333333333333481 ) ;
#786 = DIRECTION ( 'NONE',  ( 0.7071067811865435759, 0.7071067811865513475, 1.298366789913643102E-17 ) ) ;
#787 = CARTESIAN_POINT ( 'NONE',  ( 11.80940107675850470, 3.000000000000000000, 0.000000000000000000 ) ) ;
#788 = AXIS2_PLACEMENT_3D ( 'NONE', #978, #342, #744 ) ;
#789 = EDGE_CURVE ( 'NONE', #1155, #704, #1275, .T. ) ;
#790 = ORIENTED_EDGE ( 'NONE', *, *, #1061, .T. ) ;
#791 = CARTESIAN_POINT ( 'NONE',  ( -4.049999999999996270, 0.9999999999999991118, -5.163679313594173001E-16 ) ) ;
#792 = DIRECTION ( 'NONE',  ( 0.000000000000000000, 0.000000000000000000, 1.000000000000000000 ) ) ;
#793 = DIRECTION ( 'NONE',  ( -0.000000000000000000, -1.000000000000000000, -0.000000000000000000 ) ) ;
#794 = CARTESIAN_POINT ( 'NONE',  ( -4.049999999999996270, 3.000000000000000000, 3.199999999999999734 ) ) ;
#795 = ORIENTED_EDGE ( 'NONE', *, *, #571, .T. ) ;
#796 = EDGE_CURVE ( 'NONE', #954, #467, #366, .T. ) ;
#797 = DIRECTION ( 'NONE',  ( 0.000000000000000000, 0.000000000000000000, -1.000000000000000000 ) ) ;
#798 = CARTESIAN_POINT ( 'NONE',  ( -11.80940107675850470, 42.00856600400326357, -3.200000000000000622 ) ) ;
#799 = DIRECTION ( 'NONE',  ( 0.000000000000000000, 1.000000000000000000, -0.000000000000000000 ) ) ;
#800 = ORIENTED_EDGE ( 'NONE', *, *, #1110, .F. ) ;
#801 = DIRECTION ( 'NONE',  ( -0.000000000000000000, -0.000000000000000000, -1.000000000000000000 ) ) ;
#802 = ADVANCED_FACE ( 'NONE', ( #967 ), #272, .F. ) ;
#803 = CARTESIAN_POINT ( 'NONE',  ( 11.80940107675850470, 42.00856600400326357, -3.200000000000000622 ) ) ;
#804 = LINE ( 'NONE', #794, #667 ) ;
#805 = AXIS2_PLACEMENT_3D ( 'NONE', #229, #942, #1044 ) ;
#806 = ORIENTED_EDGE ( 'NONE', *, *, #596, .F. ) ;
#807 = DIRECTION ( 'NONE',  ( 1.000000000000000000, 0.000000000000000000, -1.232467328578680834E-16 ) ) ;
#808 = AXIS2_PLACEMENT_3D ( 'NONE', #445, #1264, #191 ) ;
#809 = VECTOR ( 'NONE', #769, 1000.000000000000114 ) ;
#810 = ORIENTED_EDGE ( 'NONE', *, *, #160, .T. ) ;
#811 = DIRECTION ( 'NONE',  ( 0.000000000000000000, 1.000000000000000000, -0.000000000000000000 ) ) ;
#812 = CARTESIAN_POINT ( 'NONE',  ( 0.000000000000000000, 1.000000000000000000, 0.000000000000000000 ) ) ;
#813 = AXIS2_PLACEMENT_3D ( 'NONE', #728, #1229, #928 ) ;
#814 = EDGE_CURVE ( 'NONE', #1074, #7, #83, .T. ) ;
#815 = VERTEX_POINT ( 'NONE', #1172 ) ;
#816 = CARTESIAN_POINT ( 'NONE',  ( 10.05000000000000426, 3.000000000000000000, 4.599999999999997868 ) ) ;
#817 = AXIS2_PLACEMENT_3D ( 'NONE', #161, #464, #538 ) ;
#818 = EDGE_CURVE ( 'NONE', #1027, #954, #264, .T. ) ;
#819 = ORIENTED_EDGE ( 'NONE', *, *, #611, .T. ) ;
#820 = EDGE_CURVE ( 'NONE', #199, #633, #78, .T. ) ;
#821 = CARTESIAN_POINT ( 'NONE',  ( -10.05000000000000249, 3.000000000000000000, 4.600000000000000533 ) ) ;
#822 = VERTEX_POINT ( 'NONE', #975 ) ;
#823 = CARTESIAN_POINT ( 'NONE',  ( 8.348528137423857132, 7.848528137423853579, 0.5620386839630727716 ) ) ;
#824 = EDGE_CURVE ( 'NONE', #773, #422, #774, .T. ) ;
#825 = AXIS2_PLACEMENT_3D ( 'NONE', #549, #1185, #371 ) ;
#826 = VERTEX_POINT ( 'NONE', #723 ) ;
#827 = AXIS2_PLACEMENT_3D ( 'NONE', #668, #1268, #294 ) ;
#828 = PLANE ( 'NONE',  #805 ) ;
#829 = CIRCLE ( 'NONE', #627, 1.600000000000000089 ) ;
#830 = EDGE_CURVE ( 'NONE', #349, #149, #420, .T. ) ;
#831 = DIRECTION ( 'NONE',  ( -0.000000000000000000, -0.000000000000000000, -1.000000000000000000 ) ) ;
#832 = DIRECTION ( 'NONE',  ( 0.7071067811865522357, 0.7071067811865427988, -0.000000000000000000 ) ) ;
#833 = DIRECTION ( 'NONE',  ( -0.000000000000000000, -1.000000000000000000, -0.000000000000000000 ) ) ;
#834 = ORIENTED_EDGE ( 'NONE', *, *, #927, .T. ) ;
#835 = CYLINDRICAL_SURFACE ( 'NONE', #1118, 1.600000000000000089 ) ;
#836 = VECTOR ( 'NONE', #1064, 1000.000000000000114 ) ;
#837 = VERTEX_POINT ( 'NONE', #244 ) ;
#838 = VERTEX_POINT ( 'NONE', #740 ) ;
#839 = EDGE_CURVE ( 'NONE', #885, #467, #727, .T. ) ;
#840 = VECTOR ( 'NONE', #1109, 1000.000000000000114 ) ;
#841 = DIRECTION ( 'NONE',  ( 0.7071067811865436870, 0.000000000000000000, 0.7071067811865513475 ) ) ;
#842 = ORIENTED_EDGE ( 'NONE', *, *, #1106, .F. ) ;
#843 = ORIENTED_EDGE ( 'NONE', *, *, #553, .F. ) ;
#844 = CARTESIAN_POINT ( 'NONE',  ( 0.5985281374238125007, 0.5985281374238045071, 0.5620386839630727716 ) ) ;
#845 = VERTEX_POINT ( 'NONE', #1126 ) ;
#846 = AXIS2_PLACEMENT_3D ( 'NONE', #984, #1078, #871 ) ;
#847 = VECTOR ( 'NONE', #542, 1000.000000000000000 ) ;
#848 = DIRECTION ( 'NONE',  ( 1.000000000000000000, 0.000000000000000000, 1.836167923230703129E-17 ) ) ;
#849 = PLANE ( 'NONE',  #27 ) ;
#850 = ORIENTED_EDGE ( 'NONE', *, *, #622, .T. ) ;
#851 = FACE_OUTER_BOUND ( 'NONE', #384, .T. ) ;
#852 = ORIENTED_EDGE ( 'NONE', *, *, #509, .F. ) ;
#853 = VECTOR ( 'NONE', #520, 1000.000000000000000 ) ;
#854 = EDGE_CURVE ( 'NONE', #972, #422, #231, .T. ) ;
#855 = PRESENTATION_STYLE_ASSIGNMENT (( #1157 ) ) ;
#856 = DIRECTION ( 'NONE',  ( -1.000000000000000000, 0.000000000000000000, 7.542275982507860105E-16 ) ) ;
#857 = FACE_OUTER_BOUND ( 'NONE', #144, .T. ) ;
#858 = VERTEX_POINT ( 'NONE', #223 ) ;
#859 = LINE ( 'NONE', #468, #561 ) ;
#860 = VERTEX_POINT ( 'NONE', #1154 ) ;
#861 = AXIS2_PLACEMENT_3D ( 'NONE', #80, #466, #890 ) ;
#862 = CARTESIAN_POINT ( 'NONE',  ( 4.050000000000003375, 12.05096679918780822, -2.996277699632807206E-15 ) ) ;
#863 = PLANE ( 'NONE',  #378 ) ;
#864 = ORIENTED_EDGE ( 'NONE', *, *, #1072, .F. ) ;
#865 = VECTOR ( 'NONE', #30, 1000.000000000000000 ) ;
#866 = ORIENTED_EDGE ( 'NONE', *, *, #321, .F. ) ;
#867 = LINE ( 'NONE', #278, #757 ) ;
#868 = EDGE_CURVE ( 'NONE', #1027, #7, #139, .T. ) ;
#869 = EDGE_LOOP ( 'NONE', ( #550, #891, #771, #864 ) ) ;
#870 = VECTOR ( 'NONE', #1284, 1000.000000000000000 ) ;
#871 = DIRECTION ( 'NONE',  ( -0.7071067811865432429, 0.7071067811865517916, 0.000000000000000000 ) ) ;
#872 = VECTOR ( 'NONE', #781, 1000.000000000000000 ) ;
#873 = FACE_OUTER_BOUND ( 'NONE', #593, .T. ) ;
#874 = ORIENTED_EDGE ( 'NONE', *, *, #1211, .T. ) ;
#875 = ADVANCED_FACE ( 'NONE', ( #851, #636, #236 ), #828, .T. ) ;
#876 = AXIS2_PLACEMENT_3D ( 'NONE', #1022, #514, #937 ) ;
#877 = EDGE_LOOP ( 'NONE', ( #162, #405, #347, #65 ) ) ;
#878 = DIRECTION ( 'NONE',  ( 0.000000000000000000, 0.000000000000000000, 1.000000000000000000 ) ) ;
#879 = ORIENTED_EDGE ( 'NONE', *, *, #653, .T. ) ;
#880 = DIRECTION ( 'NONE',  ( 0.000000000000000000, 0.000000000000000000, 1.000000000000000000 ) ) ;
#881 = EDGE_CURVE ( 'NONE', #1090, #170, #415, .T. ) ;
#882 = FACE_OUTER_BOUND ( 'NONE', #267, .T. ) ;
#883 = CARTESIAN_POINT ( 'NONE',  ( -11.80940107675850470, 3.000000000000000000, 0.000000000000000000 ) ) ;
#884 = SHAPE_DEFINITION_REPRESENTATION ( #239, #1223 ) ;
#885 = VERTEX_POINT ( 'NONE', #1227 ) ;
#886 = FACE_OUTER_BOUND ( 'NONE', #1002, .T. ) ;
#887 = DIRECTION ( 'NONE',  ( -7.542275982507860105E-16, 0.000000000000000000, -1.000000000000000000 ) ) ;
#888 = DIRECTION ( 'NONE',  ( -1.000000000000000000, 0.000000000000000000, -1.836167923230703129E-17 ) ) ;
#889 = DIRECTION ( 'NONE',  ( 0.000000000000000000, 0.000000000000000000, 1.000000000000000000 ) ) ;
#890 = DIRECTION ( 'NONE',  ( -1.000000000000000000, 0.000000000000000000, 0.000000000000000000 ) ) ;
#891 = ORIENTED_EDGE ( 'NONE', *, *, #645, .T. ) ;
#892 = DIRECTION ( 'NONE',  ( -0.000000000000000000, -1.000000000000000000, -0.000000000000000000 ) ) ;
#893 = VECTOR ( 'NONE', #801, 1000.000000000000000 ) ;
#894 = LINE ( 'NONE', #302, #607 ) ;
#895 = VECTOR ( 'NONE', #833, 1000.000000000000000 ) ;
#896 = DIRECTION ( 'NONE',  ( 0.000000000000000000, 1.000000000000000000, -0.000000000000000000 ) ) ;
#897 = AXIS2_PLACEMENT_3D ( 'NONE', #392, #1093, #1212 ) ;
#898 = ORIENTED_EDGE ( 'NONE', *, *, #745, .T. ) ;
#899 = CARTESIAN_POINT ( 'NONE',  ( 10.05000000000000249, 3.000000000000000000, -7.579987362420401979E-15 ) ) ;
#900 = CARTESIAN_POINT ( 'NONE',  ( 0.000000000000000000, 0.000000000000000000, -6.200000000000001066 ) ) ;
#901 = CARTESIAN_POINT ( 'NONE',  ( 4.050000000000003375, 1.000000000000000000, -3.200000000000003286 ) ) ;
#902 = PLANE ( 'NONE',  #454 ) ;
#903 = ADVANCED_FACE ( 'NONE', ( #615 ), #629, .F. ) ;
#904 = ORIENTED_EDGE ( 'NONE', *, *, #616, .T. ) ;
#905 = DIRECTION ( 'NONE',  ( 0.000000000000000000, 0.000000000000000000, -1.000000000000000000 ) ) ;
#906 = ADVANCED_FACE ( 'NONE', ( #936 ), #430, .F. ) ;
#907 = CARTESIAN_POINT ( 'NONE',  ( 10.05000000000000071, 9.273943140569590682, -3.200000000000000622 ) ) ;
#908 = CIRCLE ( 'NONE', #109, 1.200000000000001510 ) ;
#909 = CARTESIAN_POINT ( 'NONE',  ( -6.299999999999998934, 7.000000000000001776, 0.5620386839630727716 ) ) ;
#910 = FACE_OUTER_BOUND ( 'NONE', #721, .T. ) ;
#911 = ORIENTED_EDGE ( 'NONE', *, *, #1066, .T. ) ;
#912 = LINE ( 'NONE', #15, #315 ) ;
#913 = AXIS2_PLACEMENT_3D ( 'NONE', #1088, #918, #383 ) ;
#914 = ORIENTED_EDGE ( 'NONE', *, *, #699, .F. ) ;
#915 = CARTESIAN_POINT ( 'NONE',  ( -8.348528137423866013, 7.848528137423855355, -6.200000000000001066 ) ) ;
#916 = AXIS2_PLACEMENT_3D ( 'NONE', #388, #799, #1006 ) ;
#917 = PLANE ( 'NONE',  #432 ) ;
#918 = DIRECTION ( 'NONE',  ( -1.000000000000000000, 0.000000000000000000, 7.542275982507861091E-16 ) ) ;
#919 = VECTOR ( 'NONE', #651, 1000.000000000000000 ) ;
#920 = ORIENTED_EDGE ( 'NONE', *, *, #1033, .F. ) ;
#921 = LINE ( 'NONE', #1216, #601 ) ;
#922 = CIRCLE ( 'NONE', #117, 3.200000000000000178 ) ;
#923 = ORIENTED_EDGE ( 'NONE', *, *, #566, .F. ) ;
#924 = CARTESIAN_POINT ( 'NONE',  ( 10.05000000000000071, 3.000000000000002665, -3.200000000000000622 ) ) ;
#925 = ORIENTED_EDGE ( 'NONE', *, *, #820, .T. ) ;
#926 = CARTESIAN_POINT ( 'NONE',  ( -10.05000000000000249, 9.273943140569590682, 0.000000000000000000 ) ) ;
#927 = EDGE_CURVE ( 'NONE', #1130, #822, #1247, .T. ) ;
#928 = DIRECTION ( 'NONE',  ( -1.000000000000000000, 0.000000000000000000, 0.000000000000000000 ) ) ;
#929 = VERTEX_POINT ( 'NONE', #376 ) ;
#930 = CARTESIAN_POINT ( 'NONE',  ( 6.651471862576134875, 7.848528137423852691, -3.200000000000000622 ) ) ;
#931 = AXIS2_PLACEMENT_3D ( 'NONE', #8, #1116, #404 ) ;
#932 = DIRECTION ( 'NONE',  ( 1.000000000000000000, 0.000000000000000000, 1.836167923230703129E-17 ) ) ;
#933 = ORIENTED_EDGE ( 'NONE', *, *, #521, .F. ) ;
#934 = DIRECTION ( 'NONE',  ( -1.000000000000000000, 0.000000000000000000, 0.000000000000000000 ) ) ;
#935 = EDGE_CURVE ( 'NONE', #7, #467, #363, .T. ) ;
#936 = FACE_OUTER_BOUND ( 'NONE', #50, .T. ) ;
#937 = DIRECTION ( 'NONE',  ( 0.7071067811865435759, 0.7071067811865513475, 0.000000000000000000 ) ) ;
#938 = VERTEX_POINT ( 'NONE', #1091 ) ;
#939 = CARTESIAN_POINT ( 'NONE',  ( -7.500000000000001776, 7.000000000000001776, 0.5620386839630727716 ) ) ;
#940 = EDGE_CURVE ( 'NONE', #1168, #929, #1084, .T. ) ;
#941 = VERTEX_POINT ( 'NONE', #82 ) ;
#942 = DIRECTION ( 'NONE',  ( 0.000000000000000000, 0.000000000000000000, -1.000000000000000000 ) ) ;
#943 = CARTESIAN_POINT ( 'NONE',  ( 4.050000000000003375, 12.05096679918780822, -1.600000000000003197 ) ) ;
#944 = CARTESIAN_POINT ( 'NONE',  ( 11.80940107675850470, 3.559999999999999609, -1.759401076758520865 ) ) ;
#945 = ORIENTED_EDGE ( 'NONE', *, *, #1110, .T. ) ;
#946 = ORIENTED_EDGE ( 'NONE', *, *, #274, .F. ) ;
#947 = DIRECTION ( 'NONE',  ( -0.000000000000000000, -1.000000000000000000, -0.000000000000000000 ) ) ;
#948 = EDGE_LOOP ( 'NONE', ( #141, #42, #1253, #620 ) ) ;
#949 = CIRCLE ( 'NONE', #710, 1.200000000000000622 ) ;
#950 = CYLINDRICAL_SURFACE ( 'NONE', #339, 3.200000000000000178 ) ;
#951 = VECTOR ( 'NONE', #1112, 1000.000000000000000 ) ;
#952 = CARTESIAN_POINT ( 'NONE',  ( -11.80940107675850470, 3.559999999999989395, -1.759401076758520421 ) ) ;
#953 = ORIENTED_EDGE ( 'NONE', *, *, #449, .T. ) ;
#954 = VERTEX_POINT ( 'NONE', #88 ) ;
#955 = EDGE_CURVE ( 'NONE', #837, #1027, #1287, .T. ) ;
#956 = AXIS2_PLACEMENT_3D ( 'NONE', #247, #639, #1010 ) ;
#957 = EDGE_CURVE ( 'NONE', #941, #1153, #960, .T. ) ;
#958 = DIRECTION ( 'NONE',  ( 0.000000000000000000, 0.000000000000000000, -1.000000000000000000 ) ) ;
#959 = ORIENTED_EDGE ( 'NONE', *, *, #553, .T. ) ;
#960 = LINE ( 'NONE', #766, #1120 ) ;
#961 = ORIENTED_EDGE ( 'NONE', *, *, #1065, .T. ) ;
#962 = DIRECTION ( 'NONE',  ( -1.000000000000000000, 0.000000000000000000, 0.000000000000000000 ) ) ;
#963 = VERTEX_POINT ( 'NONE', #62 ) ;
#964 = VERTEX_POINT ( 'NONE', #1273 ) ;
#965 = DIRECTION ( 'NONE',  ( -1.000000000000000000, 0.000000000000000000, 1.232467328578680834E-16 ) ) ;
#966 = ORIENTED_EDGE ( 'NONE', *, *, #1190, .F. ) ;
#967 = FACE_OUTER_BOUND ( 'NONE', #630, .T. ) ;
#968 = CARTESIAN_POINT ( 'NONE',  ( -7.500000000000001776, 8.697056274847728474, -3.200000000000000622 ) ) ;
#969 = ADVANCED_FACE ( 'NONE', ( #886 ), #186, .F. ) ;
#970 = DIRECTION ( 'NONE',  ( -7.542275982507861091E-16, 0.000000000000000000, -1.000000000000000000 ) ) ;
#971 = APPLICATION_PROTOCOL_DEFINITION ( 'draft international standard', 'automotive_design', 1998, #1140 ) ;
#972 = VERTEX_POINT ( 'NONE', #1169 ) ;
#973 = CARTESIAN_POINT ( 'NONE',  ( 11.80940107675850470, 3.000000000000000000, -1.759401076758520865 ) ) ;
#974 = VERTEX_POINT ( 'NONE', #989 ) ;
#975 = CARTESIAN_POINT ( 'NONE',  ( -11.80940107675850470, 0.000000000000000000, -6.200000000000001066 ) ) ;
#976 = CIRCLE ( 'NONE', #397, 3.200000000000000178 ) ;
#977 = VECTOR ( 'NONE', #448, 1000.000000000000000 ) ;
#978 = CARTESIAN_POINT ( 'NONE',  ( 4.050000000000003375, 0.9999999999999991118, -2.996277699632807206E-15 ) ) ;
#979 = CYLINDRICAL_SURFACE ( 'NONE', #861, 1.200000000000001510 ) ;
#980 = EDGE_CURVE ( 'NONE', #290, #245, #1206, .T. ) ;
#981 = ORIENTED_EDGE ( 'NONE', *, *, #1101, .T. ) ;
#982 = DIRECTION ( 'NONE',  ( 0.000000000000000000, 1.000000000000000000, -0.000000000000000000 ) ) ;
#983 = VECTOR ( 'NONE', #841, 1000.000000000000000 ) ;
#984 = CARTESIAN_POINT ( 'NONE',  ( 8.098528137423906870, 8.098528137423807394, 0.5620386839630727716 ) ) ;
#985 = LINE ( 'NONE', #907, #1021 ) ;
#986 = DIRECTION ( 'NONE',  ( 0.000000000000000000, 1.000000000000000000, -0.000000000000000000 ) ) ;
#987 = ORIENTED_EDGE ( 'NONE', *, *, #868, .T. ) ;
#988 = ORIENTED_EDGE ( 'NONE', *, *, #31, .F. ) ;
#989 = CARTESIAN_POINT ( 'NONE',  ( 4.050000000000003375, 0.000000000000000000, -1.600000000000003197 ) ) ;
#990 = LINE ( 'NONE', #10, #1290 ) ;
#991 = DIRECTION ( 'NONE',  ( -0.000000000000000000, -0.000000000000000000, -1.000000000000000000 ) ) ;
#992 = CARTESIAN_POINT ( 'NONE',  ( 4.050000000000003375, 3.000000000000000000, -2.996277699632807206E-15 ) ) ;
#993 = ORIENTED_EDGE ( 'NONE', *, *, #1299, .T. ) ;
#994 = DIRECTION ( 'NONE',  ( -1.000000000000000000, 0.000000000000000000, 0.000000000000000000 ) ) ;
#995 = CIRCLE ( 'NONE', #582, 1.200000000000000622 ) ;
#996 = DIRECTION ( 'NONE',  ( 0.000000000000000000, 0.000000000000000000, 1.000000000000000000 ) ) ;
#997 = EDGE_CURVE ( 'NONE', #704, #142, #96, .T. ) ;
#998 = LINE ( 'NONE', #678, #674 ) ;
#999 = VECTOR ( 'NONE', #533, 1000.000000000000000 ) ;
#1000 = LINE ( 'NONE', #777, #671 ) ;
#1001 = FACE_BOUND ( 'NONE', #1017, .T. ) ;
#1002 = EDGE_LOOP ( 'NONE', ( #1208, #1035, #462, #664 ) ) ;
#1003 = CARTESIAN_POINT ( 'NONE',  ( -7.500000000000001776, 7.000000000000001776, -6.200000000000001066 ) ) ;
#1004 = CARTESIAN_POINT ( 'NONE',  ( 10.05000000000000426, 0.000000000000000000, 9.804958777260573715E-16 ) ) ;
#1005 = CARTESIAN_POINT ( 'NONE',  ( -2.168404344971026617E-16, 3.559999999999999609, -1.759401076758519311 ) ) ;
#1006 = DIRECTION ( 'NONE',  ( 0.000000000000000000, 0.000000000000000000, 1.000000000000000000 ) ) ;
#1007 = EDGE_CURVE ( 'NONE', #845, #826, #976, .T. ) ;
#1008 = ORIENTED_EDGE ( 'NONE', *, *, #1026, .F. ) ;
#1009 = CARTESIAN_POINT ( 'NONE',  ( 10.05000000000000426, 3.000000000000000000, 4.599999999999997868 ) ) ;
#1010 = DIRECTION ( 'NONE',  ( 0.000000000000000000, 0.000000000000000000, -1.000000000000000000 ) ) ;
#1011 = DIRECTION ( 'NONE',  ( -1.000000000000000000, 0.000000000000000000, 1.294569758191646662E-16 ) ) ;
#1012 = EDGE_CURVE ( 'NONE', #349, #1235, #859, .T. ) ;
#1013 = VERTEX_POINT ( 'NONE', #358 ) ;
#1014 = DIRECTION ( 'NONE',  ( 1.836167923230703129E-17, 0.000000000000000000, -1.000000000000000000 ) ) ;
#1015 = APPLICATION_CONTEXT ( 'automotive_design' ) ;
#1016 = EDGE_CURVE ( 'NONE', #312, #1272, #733, .T. ) ;
#1017 = EDGE_LOOP ( 'NONE', ( #1134, #1238 ) ) ;
#1018 = AXIS2_PLACEMENT_3D ( 'NONE', #382, #793, #748 ) ;
#1019 = ORIENTED_EDGE ( 'NONE', *, *, #1033, .T. ) ;
#1020 = CYLINDRICAL_SURFACE ( 'NONE', #641, 1.200000000000001510 ) ;
#1021 = VECTOR ( 'NONE', #84, 1000.000000000000000 ) ;
#1022 = CARTESIAN_POINT ( 'NONE',  ( -0.5985281374238223817, 0.5985281374238158314, 0.5620386839630727716 ) ) ;
#1023 = DIRECTION ( 'NONE',  ( -0.000000000000000000, -0.000000000000000000, -1.000000000000000000 ) ) ;
#1024 = AXIS2_PLACEMENT_3D ( 'NONE', #1158, #962, #880 ) ;
#1025 = LINE ( 'NONE', #133, #853 ) ;
#1026 = EDGE_CURVE ( 'NONE', #954, #657, #262, .T. ) ;
#1027 = VERTEX_POINT ( 'NONE', #973 ) ;
#1028 = CARTESIAN_POINT ( 'NONE',  ( -4.049999999999996270, 0.000000000000000000, 1.599999999999999645 ) ) ;
#1029 = EDGE_CURVE ( 'NONE', #543, #175, #1183, .T. ) ;
#1030 = FACE_OUTER_BOUND ( 'NONE', #572, .T. ) ;
#1031 = ORIENTED_EDGE ( 'NONE', *, *, #830, .F. ) ;
#1032 = DIRECTION ( 'NONE',  ( 0.000000000000000000, 0.000000000000000000, 1.000000000000000000 ) ) ;
#1033 = EDGE_CURVE ( 'NONE', #773, #838, #47, .T. ) ;
#1034 = AXIS2_PLACEMENT_3D ( 'NONE', #32, #282, #996 ) ;
#1035 = ORIENTED_EDGE ( 'NONE', *, *, #1089, .F. ) ;
#1036 = FACE_OUTER_BOUND ( 'NONE', #529, .T. ) ;
#1037 = CYLINDRICAL_SURFACE ( 'NONE', #813, 1.200000000000000622 ) ;
#1038 = ORIENTED_EDGE ( 'NONE', *, *, #713, .F. ) ;
#1039 = ORIENTED_EDGE ( 'NONE', *, *, #1029, .T. ) ;
#1040 = CARTESIAN_POINT ( 'NONE',  ( 6.651471862576134875, 7.848528137423852691, -6.200000000000001066 ) ) ;
#1041 = ORIENTED_EDGE ( 'NONE', *, *, #796, .T. ) ;
#1042 = CARTESIAN_POINT ( 'NONE',  ( 2.168404344971030069E-16, 9.273943140569590682, -1.759401076758519977 ) ) ;
#1043 = ORIENTED_EDGE ( 'NONE', *, *, #178, .T. ) ;
#1044 = DIRECTION ( 'NONE',  ( -1.000000000000000000, 0.000000000000000000, -0.000000000000000000 ) ) ;
#1045 = ORIENTED_EDGE ( 'NONE', *, *, #955, .T. ) ;
#1046 = PLANE ( 'NONE',  #1141 ) ;
#1047 = VECTOR ( 'NONE', #385, 1000.000000000000114 ) ;
#1048 = ORIENTED_EDGE ( 'NONE', *, *, #645, .F. ) ;
#1049 = CARTESIAN_POINT ( 'NONE',  ( -0.5985281374238223817, 0.5985281374238158314, -6.200000000000001066 ) ) ;
#1050 = ORIENTED_EDGE ( 'NONE', *, *, #730, .F. ) ;
#1051 = DIRECTION ( 'NONE',  ( 0.000000000000000000, 0.000000000000000000, -1.000000000000000000 ) ) ;
#1052 = ORIENTED_EDGE ( 'NONE', *, *, #596, .T. ) ;
#1053 = AXIS2_PLACEMENT_3D ( 'NONE', #1131, #1051, #438 ) ;
#1054 = CIRCLE ( 'NONE', #1079, 1.600000000000000089 ) ;
#1055 =( NAMED_UNIT ( * ) PLANE_ANGLE_UNIT ( ) SI_UNIT ( $, .RADIAN. ) );
#1056 = DIRECTION ( 'NONE',  ( -0.000000000000000000, -1.000000000000000000, -0.000000000000000000 ) ) ;
#1057 = DIRECTION ( 'NONE',  ( 0.000000000000000000, 0.000000000000000000, -1.000000000000000000 ) ) ;
#1058 = ORIENTED_EDGE ( 'NONE', *, *, #248, .T. ) ;
#1059 = CARTESIAN_POINT ( 'NONE',  ( -7.500000000000001776, 7.000000000000001776, -3.200000000000000622 ) ) ;
#1060 = EDGE_LOOP ( 'NONE', ( #1039, #261, #945, #277 ) ) ;
#1061 = EDGE_CURVE ( 'NONE', #425, #1155, #867, .T. ) ;
#1062 = FILL_AREA_STYLE_COLOUR ( '', #785 ) ;
#1063 = CARTESIAN_POINT ( 'NONE',  ( 4.050000000000003375, 3.000000000000000000, -2.996277699632807206E-15 ) ) ;
#1064 = DIRECTION ( 'NONE',  ( 0.7071067811865431318, -0.7071067811865517916, 0.000000000000000000 ) ) ;
#1065 = EDGE_CURVE ( 'NONE', #149, #257, #1068, .T. ) ;
#1066 = EDGE_CURVE ( 'NONE', #257, #941, #665, .T. ) ;
#1067 = ORIENTED_EDGE ( 'NONE', *, *, #21, .T. ) ;
#1068 = LINE ( 'NONE', #74, #531 ) ;
#1069 = ORIENTED_EDGE ( 'NONE', *, *, #1065, .F. ) ;
#1070 = DIRECTION ( 'NONE',  ( -0.000000000000000000, -1.000000000000000000, -0.000000000000000000 ) ) ;
#1071 = LINE ( 'NONE', #1276, #809 ) ;
#1072 = EDGE_CURVE ( 'NONE', #175, #964, #487, .T. ) ;
#1073 = LINE ( 'NONE', #547, #527 ) ;
#1074 = VERTEX_POINT ( 'NONE', #1009 ) ;
#1075 = CARTESIAN_POINT ( 'NONE',  ( -5.025000000000056311, 3.000000000000000000, 5.025000000000002132 ) ) ;
#1076 = ORIENTED_EDGE ( 'NONE', *, *, #616, .F. ) ;
#1077 = AXIS2_PLACEMENT_3D ( 'NONE', #368, #275, #889 ) ;
#1078 = DIRECTION ( 'NONE',  ( 0.7071067811865517916, 0.7071067811865432429, -0.000000000000000000 ) ) ;
#1079 = AXIS2_PLACEMENT_3D ( 'NONE', #1282, #469, #792 ) ;
#1080 = DIRECTION ( 'NONE',  ( -0.7071067811865436870, 0.000000000000000000, -0.7071067811865513475 ) ) ;
#1081 = CARTESIAN_POINT ( 'NONE',  ( 11.80940107675850470, 0.000000000000000000, -6.200000000000001066 ) ) ;
#1082 = EDGE_LOOP ( 'NONE', ( #108, #165, #564, #316 ) ) ;
#1083 = ORIENTED_EDGE ( 'NONE', *, *, #789, .F. ) ;
#1084 = LINE ( 'NONE', #67, #872 ) ;
#1085 = AXIS2_PLACEMENT_3D ( 'NONE', #1133, #504, #140 ) ;
#1086 = CARTESIAN_POINT ( 'NONE',  ( -11.80940107675850470, 5.000000000000000000, -3.199401076758525253 ) ) ;
#1087 = CARTESIAN_POINT ( 'NONE',  ( 4.050000000000003375, 0.000000000000000000, -2.996277699632807206E-15 ) ) ;
#1088 = CARTESIAN_POINT ( 'NONE',  ( 10.05000000000000249, 9.273943140569590682, -7.579987362420401979E-15 ) ) ;
#1089 = EDGE_CURVE ( 'NONE', #580, #25, #912, .T. ) ;
#1090 = VERTEX_POINT ( 'NONE', #1203 ) ;
#1091 = CARTESIAN_POINT ( 'NONE',  ( -6.299999999999998934, 7.000000000000001776, -3.200000000000000622 ) ) ;
#1092 = AXIS2_PLACEMENT_3D ( 'NONE', #1207, #297, #1011 ) ;
#1093 = DIRECTION ( 'NONE',  ( 0.000000000000000000, 1.000000000000000000, -0.000000000000000000 ) ) ;
#1094 = EDGE_CURVE ( 'NONE', #1104, #580, #121, .T. ) ;
#1095 = DIRECTION ( 'NONE',  ( 1.000000000000000000, 0.000000000000000000, -1.294569758191646662E-16 ) ) ;
#1096 = DIRECTION ( 'NONE',  ( -0.7071067811865432429, 0.7071067811865517916, -1.298366789913642177E-17 ) ) ;
#1097 = ORIENTED_EDGE ( 'NONE', *, *, #592, .T. ) ;
#1098 = CARTESIAN_POINT ( 'NONE',  ( -7.500000000000001776, 7.000000000000001776, 0.5620386839630727716 ) ) ;
#1099 = AXIS2_PLACEMENT_3D ( 'NONE', #1003, #905, #503 ) ;
#1100 = LINE ( 'NONE', #1107, #179 ) ;
#1101 = EDGE_CURVE ( 'NONE', #826, #845, #198, .T. ) ;
#1102 = LINE ( 'NONE', #798, #28 ) ;
#1103 = CARTESIAN_POINT ( 'NONE',  ( 11.80940107675850470, 3.559999999999998721, -1.759401076758519977 ) ) ;
#1104 = VERTEX_POINT ( 'NONE', #300 ) ;
#1105 = DIRECTION ( 'NONE',  ( -0.000000000000000000, -0.000000000000000000, -1.000000000000000000 ) ) ;
#1106 = EDGE_CURVE ( 'NONE', #963, #500, #352, .T. ) ;
#1107 = CARTESIAN_POINT ( 'NONE',  ( -10.05000000000000249, 4.999999999999999112, -3.199401076758524365 ) ) ;
#1108 = CIRCLE ( 'NONE', #817, 1.600000000000000089 ) ;
#1109 = DIRECTION ( 'NONE',  ( -0.000000000000000000, -0.7071067811865457964, 0.7071067811865492381 ) ) ;
#1110 = EDGE_CURVE ( 'NONE', #964, #480, #474, .T. ) ;
#1111 = ORIENTED_EDGE ( 'NONE', *, *, #274, .T. ) ;
#1112 = DIRECTION ( 'NONE',  ( 7.542275982507861091E-16, 0.000000000000000000, 1.000000000000000000 ) ) ;
#1113 = ORIENTED_EDGE ( 'NONE', *, *, #314, .T. ) ;
#1114 = CARTESIAN_POINT ( 'NONE',  ( -10.05000000000000249, 5.000000000000000000, -3.199401076758525253 ) ) ;
#1115 = EDGE_LOOP ( 'NONE', ( #1076, #94, #1058, #210, #652, #1067, #780, #87 ) ) ;
#1116 = DIRECTION ( 'NONE',  ( 0.000000000000000000, 1.000000000000000000, -0.000000000000000000 ) ) ;
#1117 = CIRCLE ( 'NONE', #270, 3.200000000000000178 ) ;
#1118 = AXIS2_PLACEMENT_3D ( 'NONE', #726, #516, #1129 ) ;
#1119 = DIRECTION ( 'NONE',  ( -0.000000000000000000, -0.000000000000000000, -1.000000000000000000 ) ) ;
#1120 = VECTOR ( 'NONE', #171, 1000.000000000000000 ) ;
#1121 = ORIENTED_EDGE ( 'NONE', *, *, #143, .F. ) ;
#1122 = LINE ( 'NONE', #823, #511 ) ;
#1123 = CIRCLE ( 'NONE', #788, 1.600000000000000089 ) ;
#1124 = EDGE_CURVE ( 'NONE', #1074, #885, #697, .T. ) ;
#1125 = CARTESIAN_POINT ( 'NONE',  ( -10.05000000000000249, 3.000000000000000000, 0.000000000000000000 ) ) ;
#1126 = CARTESIAN_POINT ( 'NONE',  ( -4.049999999999996270, 3.000000000000000000, -3.200000000000000622 ) ) ;
#1127 = EDGE_CURVE ( 'NONE', #1250, #424, #921, .T. ) ;
#1128 = CARTESIAN_POINT ( 'NONE',  ( -5.025000000000056311, 0.000000000000000000, 5.025000000000002132 ) ) ;
#1129 = DIRECTION ( 'NONE',  ( 0.000000000000000000, 0.000000000000000000, -1.000000000000000000 ) ) ;
#1130 = VERTEX_POINT ( 'NONE', #605 ) ;
#1131 = CARTESIAN_POINT ( 'NONE',  ( 7.499999999999998224, 7.000000000000000000, -6.200000000000001066 ) ) ;
#1132 = AXIS2_PLACEMENT_3D ( 'NONE', #619, #1032, #336 ) ;
#1133 = CARTESIAN_POINT ( 'NONE',  ( -7.500000000000001776, 7.000000000000001776, -3.200000000000000622 ) ) ;
#1134 = ORIENTED_EDGE ( 'NONE', *, *, #980, .F. ) ;
#1135 = FACE_OUTER_BOUND ( 'NONE', #877, .T. ) ;
#1136 = CIRCLE ( 'NONE', #734, 3.200000000000000178 ) ;
#1137 = EDGE_LOOP ( 'NONE', ( #350, #1019, #874, #739 ) ) ;
#1138 = CARTESIAN_POINT ( 'NONE',  ( 0.000000000000000000, 10.59999999999999787, -6.200000000000001066 ) ) ;
#1139 = ORIENTED_EDGE ( 'NONE', *, *, #1243, .T. ) ;
#1140 = APPLICATION_CONTEXT ( 'automotive_design' ) ;
#1141 = AXIS2_PLACEMENT_3D ( 'NONE', #353, #754, #151 ) ;
#1142 = CARTESIAN_POINT ( 'NONE',  ( -8.348528137423866013, 7.848528137423855355, 0.5620386839630727716 ) ) ;
#1143 = EDGE_LOOP ( 'NONE', ( #1252, #953, #389, #361 ) ) ;
#1144 = CARTESIAN_POINT ( 'NONE',  ( 7.499999999999998224, 7.000000000000000000, -3.200000000000000622 ) ) ;
#1145 = VECTOR ( 'NONE', #1056, 1000.000000000000000 ) ;
#1146 = ORIENTED_EDGE ( 'NONE', *, *, #1016, .T. ) ;
#1147 = DIRECTION ( 'NONE',  ( -0.000000000000000000, -0.000000000000000000, -1.000000000000000000 ) ) ;
#1148 = ORIENTED_EDGE ( 'NONE', *, *, #745, .F. ) ;
#1149 = FACE_OUTER_BOUND ( 'NONE', #1143, .T. ) ;
#1150 = DIRECTION ( 'NONE',  ( -0.000000000000000000, -1.000000000000000000, -0.000000000000000000 ) ) ;
#1151 = ADVANCED_FACE ( 'NONE', ( #715 ), #1020, .F. ) ;
#1152 = LINE ( 'NONE', #85, #355 ) ;
#1153 = VERTEX_POINT ( 'NONE', #481 ) ;
#1154 = CARTESIAN_POINT ( 'NONE',  ( 6.299999999999997158, 7.000000000000000000, -3.200000000000000622 ) ) ;
#1155 = VERTEX_POINT ( 'NONE', #690 ) ;
#1156 = PRODUCT_DEFINITION_FORMATION_WITH_SPECIFIED_SOURCE ( 'ANY', '', #579, .NOT_KNOWN. ) ;
#1157 = SURFACE_STYLE_USAGE ( .BOTH. , #246 ) ;
#1158 = CARTESIAN_POINT ( 'NONE',  ( -10.05000000000000249, 3.000000000000000000, 0.000000000000000000 ) ) ;
#1159 = VECTOR ( 'NONE', #1023, 1000.000000000000000 ) ;
#1160 = VERTEX_POINT ( 'NONE', #1221 ) ;
#1161 = ORIENTED_EDGE ( 'NONE', *, *, #1299, .F. ) ;
#1162 = CARTESIAN_POINT ( 'NONE',  ( 10.05000000000000426, 3.000000000000000000, 9.804958777260573715E-16 ) ) ;
#1163 = EDGE_LOOP ( 'NONE', ( #689, #1008, #1041, #326, #914, #959, #437, #834 ) ) ;
#1164 = VECTOR ( 'NONE', #346, 1000.000000000000000 ) ;
#1165 = ADVANCED_FACE ( 'NONE', ( #19, #1198, #390 ), #95, .F. ) ;
#1166 = FACE_OUTER_BOUND ( 'NONE', #228, .T. ) ;
#1167 = CARTESIAN_POINT ( 'NONE',  ( -10.05000000000000249, 9.273943140569590682, -3.200000000000000622 ) ) ;
#1168 = VERTEX_POINT ( 'NONE', #207 ) ;
#1169 = CARTESIAN_POINT ( 'NONE',  ( 8.348528137423857132, 7.848528137423853579, -6.200000000000001066 ) ) ;
#1170 = ORIENTED_EDGE ( 'NONE', *, *, #31, .T. ) ;
#1171 = ADVANCED_FACE ( 'NONE', ( #1209 ), #305, .F. ) ;
#1172 = CARTESIAN_POINT ( 'NONE',  ( 4.050000000000003375, 0.000000000000000000, 1.599999999999996980 ) ) ;
#1173 = DIRECTION ( 'NONE',  ( 7.542275982507860105E-16, 0.000000000000000000, 1.000000000000000000 ) ) ;
#1174 = DIRECTION ( 'NONE',  ( -0.000000000000000000, -1.000000000000000000, -0.000000000000000000 ) ) ;
#1175 = ORIENTED_EDGE ( 'NONE', *, *, #997, .F. ) ;
#1176 = CARTESIAN_POINT ( 'NONE',  ( -2.168404344971026617E-16, 3.000000000000000000, -1.759401076758519311 ) ) ;
#1177 = ORIENTED_EDGE ( 'NONE', *, *, #595, .F. ) ;
#1178 = DIRECTION ( 'NONE',  ( -0.7071067811865439090, 0.000000000000000000, 0.7071067811865512365 ) ) ;
#1179 = CARTESIAN_POINT ( 'NONE',  ( -10.05000000000000249, 4.999999999999997335, -3.200000000000000622 ) ) ;
#1180 = LINE ( 'NONE', #1049, #280 ) ;
#1181 = CARTESIAN_POINT ( 'NONE',  ( 10.05000000000000426, 3.000000000000000000, 9.804958777260573715E-16 ) ) ;
#1182 = PRODUCT_CONTEXT ( 'NONE', #1015, 'mechanical' ) ;
#1183 = CIRCLE ( 'NONE', #150, 1.200000000000001510 ) ;
#1184 = ORIENTED_EDGE ( 'NONE', *, *, #59, .F. ) ;
#1185 = DIRECTION ( 'NONE',  ( -1.836167923230703129E-17, -0.000000000000000000, 1.000000000000000000 ) ) ;
#1186 = AXIS2_PLACEMENT_3D ( 'NONE', #669, #560, #1080 ) ;
#1187 = DIRECTION ( 'NONE',  ( -0.000000000000000000, -1.000000000000000000, -0.000000000000000000 ) ) ;
#1188 = FACE_OUTER_BOUND ( 'NONE', #635, .T. ) ;
#1189 = LINE ( 'NONE', #1103, #840 ) ;
#1190 = EDGE_CURVE ( 'NONE', #214, #837, #200, .T. ) ;
#1191 = ORIENTED_EDGE ( 'NONE', *, *, #820, .F. ) ;
#1192 = DIRECTION ( 'NONE',  ( 0.000000000000000000, 0.000000000000000000, -1.000000000000000000 ) ) ;
#1193 = UNCERTAINTY_MEASURE_WITH_UNIT (LENGTH_MEASURE( 1.000000000000000082E-05 ), #631, 'distance_accuracy_value', 'NONE');
#1194 = DIRECTION ( 'NONE',  ( 0.000000000000000000, 0.000000000000000000, 1.000000000000000000 ) ) ;
#1195 = LINE ( 'NONE', #1005, #301 ) ;
#1196 = FACE_OUTER_BOUND ( 'NONE', #328, .T. ) ;
#1197 = ORIENTED_EDGE ( 'NONE', *, *, #122, .T. ) ;
#1198 = FACE_OUTER_BOUND ( 'NONE', #56, .T. ) ;
#1199 = DIRECTION ( 'NONE',  ( 1.000000000000000000, -0.000000000000000000, 0.000000000000000000 ) ) ;
#1200 = CARTESIAN_POINT ( 'NONE',  ( 5.955020887681574400E-16, 3.000000000000000000, 4.599999999999999645 ) ) ;
#1201 = FACE_BOUND ( 'NONE', #29, .T. ) ;
#1202 = VERTEX_POINT ( 'NONE', #211 ) ;
#1203 = CARTESIAN_POINT ( 'NONE',  ( -11.80940107675850470, 10.59999999999999787, -6.200000000000001066 ) ) ;
#1204 = EDGE_CURVE ( 'NONE', #860, #773, #995, .T. ) ;
#1205 = DIRECTION ( 'NONE',  ( -0.000000000000000000, -1.000000000000000000, -0.000000000000000000 ) ) ;
#1206 = CIRCLE ( 'NONE', #537, 1.600000000000000089 ) ;
#1207 = CARTESIAN_POINT ( 'NONE',  ( 5.955020887681574400E-16, 3.000000000000000000, 4.599999999999999645 ) ) ;
#1208 = ORIENTED_EDGE ( 'NONE', *, *, #122, .F. ) ;
#1209 = FACE_OUTER_BOUND ( 'NONE', #736, .T. ) ;
#1210 = ORIENTED_EDGE ( 'NONE', *, *, #830, .T. ) ;
#1211 = EDGE_CURVE ( 'NONE', #838, #972, #1122, .T. ) ;
#1212 = DIRECTION ( 'NONE',  ( 0.000000000000000000, 0.000000000000000000, 1.000000000000000000 ) ) ;
#1213 = VECTOR ( 'NONE', #763, 1000.000000000000000 ) ;
#1214 = PLANE ( 'NONE',  #916 ) ;
#1215 = ORIENTED_EDGE ( 'NONE', *, *, #1281, .T. ) ;
#1216 = CARTESIAN_POINT ( 'NONE',  ( 5.875737354338250998E-17, 5.000000000000000000, -3.200000000000000622 ) ) ;
#1217 = ORIENTED_EDGE ( 'NONE', *, *, #1012, .T. ) ;
#1218 = DIRECTION ( 'NONE',  ( -8.714860056288568558E-17, 0.7071067811865459074, 0.7071067811865491270 ) ) ;
#1219 = LINE ( 'NONE', #725, #238 ) ;
#1220 = ORIENTED_EDGE ( 'NONE', *, *, #1066, .F. ) ;
#1221 = CARTESIAN_POINT ( 'NONE',  ( 10.05000000000000071, 5.000000000000000000, -3.200000000000000622 ) ) ;
#1222 = VECTOR ( 'NONE', #2, 1000.000000000000000 ) ;
#1223 = ADVANCED_BREP_SHAPE_REPRESENTATION ( 'CameraMount2', ( #750, #1132 ), #271 ) ;
#1224 = ADVANCED_FACE ( 'NONE', ( #729 ), #136, .F. ) ;
#1225 = VECTOR ( 'NONE', #55, 1000.000000000000000 ) ;
#1226 = EDGE_CURVE ( 'NONE', #1237, #243, #51, .T. ) ;
#1227 = CARTESIAN_POINT ( 'NONE',  ( 10.05000000000000426, 0.000000000000000000, 4.599999999999997868 ) ) ;
#1228 = DIRECTION ( 'NONE',  ( -1.000000000000000000, 0.000000000000000000, -1.232467328578682067E-16 ) ) ;
#1229 = DIRECTION ( 'NONE',  ( -0.000000000000000000, -0.000000000000000000, -1.000000000000000000 ) ) ;
#1230 = ORIENTED_EDGE ( 'NONE', *, *, #955, .F. ) ;
#1231 = DIRECTION ( 'NONE',  ( -0.7071067811865427988, 0.7071067811865522357, 0.000000000000000000 ) ) ;
#1232 = ADVANCED_FACE ( 'NONE', ( #610 ), #849, .F. ) ;
#1233 = FACE_OUTER_BOUND ( 'NONE', #604, .T. ) ;
#1234 = DIRECTION ( 'NONE',  ( 0.000000000000000000, 1.000000000000000000, -0.000000000000000000 ) ) ;
#1235 = VERTEX_POINT ( 'NONE', #952 ) ;
#1236 = LINE ( 'NONE', #327, #1285 ) ;
#1237 = VERTEX_POINT ( 'NONE', #930 ) ;
#1238 = ORIENTED_EDGE ( 'NONE', *, *, #611, .F. ) ;
#1239 = EDGE_CURVE ( 'NONE', #515, #172, #506, .T. ) ;
#1240 = FACE_OUTER_BOUND ( 'NONE', #1286, .T. ) ;
#1241 = VECTOR ( 'NONE', #313, 1000.000000000000000 ) ;
#1242 = ORIENTED_EDGE ( 'NONE', *, *, #617, .F. ) ;
#1243 = EDGE_CURVE ( 'NONE', #1237, #860, #298, .T. ) ;
#1244 = VECTOR ( 'NONE', #455, 1000.000000000000114 ) ;
#1245 = AXIS2_PLACEMENT_3D ( 'NONE', #295, #811, #1194 ) ;
#1246 = ORIENTED_EDGE ( 'NONE', *, *, #48, .T. ) ;
#1247 = LINE ( 'NONE', #148, #416 ) ;
#1248 = ORIENTED_EDGE ( 'NONE', *, *, #536, .T. ) ;
#1249 = CARTESIAN_POINT ( 'NONE',  ( -4.049999999999996270, 1.000000000000000000, -3.200000000000000622 ) ) ;
#1250 = VERTEX_POINT ( 'NONE', #747 ) ;
#1251 = DIRECTION ( 'NONE',  ( -1.000000000000000000, 0.000000000000000000, 0.000000000000000000 ) ) ;
#1252 = ORIENTED_EDGE ( 'NONE', *, *, #407, .F. ) ;
#1253 = ORIENTED_EDGE ( 'NONE', *, *, #34, .T. ) ;
#1254 = CARTESIAN_POINT ( 'NONE',  ( 11.80940107675850470, 5.000000000000000000, 0.000000000000000000 ) ) ;
#1255 = ORIENTED_EDGE ( 'NONE', *, *, #230, .F. ) ;
#1256 = VERTEX_POINT ( 'NONE', #418 ) ;
#1257 = ORIENTED_EDGE ( 'NONE', *, *, #1094, .T. ) ;
#1258 = DIRECTION ( 'NONE',  ( -0.000000000000000000, -1.000000000000000000, -0.000000000000000000 ) ) ;
#1259 = CARTESIAN_POINT ( 'NONE',  ( -2.168404344971026617E-16, 9.273943140569590682, -1.759401076758519311 ) ) ;
#1260 = AXIS2_PLACEMENT_3D ( 'NONE', #598, #317, #103 ) ;
#1261 = CARTESIAN_POINT ( 'NONE',  ( 4.050000000000003375, 3.000000000000000000, -2.996277699632807206E-15 ) ) ;
#1262 = ADVANCED_FACE ( 'NONE', ( #1135 ), #835, .F. ) ;
#1263 = ORIENTED_EDGE ( 'NONE', *, *, #449, .F. ) ;
#1264 = DIRECTION ( 'NONE',  ( 0.000000000000000000, 0.000000000000000000, -1.000000000000000000 ) ) ;
#1265 = VERTEX_POINT ( 'NONE', #126 ) ;
#1266 = VECTOR ( 'NONE', #1070, 1000.000000000000000 ) ;
#1267 = ADVANCED_FACE ( 'NONE', ( #428 ), #234, .F. ) ;
#1268 = DIRECTION ( 'NONE',  ( -1.836167923230703129E-17, -0.000000000000000000, 1.000000000000000000 ) ) ;
#1269 = CYLINDRICAL_SURFACE ( 'NONE', #956, 1.600000000000000089 ) ;
#1270 = VECTOR ( 'NONE', #932, 1000.000000000000000 ) ;
#1271 = CYLINDRICAL_SURFACE ( 'NONE', #660, 3.200000000000000178 ) ;
#1272 = VERTEX_POINT ( 'NONE', #1028 ) ;
#1273 = CARTESIAN_POINT ( 'NONE',  ( -8.700000000000002842, 7.000000000000001776, -6.200000000000001066 ) ) ;
#1274 = ORIENTED_EDGE ( 'NONE', *, *, #293, .T. ) ;
#1275 = LINE ( 'NONE', #691, #1244 ) ;
#1276 = CARTESIAN_POINT ( 'NONE',  ( -11.80940107675850470, 2.400299461620732711, -0.5997005383792701760 ) ) ;
#1277 = PLANE ( 'NONE',  #1077 ) ;
#1278 = FACE_OUTER_BOUND ( 'NONE', #138, .T. ) ;
#1279 = ORIENTED_EDGE ( 'NONE', *, *, #114, .T. ) ;
#1280 = DIRECTION ( 'NONE',  ( 0.000000000000000000, 0.000000000000000000, 1.000000000000000000 ) ) ;
#1281 = EDGE_CURVE ( 'NONE', #1155, #480, #1236, .T. ) ;
#1282 = CARTESIAN_POINT ( 'NONE',  ( -4.049999999999996270, 0.000000000000000000, -5.163679313594173001E-16 ) ) ;
#1283 = LINE ( 'NONE', #373, #116 ) ;
#1284 = DIRECTION ( 'NONE',  ( 1.000000000000000000, 0.000000000000000000, 1.836167923230703129E-17 ) ) ;
#1285 = VECTOR ( 'NONE', #26, 1000.000000000000000 ) ;
#1286 = EDGE_LOOP ( 'NONE', ( #61, #112, #709, #923 ) ) ;
#1287 = LINE ( 'NONE', #1176, #458 ) ;
#1288 = VECTOR ( 'NONE', #991, 1000.000000000000000 ) ;
#1289 = CARTESIAN_POINT ( 'NONE',  ( 8.699999999999999289, 7.000000000000000000, -3.200000000000000622 ) ) ;
#1290 = VECTOR ( 'NONE', #400, 1000.000000000000000 ) ;
#1291 = CARTESIAN_POINT ( 'NONE',  ( -10.05000000000000249, 0.000000000000000000, -0.000000000000000000 ) ) ;
#1292 = CYLINDRICAL_SURFACE ( 'NONE', #1018, 3.200000000000000178 ) ;
#1293 = DIRECTION ( 'NONE',  ( 0.000000000000000000, 0.000000000000000000, -1.000000000000000000 ) ) ;
#1294 = EDGE_LOOP ( 'NONE', ( #147, #599, #920, #493, #497 ) ) ;
#1295 = DIRECTION ( 'NONE',  ( -1.000000000000000000, 0.000000000000000000, 0.000000000000000000 ) ) ;
#1296 = LINE ( 'NONE', #803, #648 ) ;
#1297 = DIRECTION ( 'NONE',  ( 0.000000000000000000, 1.000000000000000000, -0.000000000000000000 ) ) ;
#1298 = DIRECTION ( 'NONE',  ( -1.000000000000000000, 0.000000000000000000, 0.000000000000000000 ) ) ;
#1299 = EDGE_CURVE ( 'NONE', #749, #243, #949, .T. ) ;
ENDSEC;
END-ISO-10303-21;
