ISO-10303-21;
HEADER;
FILE_DESCRIPTION (( 'STEP AP214' ),
    '1' );
FILE_NAME ('CameraMount1.STEP',
    '2026-05-20T23:11:15',
    ( '' ),
    ( '' ),
    'SwSTEP 2.0',
    'SolidWorks 2023',
    '' );
FILE_SCHEMA (( 'AUTOMOTIVE_DESIGN' ));
ENDSEC;

DATA;
#1 = VERTEX_POINT ( 'NONE', #388 ) ;
#2 = CARTESIAN_POINT ( 'NONE',  ( -10.30000000000000071, -11.00000000000000711, 0.000000000000000000 ) ) ;
#3 = ADVANCED_FACE ( 'NONE', ( #520 ), #872, .F. ) ;
#4 = VECTOR ( 'NONE', #394, 1000.000000000000000 ) ;
#5 = ORIENTED_EDGE ( 'NONE', *, *, #245, .T. ) ;
#6 = ORIENTED_EDGE ( 'NONE', *, *, #763, .T. ) ;
#7 = DIRECTION ( 'NONE',  ( -1.000000000000000000, 0.000000000000000000, 0.000000000000000000 ) ) ;
#8 = ADVANCED_FACE ( 'NONE', ( #507 ), #797, .F. ) ;
#9 = CARTESIAN_POINT ( 'NONE',  ( -15.50000000000000000, 15.00000000000000000, 4.000000000000000000 ) ) ;
#10 = VECTOR ( 'NONE', #871, 1000.000000000000000 ) ;
#11 = DIRECTION ( 'NONE',  ( -0.000000000000000000, -0.000000000000000000, -1.000000000000000000 ) ) ;
#12 = VECTOR ( 'NONE', #421, 1000.000000000000000 ) ;
#13 = DIRECTION ( 'NONE',  ( 1.000000000000000000, 0.000000000000000000, 0.000000000000000000 ) ) ;
#14 = EDGE_CURVE ( 'NONE', #346, #644, #525, .T. ) ;
#15 = EDGE_LOOP ( 'NONE', ( #253, #218, #917, #417 ) ) ;
#16 = DIRECTION ( 'NONE',  ( 1.000000000000000000, 0.000000000000000000, 0.000000000000000000 ) ) ;
#17 = CARTESIAN_POINT ( 'NONE',  ( 0.000000000000000000, 0.000000000000000000, 0.000000000000000000 ) ) ;
#18 = CARTESIAN_POINT ( 'NONE',  ( -15.50000000000000000, 0.000000000000000000, 4.000000000000000000 ) ) ;
#19 = CARTESIAN_POINT ( 'NONE',  ( 8.699999999999999289, -11.00000000000000533, 4.000000000000000000 ) ) ;
#20 = EDGE_CURVE ( 'NONE', #1, #635, #656, .T. ) ;
#21 = ORIENTED_EDGE ( 'NONE', *, *, #438, .F. ) ;
#22 = ORIENTED_EDGE ( 'NONE', *, *, #164, .F. ) ;
#23 = DIRECTION ( 'NONE',  ( -0.000000000000000000, 0.000000000000000000, 1.000000000000000000 ) ) ;
#24 = AXIS2_PLACEMENT_3D ( 'NONE', #420, #616, #265 ) ;
#25 = CARTESIAN_POINT ( 'NONE',  ( 7.500000000000000000, -11.00000000000000533, 4.000000000000000000 ) ) ;
#26 = ORIENTED_EDGE ( 'NONE', *, *, #473, .F. ) ;
#27 = FACE_OUTER_BOUND ( 'NONE', #76, .T. ) ;
#28 = EDGE_CURVE ( 'NONE', #286, #866, #418, .T. ) ;
#29 = CARTESIAN_POINT ( 'NONE',  ( -10.69999999999998330, -4.500000000000000888, 0.000000000000000000 ) ) ;
#30 = MECHANICAL_DESIGN_GEOMETRIC_PRESENTATION_REPRESENTATION (  '', ( #389 ), #405 ) ;
#31 = EDGE_LOOP ( 'NONE', ( #638, #770, #858, #588 ) ) ;
#32 = AXIS2_PLACEMENT_3D ( 'NONE', #823, #173, #241 ) ;
#33 = CARTESIAN_POINT ( 'NONE',  ( 11.90000000000001101, 9.799999999999998934, 4.000000000000000000 ) ) ;
#34 = DIRECTION ( 'NONE',  ( 1.000000000000000000, 0.000000000000000000, 0.000000000000000000 ) ) ;
#35 = ORIENTED_EDGE ( 'NONE', *, *, #349, .T. ) ;
#36 = CARTESIAN_POINT ( 'NONE',  ( 11.90000000000001279, -4.499999999999997335, 4.000000000000000000 ) ) ;
#37 = EDGE_CURVE ( 'NONE', #161, #407, #579, .T. ) ;
#38 = ORIENTED_EDGE ( 'NONE', *, *, #493, .F. ) ;
#39 = VECTOR ( 'NONE', #127, 1000.000000000000000 ) ;
#40 = EDGE_CURVE ( 'NONE', #570, #113, #746, .T. ) ;
#41 = ORIENTED_EDGE ( 'NONE', *, *, #303, .F. ) ;
#42 = AXIS2_PLACEMENT_3D ( 'NONE', #684, #697, #45 ) ;
#43 = ORIENTED_EDGE ( 'NONE', *, *, #81, .F. ) ;
#44 = EDGE_CURVE ( 'NONE', #719, #654, #160, .T. ) ;
#45 = DIRECTION ( 'NONE',  ( 1.000000000000000000, 0.000000000000000000, 0.000000000000000000 ) ) ;
#46 = ORIENTED_EDGE ( 'NONE', *, *, #688, .T. ) ;
#47 = LINE ( 'NONE', #912, #662 ) ;
#48 = FACE_OUTER_BOUND ( 'NONE', #582, .T. ) ;
#49 = CARTESIAN_POINT ( 'NONE',  ( -10.30000000000000071, -11.00000000000000711, 2.000000000000000000 ) ) ;
#50 = AXIS2_PLACEMENT_3D ( 'NONE', #801, #568, #284 ) ;
#51 = AXIS2_PLACEMENT_3D ( 'NONE', #359, #580, #226 ) ;
#52 = CARTESIAN_POINT ( 'NONE',  ( -8.699999999999999289, -11.00000000000000711, 2.000000000000000000 ) ) ;
#53 = LINE ( 'NONE', #348, #158 ) ;
#54 = LINE ( 'NONE', #629, #39 ) ;
#55 = DIRECTION ( 'NONE',  ( -0.000000000000000000, 0.000000000000000000, 1.000000000000000000 ) ) ;
#56 = EDGE_LOOP ( 'NONE', ( #321, #302, #665, #920 ) ) ;
#57 = ORIENTED_EDGE ( 'NONE', *, *, #408, .F. ) ;
#58 = CYLINDRICAL_SURFACE ( 'NONE', #723, 2.800000000000000266 ) ;
#59 = EDGE_CURVE ( 'NONE', #246, #239, #87, .T. ) ;
#60 = ORIENTED_EDGE ( 'NONE', *, *, #581, .F. ) ;
#61 = CARTESIAN_POINT ( 'NONE',  ( 7.500000000000000000, -11.00000000000000533, 4.000000000000000000 ) ) ;
#62 = CARTESIAN_POINT ( 'NONE',  ( -9.499999999999987566, 9.799999999999998934, 4.000000000000000000 ) ) ;
#63 = VERTEX_POINT ( 'NONE', #725 ) ;
#64 = CARTESIAN_POINT ( 'NONE',  ( 15.50000000000000355, 0.000000000000000000, 4.000000000000000000 ) ) ;
#65 = EDGE_CURVE ( 'NONE', #769, #246, #873, .T. ) ;
#66 = CARTESIAN_POINT ( 'NONE',  ( 0.000000000000000000, -14.99999999999999822, 0.000000000000000000 ) ) ;
#67 = CIRCLE ( 'NONE', #32, 1.199999999999999734 ) ;
#68 = CARTESIAN_POINT ( 'NONE',  ( 10.30000000000000071, -11.00000000000000533, 2.000000000000000000 ) ) ;
#69 = DIRECTION ( 'NONE',  ( 1.000000000000000000, 0.000000000000000000, 0.000000000000000000 ) ) ;
#70 = DIRECTION ( 'NONE',  ( -0.000000000000000000, 0.000000000000000000, 1.000000000000000000 ) ) ;
#71 = LINE ( 'NONE', #593, #677 ) ;
#72 = EDGE_CURVE ( 'NONE', #899, #63, #307, .T. ) ;
#73 = FACE_OUTER_BOUND ( 'NONE', #373, .T. ) ;
#74 = DIRECTION ( 'NONE',  ( -0.000000000000000000, -0.000000000000000000, -1.000000000000000000 ) ) ;
#75 = EDGE_LOOP ( 'NONE', ( #909, #118, #546, #104 ) ) ;
#76 = EDGE_LOOP ( 'NONE', ( #676, #896, #154, #195 ) ) ;
#77 = ORIENTED_EDGE ( 'NONE', *, *, #349, .F. ) ;
#78 = AXIS2_PLACEMENT_3D ( 'NONE', #785, #347, #766 ) ;
#79 = DIRECTION ( 'NONE',  ( 0.000000000000000000, 0.000000000000000000, -1.000000000000000000 ) ) ;
#80 = CIRCLE ( 'NONE', #611, 1.199999999999999734 ) ;
#81 = EDGE_CURVE ( 'NONE', #837, #126, #882, .T. ) ;
#82 = EDGE_LOOP ( 'NONE', ( #177, #38 ) ) ;
#83 = DIRECTION ( 'NONE',  ( -0.000000000000000000, 0.000000000000000000, 1.000000000000000000 ) ) ;
#84 = DIRECTION ( 'NONE',  ( -0.000000000000000000, 0.000000000000000000, 1.000000000000000000 ) ) ;
#85 = FACE_BOUND ( 'NONE', #483, .T. ) ;
#86 = CARTESIAN_POINT ( 'NONE',  ( 7.500000000000000000, -11.00000000000000533, 4.000000000000000000 ) ) ;
#87 = LINE ( 'NONE', #740, #99 ) ;
#88 = CIRCLE ( 'NONE', #238, 1.199999999999999734 ) ;
#89 = ORIENTED_EDGE ( 'NONE', *, *, #377, .T. ) ;
#90 = FACE_OUTER_BOUND ( 'NONE', #390, .T. ) ;
#91 = FACE_BOUND ( 'NONE', #133, .T. ) ;
#92 = ORIENTED_EDGE ( 'NONE', *, *, #834, .T. ) ;
#93 = CIRCLE ( 'NONE', #413, 1.199999999999999734 ) ;
#94 = ADVANCED_FACE ( 'NONE', ( #885, #301, #595, #732, #233, #222, #664, #91 ), #216, .T. ) ;
#95 = PLANE ( 'NONE',  #528 ) ;
#96 = VECTOR ( 'NONE', #926, 1000.000000000000000 ) ;
#97 = PLANE ( 'NONE',  #357 ) ;
#98 = PLANE ( 'NONE',  #692 ) ;
#99 = VECTOR ( 'NONE', #441, 1000.000000000000000 ) ;
#100 = DIRECTION ( 'NONE',  ( 0.000000000000000000, -1.000000000000000000, 0.000000000000000000 ) ) ;
#101 = ORIENTED_EDGE ( 'NONE', *, *, #245, .F. ) ;
#102 = CARTESIAN_POINT ( 'NONE',  ( -15.50000000000000000, -14.99999999999999822, 4.000000000000000000 ) ) ;
#103 = ADVANCED_FACE ( 'NONE', ( #586 ), #526, .F. ) ;
#104 = ORIENTED_EDGE ( 'NONE', *, *, #105, .F. ) ;
#105 = EDGE_CURVE ( 'NONE', #522, #612, #237, .T. ) ;
#106 = VERTEX_POINT ( 'NONE', #146 ) ;
#107 = DIRECTION ( 'NONE',  ( 1.000000000000000000, 0.000000000000000000, 0.000000000000000000 ) ) ;
#108 = EDGE_LOOP ( 'NONE', ( #5, #671, #487, #799 ) ) ;
#109 = EDGE_CURVE ( 'NONE', #141, #459, #780, .T. ) ;
#110 = APPLICATION_PROTOCOL_DEFINITION ( 'draft international standard', 'automotive_design', 1998, #475 ) ;
#111 = DIRECTION ( 'NONE',  ( -1.000000000000000000, 0.000000000000000000, 0.000000000000000000 ) ) ;
#112 = ORIENTED_EDGE ( 'NONE', *, *, #365, .T. ) ;
#113 = VERTEX_POINT ( 'NONE', #802 ) ;
#114 = LINE ( 'NONE', #687, #521 ) ;
#115 = DIRECTION ( 'NONE',  ( 0.000000000000000000, 1.000000000000000000, 0.000000000000000000 ) ) ;
#116 = LINE ( 'NONE', #703, #897 ) ;
#117 = CIRCLE ( 'NONE', #304, 1.199999999999999734 ) ;
#118 = ORIENTED_EDGE ( 'NONE', *, *, #44, .T. ) ;
#119 = CARTESIAN_POINT ( 'NONE',  ( 10.70000000000001172, 9.799999999999998934, 4.000000000000000000 ) ) ;
#120 = CARTESIAN_POINT ( 'NONE',  ( 9.500000000000012434, 9.799999999999998934, 4.000000000000000000 ) ) ;
#121 = CIRCLE ( 'NONE', #561, 2.800000000000000266 ) ;
#122 = ORIENTED_EDGE ( 'NONE', *, *, #65, .T. ) ;
#123 = CARTESIAN_POINT ( 'NONE',  ( -4.699999999999999289, -11.00000000000000711, 0.000000000000000000 ) ) ;
#124 = EDGE_CURVE ( 'NONE', #504, #113, #327, .T. ) ;
#125 = FACE_OUTER_BOUND ( 'NONE', #470, .T. ) ;
#126 = VERTEX_POINT ( 'NONE', #773 ) ;
#127 = DIRECTION ( 'NONE',  ( 0.000000000000000000, 0.000000000000000000, -1.000000000000000000 ) ) ;
#128 = VERTEX_POINT ( 'NONE', #856 ) ;
#129 = DIRECTION ( 'NONE',  ( 1.000000000000000000, 0.000000000000000000, 0.000000000000000000 ) ) ;
#130 = CYLINDRICAL_SURFACE ( 'NONE', #374, 1.199999999999999734 ) ;
#131 = CARTESIAN_POINT ( 'NONE',  ( 15.50000000000000355, -14.99999999999999822, 4.000000000000000000 ) ) ;
#132 = EDGE_CURVE ( 'NONE', #128, #902, #653, .T. ) ;
#133 = EDGE_LOOP ( 'NONE', ( #41, #480 ) ) ;
#134 = CARTESIAN_POINT ( 'NONE',  ( -15.50000000000000000, 0.000000000000000000, 0.000000000000000000 ) ) ;
#135 = AXIS2_PLACEMENT_3D ( 'NONE', #471, #772, #476 ) ;
#136 = CARTESIAN_POINT ( 'NONE',  ( 10.70000000000001350, -1.500000000000003109, 4.000000000000000000 ) ) ;
#137 = EDGE_CURVE ( 'NONE', #113, #504, #698, .T. ) ;
#138 = ORIENTED_EDGE ( 'NONE', *, *, #555, .T. ) ;
#139 = CARTESIAN_POINT ( 'NONE',  ( 9.500000000000014211, -4.499999999999997335, 4.000000000000000000 ) ) ;
#140 = LINE ( 'NONE', #9, #744 ) ;
#141 = VERTEX_POINT ( 'NONE', #120 ) ;
#142 = CARTESIAN_POINT ( 'NONE',  ( 0.000000000000000000, 15.00000000000000000, 4.000000000000000000 ) ) ;
#143 = CARTESIAN_POINT ( 'NONE',  ( -4.699999999999999289, -11.00000000000000711, 2.000000000000000000 ) ) ;
#144 = FACE_BOUND ( 'NONE', #477, .T. ) ;
#145 = DIRECTION ( 'NONE',  ( 0.000000000000000000, -1.000000000000000000, 0.000000000000000000 ) ) ;
#146 = CARTESIAN_POINT ( 'NONE',  ( 15.50000000000000355, 15.00000000000000000, 4.000000000000000000 ) ) ;
#147 = ORIENTED_EDGE ( 'NONE', *, *, #518, .F. ) ;
#148 = ORIENTED_EDGE ( 'NONE', *, *, #834, .F. ) ;
#149 = DIRECTION ( 'NONE',  ( -1.000000000000000000, 0.000000000000000000, 0.000000000000000000 ) ) ;
#150 = DIRECTION ( 'NONE',  ( -0.000000000000000000, 0.000000000000000000, 1.000000000000000000 ) ) ;
#151 = DIRECTION ( 'NONE',  ( -0.000000000000000000, -0.000000000000000000, -1.000000000000000000 ) ) ;
#152 = VECTOR ( 'NONE', #435, 1000.000000000000000 ) ;
#153 = ORIENTED_EDGE ( 'NONE', *, *, #737, .T. ) ;
#154 = ORIENTED_EDGE ( 'NONE', *, *, #260, .F. ) ;
#155 = FACE_OUTER_BOUND ( 'NONE', #565, .T. ) ;
#156 = CARTESIAN_POINT ( 'NONE',  ( 11.90000000000001101, 9.799999999999998934, 0.000000000000000000 ) ) ;
#157 = CARTESIAN_POINT ( 'NONE',  ( -10.30000000000000071, -11.00000000000000711, 2.000000000000000000 ) ) ;
#158 = VECTOR ( 'NONE', #627, 1000.000000000000000 ) ;
#159 = DIRECTION ( 'NONE',  ( -1.000000000000000000, 0.000000000000000000, 0.000000000000000000 ) ) ;
#160 = LINE ( 'NONE', #455, #666 ) ;
#161 = VERTEX_POINT ( 'NONE', #49 ) ;
#162 = DIRECTION ( 'NONE',  ( 1.000000000000000000, 0.000000000000000000, 0.000000000000000000 ) ) ;
#163 = CARTESIAN_POINT ( 'NONE',  ( -10.69999999999998508, 0.000000000000000000, 4.000000000000000000 ) ) ;
#164 = EDGE_CURVE ( 'NONE', #902, #128, #174, .T. ) ;
#165 = ORIENTED_EDGE ( 'NONE', *, *, #587, .T. ) ;
#166 = FACE_OUTER_BOUND ( 'NONE', #552, .T. ) ;
#167 = CIRCLE ( 'NONE', #690, 1.199999999999999734 ) ;
#168 = FACE_BOUND ( 'NONE', #685, .T. ) ;
#169 = DIRECTION ( 'NONE',  ( -0.000000000000000000, -0.000000000000000000, -1.000000000000000000 ) ) ;
#170 = EDGE_CURVE ( 'NONE', #911, #513, #272, .T. ) ;
#171 = ORIENTED_EDGE ( 'NONE', *, *, #555, .F. ) ;
#172 = CIRCLE ( 'NONE', #619, 1.199999999999999734 ) ;
#173 = DIRECTION ( 'NONE',  ( -0.000000000000000000, 0.000000000000000000, 1.000000000000000000 ) ) ;
#174 = CIRCLE ( 'NONE', #402, 2.800000000000000266 ) ;
#175 = DIRECTION ( 'NONE',  ( -1.000000000000000000, 0.000000000000000000, 0.000000000000000000 ) ) ;
#176 = VERTEX_POINT ( 'NONE', #781 ) ;
#177 = ORIENTED_EDGE ( 'NONE', *, *, #651, .F. ) ;
#178 = PRODUCT_DEFINITION_SHAPE ( 'NONE', 'NONE',  #696 ) ;
#179 = CARTESIAN_POINT ( 'NONE',  ( -9.499999999999984013, -4.500000000000000888, 0.000000000000000000 ) ) ;
#180 = ADVANCED_FACE ( 'NONE', ( #353 ), #130, .F. ) ;
#181 = PRESENTATION_LAYER_ASSIGNMENT (  '', '', ( #389 ) ) ;
#182 = CARTESIAN_POINT ( 'NONE',  ( 8.699999999999999289, -11.00000000000000533, 4.000000000000000000 ) ) ;
#183 = ORIENTED_EDGE ( 'NONE', *, *, #365, .F. ) ;
#184 = LINE ( 'NONE', #816, #602 ) ;
#185 = DIRECTION ( 'NONE',  ( 1.000000000000000000, 0.000000000000000000, 0.000000000000000000 ) ) ;
#186 = ORIENTED_EDGE ( 'NONE', *, *, #290, .T. ) ;
#187 = ADVANCED_FACE ( 'NONE', ( #558 ), #850, .F. ) ;
#188 = DIRECTION ( 'NONE',  ( 0.000000000000000000, -0.000000000000000000, 1.000000000000000000 ) ) ;
#189 = ORIENTED_EDGE ( 'NONE', *, *, #481, .F. ) ;
#190 = ORIENTED_EDGE ( 'NONE', *, *, #290, .F. ) ;
#191 = VECTOR ( 'NONE', #145, 1000.000000000000000 ) ;
#192 = CARTESIAN_POINT ( 'NONE',  ( 0.000000000000000000, 6.799999999999998934, 4.000000000000000000 ) ) ;
#193 = CARTESIAN_POINT ( 'NONE',  ( 6.299999999999998934, -11.00000000000000533, 4.000000000000000000 ) ) ;
#194 = ADVANCED_FACE ( 'NONE', ( #125 ), #786, .F. ) ;
#195 = ORIENTED_EDGE ( 'NONE', *, *, #545, .F. ) ;
#196 =( NAMED_UNIT ( * ) SI_UNIT ( $, .STERADIAN. ) SOLID_ANGLE_UNIT ( ) );
#197 = DIRECTION ( 'NONE',  ( 1.000000000000000000, 0.000000000000000000, 0.000000000000000000 ) ) ;
#198 = ORIENTED_EDGE ( 'NONE', *, *, #250, .T. ) ;
#199 = AXIS2_PLACEMENT_3D ( 'NONE', #225, #367, #789 ) ;
#200 = DIRECTION ( 'NONE',  ( 1.000000000000000000, 0.000000000000000000, 0.000000000000000000 ) ) ;
#201 = CIRCLE ( 'NONE', #338, 2.800000000000000266 ) ;
#202 = VECTOR ( 'NONE', #652, 1000.000000000000000 ) ;
#203 = DIRECTION ( 'NONE',  ( -0.000000000000000000, 0.000000000000000000, 1.000000000000000000 ) ) ;
#204 = EDGE_CURVE ( 'NONE', #346, #769, #116, .T. ) ;
#205 = DIRECTION ( 'NONE',  ( -0.000000000000000000, 0.000000000000000000, 1.000000000000000000 ) ) ;
#206 = ORIENTED_EDGE ( 'NONE', *, *, #751, .T. ) ;
#207 = CIRCLE ( 'NONE', #385, 1.199999999999999734 ) ;
#208 = LINE ( 'NONE', #66, #559 ) ;
#209 = AXIS2_PLACEMENT_3D ( 'NONE', #496, #430, #718 ) ;
#210 = CARTESIAN_POINT ( 'NONE',  ( -10.69999999999998508, 6.799999999999998934, 0.000000000000000000 ) ) ;
#211 = EDGE_LOOP ( 'NONE', ( #534, #605, #794, #273 ) ) ;
#212 = AXIS2_PLACEMENT_3D ( 'NONE', #450, #83, #530 ) ;
#213 = VECTOR ( 'NONE', #151, 1000.000000000000000 ) ;
#214 = FACE_OUTER_BOUND ( 'NONE', #383, .T. ) ;
#215 = CARTESIAN_POINT ( 'NONE',  ( -7.500000000000000000, -11.00000000000000711, 4.000000000000000000 ) ) ;
#216 = PLANE ( 'NONE',  #212 ) ;
#217 = EDGE_CURVE ( 'NONE', #879, #228, #80, .T. ) ;
#218 = ORIENTED_EDGE ( 'NONE', *, *, #680, .T. ) ;
#219 = DIRECTION ( 'NONE',  ( -0.000000000000000000, 0.000000000000000000, 1.000000000000000000 ) ) ;
#220 = FACE_BOUND ( 'NONE', #297, .T. ) ;
#221 = DIRECTION ( 'NONE',  ( -0.000000000000000000, -0.000000000000000000, -1.000000000000000000 ) ) ;
#222 = FACE_OUTER_BOUND ( 'NONE', #632, .T. ) ;
#223 = ADVANCED_FACE ( 'NONE', ( #631 ), #243, .F. ) ;
#224 = DIRECTION ( 'NONE',  ( 0.000000000000000000, 0.000000000000000000, 1.000000000000000000 ) ) ;
#225 = CARTESIAN_POINT ( 'NONE',  ( -10.69999999999998330, -4.500000000000000888, 4.000000000000000000 ) ) ;
#226 = DIRECTION ( 'NONE',  ( 1.000000000000000000, 0.000000000000000000, 0.000000000000000000 ) ) ;
#227 = CIRCLE ( 'NONE', #323, 1.199999999999999734 ) ;
#228 = VERTEX_POINT ( 'NONE', #406 ) ;
#229 = ORIENTED_EDGE ( 'NONE', *, *, #751, .F. ) ;
#230 = DIRECTION ( 'NONE',  ( -0.000000000000000000, -0.000000000000000000, -1.000000000000000000 ) ) ;
#231 = AXIS2_PLACEMENT_3D ( 'NONE', #663, #300, #69 ) ;
#232 = EDGE_LOOP ( 'NONE', ( #43, #543, #536, #727 ) ) ;
#233 = FACE_BOUND ( 'NONE', #915, .T. ) ;
#234 = DIRECTION ( 'NONE',  ( -0.000000000000000000, 0.000000000000000000, 1.000000000000000000 ) ) ;
#235 = FACE_BOUND ( 'NONE', #832, .T. ) ;
#236 = EDGE_CURVE ( 'NONE', #570, #422, #733, .T. ) ;
#237 = LINE ( 'NONE', #813, #695 ) ;
#238 = AXIS2_PLACEMENT_3D ( 'NONE', #524, #607, #162 ) ;
#239 = VERTEX_POINT ( 'NONE', #691 ) ;
#240 = DIRECTION ( 'NONE',  ( -1.000000000000000000, 0.000000000000000000, 0.000000000000000000 ) ) ;
#241 = DIRECTION ( 'NONE',  ( 1.000000000000000000, 0.000000000000000000, 0.000000000000000000 ) ) ;
#242 = AXIS2_PLACEMENT_3D ( 'NONE', #717, #713, #791 ) ;
#243 = CYLINDRICAL_SURFACE ( 'NONE', #328, 1.199999999999999734 ) ;
#244 = ORIENTED_EDGE ( 'NONE', *, *, #639, .F. ) ;
#245 = EDGE_CURVE ( 'NONE', #618, #765, #617, .T. ) ;
#246 = VERTEX_POINT ( 'NONE', #551 ) ;
#247 = DIRECTION ( 'NONE',  ( -1.000000000000000000, 0.000000000000000000, 0.000000000000000000 ) ) ;
#248 = AXIS2_PLACEMENT_3D ( 'NONE', #343, #478, #486 ) ;
#249 = EDGE_LOOP ( 'NONE', ( #694, #574 ) ) ;
#250 = EDGE_CURVE ( 'NONE', #741, #902, #53, .T. ) ;
#251 = ORIENTED_EDGE ( 'NONE', *, *, #806, .F. ) ;
#252 = PLANE ( 'NONE',  #851 ) ;
#253 = ORIENTED_EDGE ( 'NONE', *, *, #14, .F. ) ;
#254 = UNCERTAINTY_MEASURE_WITH_UNIT (LENGTH_MEASURE( 1.000000000000000082E-05 ), #921, 'distance_accuracy_value', 'NONE');
#255 = ORIENTED_EDGE ( 'NONE', *, *, #900, .T. ) ;
#256 = CARTESIAN_POINT ( 'NONE',  ( -7.500000000000000000, -11.00000000000000711, 2.000000000000000000 ) ) ;
#257 = ORIENTED_EDGE ( 'NONE', *, *, #438, .T. ) ;
#258 = AXIS2_PLACEMENT_3D ( 'NONE', #119, #401, #554 ) ;
#259 = DIRECTION ( 'NONE',  ( 0.000000000000000000, 1.000000000000000000, -0.000000000000000000 ) ) ;
#260 = EDGE_CURVE ( 'NONE', #472, #756, #207, .T. ) ;
#261 = EDGE_LOOP ( 'NONE', ( #183, #762, #575, #296 ) ) ;
#262 = CARTESIAN_POINT ( 'NONE',  ( 7.500000000000000000, -11.00000000000000533, 2.000000000000000000 ) ) ;
#263 = CARTESIAN_POINT ( 'NONE',  ( -0.000000000000000000, 6.799999999999998934, 0.000000000000000000 ) ) ;
#264 = CARTESIAN_POINT ( 'NONE',  ( 10.70000000000001350, -4.499999999999997335, 0.000000000000000000 ) ) ;
#265 = DIRECTION ( 'NONE',  ( 1.000000000000000000, 0.000000000000000000, 0.000000000000000000 ) ) ;
#266 = VERTEX_POINT ( 'NONE', #640 ) ;
#267 = ADVANCED_FACE ( 'NONE', ( #511 ), #867, .F. ) ;
#268 = DIRECTION ( 'NONE',  ( -1.000000000000000000, 0.000000000000000000, 0.000000000000000000 ) ) ;
#269 = DIRECTION ( 'NONE',  ( -0.000000000000000000, 0.000000000000000000, 1.000000000000000000 ) ) ;
#270 =( NAMED_UNIT ( * ) PLANE_ANGLE_UNIT ( ) SI_UNIT ( $, .RADIAN. ) );
#271 = SHAPE_DEFINITION_REPRESENTATION ( #178, #776 ) ;
#272 = LINE ( 'NONE', #193, #12 ) ;
#273 = ORIENTED_EDGE ( 'NONE', *, *, #868, .F. ) ;
#274 = ADVANCED_FACE ( 'NONE', ( #498, #927 ), #859, .F. ) ;
#275 = CARTESIAN_POINT ( 'NONE',  ( 10.70000000000001172, 9.799999999999998934, 4.000000000000000000 ) ) ;
#276 = COLOUR_RGB ( '',0.7921568627450980005, 0.8196078431372548767, 0.9333333333333333481 ) ;
#277 = DIRECTION ( 'NONE',  ( -0.000000000000000000, -0.000000000000000000, -1.000000000000000000 ) ) ;
#278 =( NAMED_UNIT ( * ) SI_UNIT ( $, .STERADIAN. ) SOLID_ANGLE_UNIT ( ) );
#279 = LINE ( 'NONE', #134, #387 ) ;
#280 = ORIENTED_EDGE ( 'NONE', *, *, #659, .T. ) ;
#281 = ORIENTED_EDGE ( 'NONE', *, *, #842, .F. ) ;
#282 = AXIS2_PLACEMENT_3D ( 'NONE', #309, #658, #34 ) ;
#283 = DIRECTION ( 'NONE',  ( -0.000000000000000000, -0.000000000000000000, -1.000000000000000000 ) ) ;
#284 = DIRECTION ( 'NONE',  ( 1.000000000000000000, 0.000000000000000000, 0.000000000000000000 ) ) ;
#285 = EDGE_LOOP ( 'NONE', ( #835, #452, #532, #707 ) ) ;
#286 = VERTEX_POINT ( 'NONE', #2 ) ;
#287 = LINE ( 'NONE', #139, #864 ) ;
#288 = LINE ( 'NONE', #633, #569 ) ;
#289 = VECTOR ( 'NONE', #910, 1000.000000000000000 ) ;
#290 = EDGE_CURVE ( 'NONE', #924, #228, #287, .T. ) ;
#291 = ORIENTED_EDGE ( 'NONE', *, *, #217, .F. ) ;
#292 = AXIS2_PLACEMENT_3D ( 'NONE', #460, #392, #669 ) ;
#293 = CARTESIAN_POINT ( 'NONE',  ( 7.500000000000000000, -11.00000000000000533, 4.000000000000000000 ) ) ;
#294 = DIRECTION ( 'NONE',  ( 0.000000000000000000, 0.000000000000000000, -1.000000000000000000 ) ) ;
#295 = CARTESIAN_POINT ( 'NONE',  ( 10.70000000000001350, 6.799999999999998934, 4.000000000000000000 ) ) ;
#296 = ORIENTED_EDGE ( 'NONE', *, *, #721, .T. ) ;
#297 = EDGE_LOOP ( 'NONE', ( #891, #621 ) ) ;
#298 = APPLICATION_CONTEXT ( 'automotive_design' ) ;
#299 = LINE ( 'NONE', #877, #830 ) ;
#300 = DIRECTION ( 'NONE',  ( -0.000000000000000000, 0.000000000000000000, 1.000000000000000000 ) ) ;
#301 = FACE_BOUND ( 'NONE', #15, .T. ) ;
#302 = ORIENTED_EDGE ( 'NONE', *, *, #518, .T. ) ;
#303 = EDGE_CURVE ( 'NONE', #911, #837, #903, .T. ) ;
#304 = AXIS2_PLACEMENT_3D ( 'NONE', #440, #720, #16 ) ;
#305 = CYLINDRICAL_SURFACE ( 'NONE', #396, 2.800000000000000266 ) ;
#306 = LINE ( 'NONE', #157, #332 ) ;
#307 = LINE ( 'NONE', #295, #213 ) ;
#308 = AXIS2_PLACEMENT_3D ( 'NONE', #730, #355, #857 ) ;
#309 = CARTESIAN_POINT ( 'NONE',  ( -7.500000000000000000, -11.00000000000000711, 4.000000000000000000 ) ) ;
#310 = EDGE_CURVE ( 'NONE', #815, #924, #167, .T. ) ;
#311 = VECTOR ( 'NONE', #454, 1000.000000000000000 ) ;
#312 = DIRECTION ( 'NONE',  ( -0.000000000000000000, -0.000000000000000000, -1.000000000000000000 ) ) ;
#313 = ORIENTED_EDGE ( 'NONE', *, *, #37, .F. ) ;
#314 = CARTESIAN_POINT ( 'NONE',  ( -15.50000000000000000, 0.000000000000000000, 4.000000000000000000 ) ) ;
#315 = CARTESIAN_POINT ( 'NONE',  ( 11.90000000000001101, 9.799999999999998934, 4.000000000000000000 ) ) ;
#316 = DIRECTION ( 'NONE',  ( -0.000000000000000000, -0.000000000000000000, -1.000000000000000000 ) ) ;
#317 = CIRCLE ( 'NONE', #846, 1.199999999999999734 ) ;
#318 = EDGE_LOOP ( 'NONE', ( #229, #736, #186, #291 ) ) ;
#319 = ORIENTED_EDGE ( 'NONE', *, *, #395, .T. ) ;
#320 = DIRECTION ( 'NONE',  ( 0.000000000000000000, 0.000000000000000000, -1.000000000000000000 ) ) ;
#321 = ORIENTED_EDGE ( 'NONE', *, *, #236, .T. ) ;
#322 = ADVANCED_FACE ( 'NONE', ( #214 ), #364, .F. ) ;
#323 = AXIS2_PLACEMENT_3D ( 'NONE', #913, #55, #840 ) ;
#324 = ORIENTED_EDGE ( 'NONE', *, *, #531, .T. ) ;
#325 = VECTOR ( 'NONE', #333, 1000.000000000000000 ) ;
#326 = PLANE ( 'NONE',  #643 ) ;
#327 = CIRCLE ( 'NONE', #855, 1.199999999999999734 ) ;
#328 = AXIS2_PLACEMENT_3D ( 'NONE', #415, #411, #111 ) ;
#329 = ORIENTED_EDGE ( 'NONE', *, *, #28, .F. ) ;
#330 = PRODUCT_CONTEXT ( 'NONE', #298, 'mechanical' ) ;
#331 = EDGE_LOOP ( 'NONE', ( #122, #884, #610, #803 ) ) ;
#332 = VECTOR ( 'NONE', #294, 1000.000000000000000 ) ;
#333 = DIRECTION ( 'NONE',  ( 1.000000000000000000, 0.000000000000000000, 0.000000000000000000 ) ) ;
#334 = EDGE_CURVE ( 'NONE', #644, #246, #805, .T. ) ;
#335 = DIRECTION ( 'NONE',  ( -0.000000000000000000, 0.000000000000000000, 1.000000000000000000 ) ) ;
#336 = AXIS2_PLACEMENT_3D ( 'NONE', #870, #577, #590 ) ;
#337 = ORIENTED_EDGE ( 'NONE', *, *, #848, .T. ) ;
#338 = AXIS2_PLACEMENT_3D ( 'NONE', #410, #490, #107 ) ;
#339 = DIRECTION ( 'NONE',  ( 1.213093339843921352E-16, -1.000000000000000000, 0.000000000000000000 ) ) ;
#340 = CYLINDRICAL_SURFACE ( 'NONE', #258, 1.199999999999999734 ) ;
#341 = VECTOR ( 'NONE', #892, 1000.000000000000000 ) ;
#342 = ADVANCED_FACE ( 'NONE', ( #796 ), #506, .F. ) ;
#343 = CARTESIAN_POINT ( 'NONE',  ( -7.500000000000000000, -11.00000000000000711, 4.000000000000000000 ) ) ;
#344 = AXIS2_PLACEMENT_3D ( 'NONE', #623, #845, #819 ) ;
#345 = CARTESIAN_POINT ( 'NONE',  ( 15.50000000000000355, 0.000000000000000000, 4.000000000000000000 ) ) ;
#346 = VERTEX_POINT ( 'NONE', #443 ) ;
#347 = DIRECTION ( 'NONE',  ( 1.000000000000000000, 0.000000000000000000, -0.000000000000000000 ) ) ;
#348 = CARTESIAN_POINT ( 'NONE',  ( 10.30000000000000071, -11.00000000000000533, 2.000000000000000000 ) ) ;
#349 = EDGE_CURVE ( 'NONE', #407, #866, #434, .T. ) ;
#350 = CARTESIAN_POINT ( 'NONE',  ( 9.500000000000012434, 9.799999999999998934, 4.000000000000000000 ) ) ;
#351 = DIRECTION ( 'NONE',  ( 1.213093339843921352E-16, -1.000000000000000000, 0.000000000000000000 ) ) ;
#352 = CYLINDRICAL_SURFACE ( 'NONE', #547, 1.199999999999999734 ) ;
#353 = FACE_OUTER_BOUND ( 'NONE', #726, .T. ) ;
#354 = ORIENTED_EDGE ( 'NONE', *, *, #377, .F. ) ;
#355 = DIRECTION ( 'NONE',  ( -0.000000000000000000, 0.000000000000000000, 1.000000000000000000 ) ) ;
#356 = EDGE_CURVE ( 'NONE', #924, #815, #117, .T. ) ;
#357 = AXIS2_PLACEMENT_3D ( 'NONE', #538, #898, #739 ) ;
#358 = DIRECTION ( 'NONE',  ( -0.000000000000000000, 0.000000000000000000, 1.000000000000000000 ) ) ;
#359 = CARTESIAN_POINT ( 'NONE',  ( -7.500000000000000000, -11.00000000000000711, 2.000000000000000000 ) ) ;
#360 = ORIENTED_EDGE ( 'NONE', *, *, #334, .F. ) ;
#361 = DIRECTION ( 'NONE',  ( 0.000000000000000000, 0.000000000000000000, -1.000000000000000000 ) ) ;
#362 = CARTESIAN_POINT ( 'NONE',  ( 0.000000000000000000, -14.99999999999999822, 4.000000000000000000 ) ) ;
#363 = ORIENTED_EDGE ( 'NONE', *, *, #303, .T. ) ;
#364 = CYLINDRICAL_SURFACE ( 'NONE', #890, 1.200000000000000622 ) ;
#365 = EDGE_CURVE ( 'NONE', #501, #765, #299, .T. ) ;
#366 = LINE ( 'NONE', #362, #804 ) ;
#367 = DIRECTION ( 'NONE',  ( -0.000000000000000000, 0.000000000000000000, 1.000000000000000000 ) ) ;
#368 = PLANE ( 'NONE',  #860 ) ;
#369 = PRODUCT_DEFINITION_FORMATION_WITH_SPECIFIED_SOURCE ( 'ANY', '', #492, .NOT_KNOWN. ) ;
#370 = CARTESIAN_POINT ( 'NONE',  ( -6.299999999999999822, -11.00000000000000711, 4.000000000000000000 ) ) ;
#371 = AXIS2_PLACEMENT_3D ( 'NONE', #409, #778, #129 ) ;
#372 = ORIENTED_EDGE ( 'NONE', *, *, #356, .T. ) ;
#373 = EDGE_LOOP ( 'NONE', ( #57, #319, #112, #101 ) ) ;
#374 = AXIS2_PLACEMENT_3D ( 'NONE', #275, #841, #175 ) ;
#375 = CARTESIAN_POINT ( 'NONE',  ( 10.70000000000001350, -4.499999999999997335, 4.000000000000000000 ) ) ;
#376 = DIRECTION ( 'NONE',  ( -0.000000000000000000, -0.000000000000000000, -1.000000000000000000 ) ) ;
#377 = EDGE_CURVE ( 'NONE', #422, #570, #647, .T. ) ;
#378 = ORIENTED_EDGE ( 'NONE', *, *, #680, .F. ) ;
#379 = CYLINDRICAL_SURFACE ( 'NONE', #468, 1.199999999999999734 ) ;
#380 = AXIS2_PLACEMENT_3D ( 'NONE', #734, #234, #527 ) ;
#381 = DIRECTION ( 'NONE',  ( -1.000000000000000000, 0.000000000000000000, 0.000000000000000000 ) ) ;
#382 = CARTESIAN_POINT ( 'NONE',  ( -10.69999999999998508, 0.000000000000000000, 0.000000000000000000 ) ) ;
#383 = EDGE_LOOP ( 'NONE', ( #363, #562, #21, #437 ) ) ;
#384 = ORIENTED_EDGE ( 'NONE', *, *, #40, .T. ) ;
#385 = AXIS2_PLACEMENT_3D ( 'NONE', #919, #205, #729 ) ;
#386 = DIRECTION ( 'NONE',  ( 0.000000000000000000, 1.000000000000000000, 0.000000000000000000 ) ) ;
#387 = VECTOR ( 'NONE', #429, 1000.000000000000000 ) ;
#388 = CARTESIAN_POINT ( 'NONE',  ( -15.50000000000000000, -14.99999999999999822, 4.000000000000000000 ) ) ;
#389 = STYLED_ITEM ( 'NONE', ( #414 ), #642 ) ;
#390 = EDGE_LOOP ( 'NONE', ( #165, #790, #378, #682 ) ) ;
#391 = PLANE ( 'NONE',  #497 ) ;
#392 = DIRECTION ( 'NONE',  ( -0.000000000000000000, 0.000000000000000000, 1.000000000000000000 ) ) ;
#393 = EDGE_LOOP ( 'NONE', ( #147, #89, #384, #466 ) ) ;
#394 = DIRECTION ( 'NONE',  ( -0.000000000000000000, -0.000000000000000000, -1.000000000000000000 ) ) ;
#395 = EDGE_CURVE ( 'NONE', #266, #501, #279, .T. ) ;
#396 = AXIS2_PLACEMENT_3D ( 'NONE', #464, #320, #247 ) ;
#397 = ORIENTED_EDGE ( 'NONE', *, *, #609, .T. ) ;
#398 = LINE ( 'NONE', #102, #4 ) ;
#399 = AXIS2_PLACEMENT_3D ( 'NONE', #142, #843, #500 ) ;
#400 = EDGE_LOOP ( 'NONE', ( #372, #206, #784, #190 ) ) ;
#401 = DIRECTION ( 'NONE',  ( -0.000000000000000000, -0.000000000000000000, -1.000000000000000000 ) ) ;
#402 = AXIS2_PLACEMENT_3D ( 'NONE', #495, #335, #197 ) ;
#403 = VERTEX_POINT ( 'NONE', #156 ) ;
#404 = ADVANCED_FACE ( 'NONE', ( #448 ), #58, .F. ) ;
#405 =( GEOMETRIC_REPRESENTATION_CONTEXT ( 3 ) GLOBAL_UNCERTAINTY_ASSIGNED_CONTEXT ( ( #254 ) ) GLOBAL_UNIT_ASSIGNED_CONTEXT ( ( #921, #270, #278 ) ) REPRESENTATION_CONTEXT ( 'NONE', 'WORKASPACE' ) );
#406 = CARTESIAN_POINT ( 'NONE',  ( 9.500000000000014211, -4.499999999999997335, 0.000000000000000000 ) ) ;
#407 = VERTEX_POINT ( 'NONE', #566 ) ;
#408 = EDGE_CURVE ( 'NONE', #266, #618, #208, .T. ) ;
#409 = CARTESIAN_POINT ( 'NONE',  ( 10.70000000000001172, 9.799999999999998934, 0.000000000000000000 ) ) ;
#410 = CARTESIAN_POINT ( 'NONE',  ( -7.500000000000000000, -11.00000000000000711, 2.000000000000000000 ) ) ;
#411 = DIRECTION ( 'NONE',  ( -0.000000000000000000, -0.000000000000000000, -1.000000000000000000 ) ) ;
#412 = ORIENTED_EDGE ( 'NONE', *, *, #906, .F. ) ;
#413 = AXIS2_PLACEMENT_3D ( 'NONE', #904, #269, #482 ) ;
#414 = PRESENTATION_STYLE_ASSIGNMENT (( #622 ) ) ;
#415 = CARTESIAN_POINT ( 'NONE',  ( -10.69999999999998330, -4.500000000000000888, 4.000000000000000000 ) ) ;
#416 = EDGE_CURVE ( 'NONE', #759, #756, #71, .T. ) ;
#417 = ORIENTED_EDGE ( 'NONE', *, *, #598, .F. ) ;
#418 = CIRCLE ( 'NONE', #231, 2.800000000000000266 ) ;
#419 = ORIENTED_EDGE ( 'NONE', *, *, #37, .T. ) ;
#420 = CARTESIAN_POINT ( 'NONE',  ( 7.500000000000000000, -11.00000000000000533, 2.000000000000000000 ) ) ;
#421 = DIRECTION ( 'NONE',  ( -0.000000000000000000, -0.000000000000000000, -1.000000000000000000 ) ) ;
#422 = VERTEX_POINT ( 'NONE', #893 ) ;
#423 = CARTESIAN_POINT ( 'NONE',  ( 15.50000000000000355, -14.99999999999999822, 4.000000000000000000 ) ) ;
#424 = ORIENTED_EDGE ( 'NONE', *, *, #782, .F. ) ;
#425 = CARTESIAN_POINT ( 'NONE',  ( -15.50000000000000000, 15.00000000000000000, 4.000000000000000000 ) ) ;
#426 = CARTESIAN_POINT ( 'NONE',  ( 10.70000000000001350, -4.499999999999997335, 0.000000000000000000 ) ) ;
#427 = CARTESIAN_POINT ( 'NONE',  ( 9.500000000000012434, 9.799999999999998934, 0.000000000000000000 ) ) ;
#428 = VECTOR ( 'NONE', #826, 1000.000000000000000 ) ;
#429 = DIRECTION ( 'NONE',  ( 0.000000000000000000, 1.000000000000000000, -0.000000000000000000 ) ) ;
#430 = DIRECTION ( 'NONE',  ( -0.000000000000000000, 0.000000000000000000, 1.000000000000000000 ) ) ;
#431 = ADVANCED_FACE ( 'NONE', ( #166 ), #97, .F. ) ;
#432 = ORIENTED_EDGE ( 'NONE', *, *, #124, .T. ) ;
#433 = DIRECTION ( 'NONE',  ( 0.000000000000000000, 1.000000000000000000, -0.000000000000000000 ) ) ;
#434 = LINE ( 'NONE', #143, #606 ) ;
#435 = DIRECTION ( 'NONE',  ( -0.000000000000000000, -0.000000000000000000, -1.000000000000000000 ) ) ;
#436 = ORIENTED_EDGE ( 'NONE', *, *, #137, .T. ) ;
#437 = ORIENTED_EDGE ( 'NONE', *, *, #170, .F. ) ;
#438 = EDGE_CURVE ( 'NONE', #513, #126, #67, .T. ) ;
#439 = CIRCLE ( 'NONE', #282, 1.199999999999999734 ) ;
#440 = CARTESIAN_POINT ( 'NONE',  ( 10.70000000000001350, -4.499999999999997335, 4.000000000000000000 ) ) ;
#441 = DIRECTION ( 'NONE',  ( 1.000000000000000000, 0.000000000000000000, 0.000000000000000000 ) ) ;
#442 = ORIENTED_EDGE ( 'NONE', *, *, #217, .T. ) ;
#443 = CARTESIAN_POINT ( 'NONE',  ( -10.69999999999998508, 6.799999999999998934, 4.000000000000000000 ) ) ;
#444 = VECTOR ( 'NONE', #74, 1000.000000000000000 ) ;
#445 = ADVANCED_FACE ( 'NONE', ( #27 ), #379, .F. ) ;
#446 = CARTESIAN_POINT ( 'NONE',  ( 0.000000000000000000, 15.00000000000000000, 4.000000000000000000 ) ) ;
#447 = CARTESIAN_POINT ( 'NONE',  ( -11.89999999999998437, -4.500000000000000888, 4.000000000000000000 ) ) ;
#448 = FACE_OUTER_BOUND ( 'NONE', #465, .T. ) ;
#449 = ADVANCED_FACE ( 'NONE', ( #660 ), #305, .F. ) ;
#450 = CARTESIAN_POINT ( 'NONE',  ( 0.000000000000000000, 0.000000000000000000, 4.000000000000000000 ) ) ;
#451 = EDGE_LOOP ( 'NONE', ( #821, #360, #820, #699 ) ) ;
#452 = ORIENTED_EDGE ( 'NONE', *, *, #754, .F. ) ;
#453 = DIRECTION ( 'NONE',  ( 1.000000000000000000, 0.000000000000000000, 0.000000000000000000 ) ) ;
#454 = DIRECTION ( 'NONE',  ( 0.000000000000000000, 1.000000000000000000, -0.000000000000000000 ) ) ;
#455 = CARTESIAN_POINT ( 'NONE',  ( -6.299999999999999822, -11.00000000000000711, 4.000000000000000000 ) ) ;
#456 = ORIENTED_EDGE ( 'NONE', *, *, #581, .T. ) ;
#457 = AXIS2_PLACEMENT_3D ( 'NONE', #293, #358, #655 ) ;
#458 = CARTESIAN_POINT ( 'NONE',  ( 0.000000000000000000, 0.000000000000000000, 2.000000000000000000 ) ) ;
#459 = VERTEX_POINT ( 'NONE', #315 ) ;
#460 = CARTESIAN_POINT ( 'NONE',  ( 10.70000000000001172, 9.799999999999998934, 4.000000000000000000 ) ) ;
#461 = AXIS2_PLACEMENT_3D ( 'NONE', #256, #764, #548 ) ;
#462 = VERTEX_POINT ( 'NONE', #880 ) ;
#463 = EDGE_CURVE ( 'NONE', #837, #911, #317, .T. ) ;
#464 = CARTESIAN_POINT ( 'NONE',  ( 7.500000000000000000, -11.00000000000000533, 2.000000000000000000 ) ) ;
#465 = EDGE_LOOP ( 'NONE', ( #494, #704, #280, #22 ) ) ;
#466 = ORIENTED_EDGE ( 'NONE', *, *, #124, .F. ) ;
#467 = CARTESIAN_POINT ( 'NONE',  ( 6.299999999999998934, -11.00000000000000533, 2.000000000000000000 ) ) ;
#468 = AXIS2_PLACEMENT_3D ( 'NONE', #743, #678, #810 ) ;
#469 = CARTESIAN_POINT ( 'NONE',  ( -10.69999999999998685, 9.799999999999998934, 4.000000000000000000 ) ) ;
#470 = EDGE_LOOP ( 'NONE', ( #419, #35, #329, #171 ) ) ;
#471 = CARTESIAN_POINT ( 'NONE',  ( -7.500000000000000000, -11.00000000000000711, 2.000000000000000000 ) ) ;
#472 = VERTEX_POINT ( 'NONE', #750 ) ;
#473 = EDGE_CURVE ( 'NONE', #1, #266, #398, .T. ) ;
#474 = ORIENTED_EDGE ( 'NONE', *, *, #793, .T. ) ;
#475 = APPLICATION_CONTEXT ( 'automotive_design' ) ;
#476 = DIRECTION ( 'NONE',  ( 1.000000000000000000, 0.000000000000000000, 0.000000000000000000 ) ) ;
#477 = EDGE_LOOP ( 'NONE', ( #869, #397 ) ) ;
#478 = DIRECTION ( 'NONE',  ( -0.000000000000000000, -0.000000000000000000, -1.000000000000000000 ) ) ;
#479 = CLOSED_SHELL ( 'NONE', ( #194, #449, #322, #103, #445, #267, #916, #3, #881, #540, #865, #603, #499, #431, #187, #567, #180, #342, #895, #822, #223, #8, #94, #560, #404, #274, #675, #510 ) ) ;
#480 = ORIENTED_EDGE ( 'NONE', *, *, #463, .F. ) ;
#481 = EDGE_CURVE ( 'NONE', #459, #141, #88, .T. ) ;
#482 = DIRECTION ( 'NONE',  ( 1.000000000000000000, 0.000000000000000000, 0.000000000000000000 ) ) ;
#483 = EDGE_LOOP ( 'NONE', ( #592, #670 ) ) ;
#484 = LINE ( 'NONE', #839, #96 ) ;
#485 =( LENGTH_UNIT ( ) NAMED_UNIT ( * ) SI_UNIT ( .MILLI., .METRE. ) );
#486 = DIRECTION ( 'NONE',  ( -1.000000000000000000, 0.000000000000000000, 0.000000000000000000 ) ) ;
#487 = ORIENTED_EDGE ( 'NONE', *, *, #848, .F. ) ;
#488 = ORIENTED_EDGE ( 'NONE', *, *, #531, .F. ) ;
#489 = FACE_OUTER_BOUND ( 'NONE', #31, .T. ) ;
#490 = DIRECTION ( 'NONE',  ( -0.000000000000000000, 0.000000000000000000, 1.000000000000000000 ) ) ;
#491 = DIRECTION ( 'NONE',  ( -0.000000000000000000, 0.000000000000000000, 1.000000000000000000 ) ) ;
#492 = PRODUCT ( 'CameraMount1', 'CameraMount1', '', ( #330 ) ) ;
#493 = EDGE_CURVE ( 'NONE', #719, #522, #439, .T. ) ;
#494 = ORIENTED_EDGE ( 'NONE', *, *, #250, .F. ) ;
#495 = CARTESIAN_POINT ( 'NONE',  ( 7.500000000000000000, -11.00000000000000533, 0.000000000000000000 ) ) ;
#496 = CARTESIAN_POINT ( 'NONE',  ( -7.500000000000000000, -11.00000000000000711, 2.000000000000000000 ) ) ;
#497 = AXIS2_PLACEMENT_3D ( 'NONE', #345, #268, #777 ) ;
#498 = FACE_BOUND ( 'NONE', #752, .T. ) ;
#499 = ADVANCED_FACE ( 'NONE', ( #90 ), #326, .F. ) ;
#500 = DIRECTION ( 'NONE',  ( 0.000000000000000000, -0.000000000000000000, 1.000000000000000000 ) ) ;
#501 = VERTEX_POINT ( 'NONE', #828 ) ;
#502 = DIRECTION ( 'NONE',  ( 1.000000000000000000, 0.000000000000000000, 0.000000000000000000 ) ) ;
#503 = LINE ( 'NONE', #446, #576 ) ;
#504 = VERTEX_POINT ( 'NONE', #179 ) ;
#505 = LINE ( 'NONE', #64, #535 ) ;
#506 = CYLINDRICAL_SURFACE ( 'NONE', #814, 1.199999999999999734 ) ;
#507 = FACE_OUTER_BOUND ( 'NONE', #232, .T. ) ;
#508 = DIRECTION ( 'NONE',  ( -0.000000000000000000, 0.000000000000000000, 1.000000000000000000 ) ) ;
#509 = EDGE_LOOP ( 'NONE', ( #712, #198, #686, #825 ) ) ;
#510 = ADVANCED_FACE ( 'NONE', ( #672, #883 ), #533, .F. ) ;
#511 = FACE_OUTER_BOUND ( 'NONE', #400, .T. ) ;
#512 = CARTESIAN_POINT ( 'NONE',  ( -10.69999999999998330, -4.500000000000000888, 4.000000000000000000 ) ) ;
#513 = VERTEX_POINT ( 'NONE', #467 ) ;
#514 = FACE_OUTER_BOUND ( 'NONE', #261, .T. ) ;
#515 = ORIENTED_EDGE ( 'NONE', *, *, #711, .F. ) ;
#516 = LINE ( 'NONE', #33, #341 ) ;
#517 = DIRECTION ( 'NONE',  ( 1.000000000000000000, 0.000000000000000000, 0.000000000000000000 ) ) ;
#518 = EDGE_CURVE ( 'NONE', #422, #504, #184, .T. ) ;
#519 = AXIS2_PLACEMENT_3D ( 'NONE', #922, #541, #185 ) ;
#520 = FACE_OUTER_BOUND ( 'NONE', #75, .T. ) ;
#521 = VECTOR ( 'NONE', #351, 1000.000000000000000 ) ;
#522 = VERTEX_POINT ( 'NONE', #753 ) ;
#523 = CARTESIAN_POINT ( 'NONE',  ( 7.500000000000000000, -11.00000000000000533, 2.000000000000000000 ) ) ;
#524 = CARTESIAN_POINT ( 'NONE',  ( 10.70000000000001172, 9.799999999999998934, 4.000000000000000000 ) ) ;
#525 = LINE ( 'NONE', #163, #191 ) ;
#526 = CYLINDRICAL_SURFACE ( 'NONE', #731, 1.199999999999999734 ) ;
#527 = DIRECTION ( 'NONE',  ( 1.000000000000000000, 0.000000000000000000, 0.000000000000000000 ) ) ;
#528 = AXIS2_PLACEMENT_3D ( 'NONE', #314, #240, #224 ) ;
#529 = FACE_BOUND ( 'NONE', #614, .T. ) ;
#530 = DIRECTION ( 'NONE',  ( 1.000000000000000000, 0.000000000000000000, 0.000000000000000000 ) ) ;
#531 = EDGE_CURVE ( 'NONE', #866, #286, #673, .T. ) ;
#532 = ORIENTED_EDGE ( 'NONE', *, *, #763, .F. ) ;
#533 = PLANE ( 'NONE',  #787 ) ;
#534 = ORIENTED_EDGE ( 'NONE', *, *, #416, .F. ) ;
#535 = VECTOR ( 'NONE', #433, 1000.000000000000000 ) ;
#536 = ORIENTED_EDGE ( 'NONE', *, *, #170, .T. ) ;
#537 = LINE ( 'NONE', #263, #325 ) ;
#538 = CARTESIAN_POINT ( 'NONE',  ( 10.70000000000001350, 1.298009873632997321E-15, 4.000000000000000000 ) ) ;
#539 = ORIENTED_EDGE ( 'NONE', *, *, #625, .T. ) ;
#540 = ADVANCED_FACE ( 'NONE', ( #812 ), #391, .F. ) ;
#541 = DIRECTION ( 'NONE',  ( 0.000000000000000000, 0.000000000000000000, 1.000000000000000000 ) ) ;
#542 = ORIENTED_EDGE ( 'NONE', *, *, #613, .T. ) ;
#543 = ORIENTED_EDGE ( 'NONE', *, *, #463, .T. ) ;
#544 = FACE_OUTER_BOUND ( 'NONE', #285, .T. ) ;
#545 = EDGE_CURVE ( 'NONE', #462, #472, #288, .T. ) ;
#546 = ORIENTED_EDGE ( 'NONE', *, *, #737, .F. ) ;
#547 = AXIS2_PLACEMENT_3D ( 'NONE', #702, #831, #905 ) ;
#548 = DIRECTION ( 'NONE',  ( -1.000000000000000000, 0.000000000000000000, 0.000000000000000000 ) ) ;
#549 = ORIENTED_EDGE ( 'NONE', *, *, #493, .T. ) ;
#550 = DIRECTION ( 'NONE',  ( -0.000000000000000000, 0.000000000000000000, 1.000000000000000000 ) ) ;
#551 = CARTESIAN_POINT ( 'NONE',  ( -10.69999999999998508, -1.500000000000003109, 0.000000000000000000 ) ) ;
#552 = EDGE_LOOP ( 'NONE', ( #539, #515, #244, #648 ) ) ;
#553 = EDGE_LOOP ( 'NONE', ( #716, #549, #738, #412 ) ) ;
#554 = DIRECTION ( 'NONE',  ( -1.000000000000000000, 0.000000000000000000, 0.000000000000000000 ) ) ;
#555 = EDGE_CURVE ( 'NONE', #161, #286, #306, .T. ) ;
#556 = FILL_AREA_STYLE ('',( #636 ) ) ;
#557 =( NAMED_UNIT ( * ) PLANE_ANGLE_UNIT ( ) SI_UNIT ( $, .RADIAN. ) );
#558 = FACE_OUTER_BOUND ( 'NONE', #553, .T. ) ;
#559 = VECTOR ( 'NONE', #645, 1000.000000000000000 ) ;
#560 = ADVANCED_FACE ( 'NONE', ( #235, #85, #529, #585, #220, #168, #144, #73 ), #368, .F. ) ;
#561 = AXIS2_PLACEMENT_3D ( 'NONE', #523, #70, #583 ) ;
#562 = ORIENTED_EDGE ( 'NONE', *, *, #81, .T. ) ;
#563 = DIRECTION ( 'NONE',  ( 1.000000000000000000, 0.000000000000000000, 0.000000000000000000 ) ) ;
#564 = VECTOR ( 'NONE', #259, 1000.000000000000000 ) ;
#565 = EDGE_LOOP ( 'NONE', ( #571, #26, #894, #474 ) ) ;
#566 = CARTESIAN_POINT ( 'NONE',  ( -4.699999999999999289, -11.00000000000000711, 2.000000000000000000 ) ) ;
#567 = ADVANCED_FACE ( 'NONE', ( #155 ), #95, .T. ) ;
#568 = DIRECTION ( 'NONE',  ( -0.000000000000000000, 0.000000000000000000, 1.000000000000000000 ) ) ;
#569 = VECTOR ( 'NONE', #316, 1000.000000000000000 ) ;
#570 = VERTEX_POINT ( 'NONE', #749 ) ;
#571 = ORIENTED_EDGE ( 'NONE', *, *, #395, .F. ) ;
#572 = DIRECTION ( 'NONE',  ( -1.000000000000000000, 0.000000000000000000, 0.000000000000000000 ) ) ;
#573 = CARTESIAN_POINT ( 'NONE',  ( 15.50000000000000355, 15.00000000000000000, 0.000000000000000000 ) ) ;
#574 = ORIENTED_EDGE ( 'NONE', *, *, #889, .F. ) ;
#575 = ORIENTED_EDGE ( 'NONE', *, *, #782, .T. ) ;
#576 = VECTOR ( 'NONE', #792, 1000.000000000000000 ) ;
#577 = DIRECTION ( 'NONE',  ( -0.000000000000000000, -0.000000000000000000, -1.000000000000000000 ) ) ;
#578 = AXIS2_PLACEMENT_3D ( 'NONE', #264, #550, #563 ) ;
#579 = CIRCLE ( 'NONE', #51, 2.800000000000000266 ) ;
#580 = DIRECTION ( 'NONE',  ( -0.000000000000000000, 0.000000000000000000, 1.000000000000000000 ) ) ;
#581 = EDGE_CURVE ( 'NONE', #459, #403, #516, .T. ) ;
#582 = EDGE_LOOP ( 'NONE', ( #626, #456, #251, #148 ) ) ;
#583 = DIRECTION ( 'NONE',  ( 1.000000000000000000, 0.000000000000000000, 0.000000000000000000 ) ) ;
#584 = CARTESIAN_POINT ( 'NONE',  ( -10.69999999999998508, -1.500000000000003109, 4.000000000000000000 ) ) ;
#585 = FACE_BOUND ( 'NONE', #331, .T. ) ;
#586 = FACE_OUTER_BOUND ( 'NONE', #56, .T. ) ;
#587 = EDGE_CURVE ( 'NONE', #769, #63, #537, .T. ) ;
#588 = ORIENTED_EDGE ( 'NONE', *, *, #334, .T. ) ;
#589 = VERTEX_POINT ( 'NONE', #427 ) ;
#590 = DIRECTION ( 'NONE',  ( -1.000000000000000000, 0.000000000000000000, 0.000000000000000000 ) ) ;
#591 = DIRECTION ( 'NONE',  ( -0.000000000000000000, -0.000000000000000000, -1.000000000000000000 ) ) ;
#592 = ORIENTED_EDGE ( 'NONE', *, *, #132, .T. ) ;
#593 = CARTESIAN_POINT ( 'NONE',  ( -9.499999999999987566, 9.799999999999998934, 4.000000000000000000 ) ) ;
#594 = AXIS2_PLACEMENT_3D ( 'NONE', #469, #755, #634 ) ;
#595 = FACE_BOUND ( 'NONE', #747, .T. ) ;
#596 = AXIS2_PLACEMENT_3D ( 'NONE', #86, #735, #381 ) ;
#597 = DIRECTION ( 'NONE',  ( 0.000000000000000000, -0.000000000000000000, 1.000000000000000000 ) ) ;
#598 = EDGE_CURVE ( 'NONE', #644, #615, #484, .T. ) ;
#599 = DIRECTION ( 'NONE',  ( -1.000000000000000000, 0.000000000000000000, 0.000000000000000000 ) ) ;
#600 = EDGE_LOOP ( 'NONE', ( #313, #875 ) ) ;
#601 = CARTESIAN_POINT ( 'NONE',  ( 0.000000000000000000, 6.799999999999998934, 4.000000000000000000 ) ) ;
#602 = VECTOR ( 'NONE', #667, 1000.000000000000000 ) ;
#603 = ADVANCED_FACE ( 'NONE', ( #489 ), #701, .T. ) ;
#604 = CARTESIAN_POINT ( 'NONE',  ( -7.500000000000000000, -11.00000000000000711, 2.000000000000000000 ) ) ;
#605 = ORIENTED_EDGE ( 'NONE', *, *, #705, .T. ) ;
#606 = VECTOR ( 'NONE', #79, 1000.000000000000000 ) ;
#607 = DIRECTION ( 'NONE',  ( -0.000000000000000000, 0.000000000000000000, 1.000000000000000000 ) ) ;
#608 = UNCERTAINTY_MEASURE_WITH_UNIT (LENGTH_MEASURE( 1.000000000000000082E-05 ), #485, 'distance_accuracy_value', 'NONE');
#609 = EDGE_CURVE ( 'NONE', #403, #589, #693, .T. ) ;
#610 = ORIENTED_EDGE ( 'NONE', *, *, #625, .F. ) ;
#611 = AXIS2_PLACEMENT_3D ( 'NONE', #426, #491, #888 ) ;
#612 = VERTEX_POINT ( 'NONE', #52 ) ;
#613 = EDGE_CURVE ( 'NONE', #228, #879, #852, .T. ) ;
#614 = EDGE_LOOP ( 'NONE', ( #436, #432 ) ) ;
#615 = VERTEX_POINT ( 'NONE', #771 ) ;
#616 = DIRECTION ( 'NONE',  ( -0.000000000000000000, 0.000000000000000000, 1.000000000000000000 ) ) ;
#617 = LINE ( 'NONE', #907, #564 ) ;
#618 = VERTEX_POINT ( 'NONE', #849 ) ;
#619 = AXIS2_PLACEMENT_3D ( 'NONE', #262, #150, #13 ) ;
#620 = FACE_OUTER_BOUND ( 'NONE', #715, .T. ) ;
#621 = ORIENTED_EDGE ( 'NONE', *, *, #868, .T. ) ;
#622 = SURFACE_STYLE_USAGE ( .BOTH. , #708 ) ;
#623 = CARTESIAN_POINT ( 'NONE',  ( 7.500000000000000000, -11.00000000000000533, 0.000000000000000000 ) ) ;
#624 = VECTOR ( 'NONE', #100, 1000.000000000000000 ) ;
#625 = EDGE_CURVE ( 'NONE', #63, #239, #114, .T. ) ;
#626 = ORIENTED_EDGE ( 'NONE', *, *, #109, .T. ) ;
#627 = DIRECTION ( 'NONE',  ( 0.000000000000000000, 0.000000000000000000, -1.000000000000000000 ) ) ;
#628 = EDGE_LOOP ( 'NONE', ( #853, #354 ) ) ;
#629 = CARTESIAN_POINT ( 'NONE',  ( 4.699999999999999289, -11.00000000000000533, 2.000000000000000000 ) ) ;
#630 = SURFACE_STYLE_FILL_AREA ( #556 ) ;
#631 = FACE_OUTER_BOUND ( 'NONE', #393, .T. ) ;
#632 = EDGE_LOOP ( 'NONE', ( #6, #337, #424, #724 ) ) ;
#633 = CARTESIAN_POINT ( 'NONE',  ( -11.89999999999998614, 9.799999999999998934, 4.000000000000000000 ) ) ;
#634 = DIRECTION ( 'NONE',  ( 1.000000000000000000, 0.000000000000000000, 0.000000000000000000 ) ) ;
#635 = VERTEX_POINT ( 'NONE', #425 ) ;
#636 = FILL_AREA_STYLE_COLOUR ( '', #276 ) ;
#637 = CARTESIAN_POINT ( 'NONE',  ( 7.500000000000000000, -11.00000000000000533, 2.000000000000000000 ) ) ;
#638 = ORIENTED_EDGE ( 'NONE', *, *, #65, .F. ) ;
#639 = EDGE_CURVE ( 'NONE', #899, #615, #47, .T. ) ;
#640 = CARTESIAN_POINT ( 'NONE',  ( -15.50000000000000000, -14.99999999999999822, 0.000000000000000000 ) ) ;
#641 = DIRECTION ( 'NONE',  ( 1.000000000000000000, 0.000000000000000000, 0.000000000000000000 ) ) ;
#642 = MANIFOLD_SOLID_BREP ( 'Cut-Extrude1', #479 ) ;
#643 = AXIS2_PLACEMENT_3D ( 'NONE', #601, #386, #597 ) ;
#644 = VERTEX_POINT ( 'NONE', #700 ) ;
#645 = DIRECTION ( 'NONE',  ( 1.000000000000000000, 0.000000000000000000, 0.000000000000000000 ) ) ;
#646 = LINE ( 'NONE', #131, #925 ) ;
#647 = CIRCLE ( 'NONE', #199, 1.199999999999999734 ) ;
#648 = ORIENTED_EDGE ( 'NONE', *, *, #72, .T. ) ;
#649 = CARTESIAN_POINT ( 'NONE',  ( 10.70000000000001350, -4.499999999999997335, 4.000000000000000000 ) ) ;
#650 = CARTESIAN_POINT ( 'NONE',  ( 15.50000000000000355, 15.00000000000000000, 4.000000000000000000 ) ) ;
#651 = EDGE_CURVE ( 'NONE', #522, #719, #93, .T. ) ;
#652 = DIRECTION ( 'NONE',  ( -0.000000000000000000, -0.000000000000000000, -1.000000000000000000 ) ) ;
#653 = CIRCLE ( 'NONE', #344, 2.800000000000000266 ) ;
#654 = VERTEX_POINT ( 'NONE', #683 ) ;
#655 = DIRECTION ( 'NONE',  ( 1.000000000000000000, 0.000000000000000000, 0.000000000000000000 ) ) ;
#656 = LINE ( 'NONE', #18, #311 ) ;
#657 = VERTEX_POINT ( 'NONE', #423 ) ;
#658 = DIRECTION ( 'NONE',  ( -0.000000000000000000, 0.000000000000000000, 1.000000000000000000 ) ) ;
#659 = EDGE_CURVE ( 'NONE', #176, #128, #54, .T. ) ;
#660 = FACE_OUTER_BOUND ( 'NONE', #509, .T. ) ;
#661 = CIRCLE ( 'NONE', #594, 1.199999999999999734 ) ;
#662 = VECTOR ( 'NONE', #339, 1000.000000000000000 ) ;
#663 = CARTESIAN_POINT ( 'NONE',  ( -7.500000000000000000, -11.00000000000000711, 0.000000000000000000 ) ) ;
#664 = FACE_BOUND ( 'NONE', #82, .T. ) ;
#665 = ORIENTED_EDGE ( 'NONE', *, *, #137, .F. ) ;
#666 = VECTOR ( 'NONE', #376, 1000.000000000000000 ) ;
#667 = DIRECTION ( 'NONE',  ( -0.000000000000000000, -0.000000000000000000, -1.000000000000000000 ) ) ;
#668 = CARTESIAN_POINT ( 'NONE',  ( 0.000000000000000000, -1.500000000000003109, 4.000000000000000000 ) ) ;
#669 = DIRECTION ( 'NONE',  ( 1.000000000000000000, 0.000000000000000000, 0.000000000000000000 ) ) ;
#670 = ORIENTED_EDGE ( 'NONE', *, *, #164, .T. ) ;
#671 = ORIENTED_EDGE ( 'NONE', *, *, #721, .F. ) ;
#672 = FACE_BOUND ( 'NONE', #818, .T. ) ;
#673 = CIRCLE ( 'NONE', #380, 2.800000000000000266 ) ;
#674 = ORIENTED_EDGE ( 'NONE', *, *, #609, .F. ) ;
#675 = ADVANCED_FACE ( 'NONE', ( #620 ), #706, .F. ) ;
#676 = ORIENTED_EDGE ( 'NONE', *, *, #842, .T. ) ;
#677 = VECTOR ( 'NONE', #230, 1000.000000000000000 ) ;
#678 = DIRECTION ( 'NONE',  ( -0.000000000000000000, -0.000000000000000000, -1.000000000000000000 ) ) ;
#679 = CIRCLE ( 'NONE', #24, 2.800000000000000266 ) ;
#680 = EDGE_CURVE ( 'NONE', #346, #899, #836, .T. ) ;
#681 = EDGE_LOOP ( 'NONE', ( #824, #827 ) ) ;
#682 = ORIENTED_EDGE ( 'NONE', *, *, #204, .T. ) ;
#683 = CARTESIAN_POINT ( 'NONE',  ( -6.299999999999999822, -11.00000000000000711, 2.000000000000000000 ) ) ;
#684 = CARTESIAN_POINT ( 'NONE',  ( -10.69999999999998330, -4.500000000000000888, 4.000000000000000000 ) ) ;
#685 = EDGE_LOOP ( 'NONE', ( #542, #442 ) ) ;
#686 = ORIENTED_EDGE ( 'NONE', *, *, #132, .F. ) ;
#687 = CARTESIAN_POINT ( 'NONE',  ( 10.70000000000001350, 1.298009873632997321E-15, 0.000000000000000000 ) ) ;
#688 = EDGE_CURVE ( 'NONE', #126, #513, #172, .T. ) ;
#689 = CARTESIAN_POINT ( 'NONE',  ( 10.30000000000000071, -11.00000000000000533, 0.000000000000000000 ) ) ;
#690 = AXIS2_PLACEMENT_3D ( 'NONE', #649, #219, #517 ) ;
#691 = CARTESIAN_POINT ( 'NONE',  ( 10.70000000000001350, -1.500000000000003109, 0.000000000000000000 ) ) ;
#692 = AXIS2_PLACEMENT_3D ( 'NONE', #668, #807, #188 ) ;
#693 = CIRCLE ( 'NONE', #371, 1.199999999999999734 ) ;
#694 = ORIENTED_EDGE ( 'NONE', *, *, #854, .F. ) ;
#695 = VECTOR ( 'NONE', #169, 1000.000000000000000 ) ;
#696 = PRODUCT_DEFINITION ( 'UNKNOWN', '', #369, #908 ) ;
#697 = DIRECTION ( 'NONE',  ( -0.000000000000000000, 0.000000000000000000, 1.000000000000000000 ) ) ;
#698 = CIRCLE ( 'NONE', #748, 1.199999999999999734 ) ;
#699 = ORIENTED_EDGE ( 'NONE', *, *, #711, .T. ) ;
#700 = CARTESIAN_POINT ( 'NONE',  ( -10.69999999999998508, -1.500000000000003109, 4.000000000000000000 ) ) ;
#701 = PLANE ( 'NONE',  #78 ) ;
#702 = CARTESIAN_POINT ( 'NONE',  ( -10.69999999999998685, 9.799999999999998934, 4.000000000000000000 ) ) ;
#703 = CARTESIAN_POINT ( 'NONE',  ( -10.69999999999998508, 6.799999999999998934, 4.000000000000000000 ) ) ;
#704 = ORIENTED_EDGE ( 'NONE', *, *, #889, .T. ) ;
#705 = EDGE_CURVE ( 'NONE', #759, #462, #817, .T. ) ;
#706 = CYLINDRICAL_SURFACE ( 'NONE', #461, 2.800000000000000266 ) ;
#707 = ORIENTED_EDGE ( 'NONE', *, *, #473, .T. ) ;
#708 = SURFACE_SIDE_STYLE ('',( #630 ) ) ;
#709 = VECTOR ( 'NONE', #800, 1000.000000000000000 ) ;
#710 = LINE ( 'NONE', #714, #10 ) ;
#711 = EDGE_CURVE ( 'NONE', #615, #239, #722, .T. ) ;
#712 = ORIENTED_EDGE ( 'NONE', *, *, #854, .T. ) ;
#713 = DIRECTION ( 'NONE',  ( -0.000000000000000000, 0.000000000000000000, 1.000000000000000000 ) ) ;
#714 = CARTESIAN_POINT ( 'NONE',  ( 11.90000000000001279, -4.499999999999997335, 4.000000000000000000 ) ) ;
#715 = EDGE_LOOP ( 'NONE', ( #77, #255, #138, #488 ) ) ;
#716 = ORIENTED_EDGE ( 'NONE', *, *, #44, .F. ) ;
#717 = CARTESIAN_POINT ( 'NONE',  ( 0.000000000000000000, 0.000000000000000000, 2.000000000000000000 ) ) ;
#718 = DIRECTION ( 'NONE',  ( 1.000000000000000000, 0.000000000000000000, 0.000000000000000000 ) ) ;
#719 = VERTEX_POINT ( 'NONE', #370 ) ;
#720 = DIRECTION ( 'NONE',  ( -0.000000000000000000, 0.000000000000000000, 1.000000000000000000 ) ) ;
#721 = EDGE_CURVE ( 'NONE', #106, #765, #788, .T. ) ;
#722 = LINE ( 'NONE', #136, #444 ) ;
#723 = AXIS2_PLACEMENT_3D ( 'NONE', #637, #361, #7 ) ;
#724 = ORIENTED_EDGE ( 'NONE', *, *, #20, .F. ) ;
#725 = CARTESIAN_POINT ( 'NONE',  ( 10.70000000000001350, 6.799999999999998934, 0.000000000000000000 ) ) ;
#726 = EDGE_LOOP ( 'NONE', ( #60, #809, #92, #674 ) ) ;
#727 = ORIENTED_EDGE ( 'NONE', *, *, #688, .F. ) ;
#728 = CIRCLE ( 'NONE', #308, 1.199999999999999734 ) ;
#729 = DIRECTION ( 'NONE',  ( 1.000000000000000000, 0.000000000000000000, 0.000000000000000000 ) ) ;
#730 = CARTESIAN_POINT ( 'NONE',  ( 10.70000000000001172, 9.799999999999998934, 0.000000000000000000 ) ) ;
#731 = AXIS2_PLACEMENT_3D ( 'NONE', #512, #312, #599 ) ;
#732 = FACE_BOUND ( 'NONE', #681, .T. ) ;
#733 = CIRCLE ( 'NONE', #42, 1.199999999999999734 ) ;
#734 = CARTESIAN_POINT ( 'NONE',  ( -7.500000000000000000, -11.00000000000000711, 0.000000000000000000 ) ) ;
#735 = DIRECTION ( 'NONE',  ( -0.000000000000000000, -0.000000000000000000, -1.000000000000000000 ) ) ;
#736 = ORIENTED_EDGE ( 'NONE', *, *, #310, .T. ) ;
#737 = EDGE_CURVE ( 'NONE', #612, #654, #833, .T. ) ;
#738 = ORIENTED_EDGE ( 'NONE', *, *, #105, .T. ) ;
#739 = DIRECTION ( 'NONE',  ( -1.213093339843921352E-16, 1.000000000000000000, 0.000000000000000000 ) ) ;
#740 = CARTESIAN_POINT ( 'NONE',  ( 0.000000000000000000, -1.500000000000003109, 0.000000000000000000 ) ) ;
#741 = VERTEX_POINT ( 'NONE', #68 ) ;
#742 = DIRECTION ( 'NONE',  ( -0.000000000000000000, 0.000000000000000000, 1.000000000000000000 ) ) ;
#743 = CARTESIAN_POINT ( 'NONE',  ( -10.69999999999998685, 9.799999999999998934, 4.000000000000000000 ) ) ;
#744 = VECTOR ( 'NONE', #221, 1000.000000000000000 ) ;
#745 = FACE_OUTER_BOUND ( 'NONE', #451, .T. ) ;
#746 = LINE ( 'NONE', #447, #838 ) ;
#747 = EDGE_LOOP ( 'NONE', ( #281, #874 ) ) ;
#748 = AXIS2_PLACEMENT_3D ( 'NONE', #923, #203, #200 ) ;
#749 = CARTESIAN_POINT ( 'NONE',  ( -11.89999999999998437, -4.500000000000000888, 4.000000000000000000 ) ) ;
#750 = CARTESIAN_POINT ( 'NONE',  ( -11.89999999999998614, 9.799999999999998934, 0.000000000000000000 ) ) ;
#751 = EDGE_CURVE ( 'NONE', #815, #879, #710, .T. ) ;
#752 = EDGE_LOOP ( 'NONE', ( #257, #46 ) ) ;
#753 = CARTESIAN_POINT ( 'NONE',  ( -8.699999999999999289, -11.00000000000000711, 4.000000000000000000 ) ) ;
#754 = EDGE_CURVE ( 'NONE', #657, #618, #646, .T. ) ;
#755 = DIRECTION ( 'NONE',  ( -0.000000000000000000, 0.000000000000000000, 1.000000000000000000 ) ) ;
#756 = VERTEX_POINT ( 'NONE', #861 ) ;
#757 = CARTESIAN_POINT ( 'NONE',  ( 10.70000000000001350, 6.799999999999998934, 4.000000000000000000 ) ) ;
#758 = CIRCLE ( 'NONE', #135, 1.199999999999999734 ) ;
#759 = VERTEX_POINT ( 'NONE', #62 ) ;
#760 = APPLICATION_PROTOCOL_DEFINITION ( 'draft international standard', 'automotive_design', 1998, #298 ) ;
#761 = DIRECTION ( 'NONE',  ( -0.000000000000000000, -0.000000000000000000, -1.000000000000000000 ) ) ;
#762 = ORIENTED_EDGE ( 'NONE', *, *, #793, .F. ) ;
#763 = EDGE_CURVE ( 'NONE', #1, #657, #366, .T. ) ;
#764 = DIRECTION ( 'NONE',  ( 0.000000000000000000, 0.000000000000000000, -1.000000000000000000 ) ) ;
#765 = VERTEX_POINT ( 'NONE', #573 ) ;
#766 = DIRECTION ( 'NONE',  ( -0.000000000000000000, 0.000000000000000000, -1.000000000000000000 ) ) ;
#767 = FACE_OUTER_BOUND ( 'NONE', #211, .T. ) ;
#768 = DIRECTION ( 'NONE',  ( -1.000000000000000000, 0.000000000000000000, 0.000000000000000000 ) ) ;
#769 = VERTEX_POINT ( 'NONE', #210 ) ;
#770 = ORIENTED_EDGE ( 'NONE', *, *, #204, .F. ) ;
#771 = CARTESIAN_POINT ( 'NONE',  ( 10.70000000000001350, -1.500000000000003109, 4.000000000000000000 ) ) ;
#772 = DIRECTION ( 'NONE',  ( -0.000000000000000000, 0.000000000000000000, 1.000000000000000000 ) ) ;
#773 = CARTESIAN_POINT ( 'NONE',  ( 8.699999999999999289, -11.00000000000000533, 2.000000000000000000 ) ) ;
#774 = ORIENTED_EDGE ( 'NONE', *, *, #28, .T. ) ;
#775 =( GEOMETRIC_REPRESENTATION_CONTEXT ( 3 ) GLOBAL_UNCERTAINTY_ASSIGNED_CONTEXT ( ( #608 ) ) GLOBAL_UNIT_ASSIGNED_CONTEXT ( ( #485, #557, #196 ) ) REPRESENTATION_CONTEXT ( 'NONE', 'WORKASPACE' ) );
#776 = ADVANCED_BREP_SHAPE_REPRESENTATION ( 'CameraMount1', ( #642, #519 ), #775 ) ;
#777 = DIRECTION ( 'NONE',  ( 0.000000000000000000, 0.000000000000000000, 1.000000000000000000 ) ) ;
#778 = DIRECTION ( 'NONE',  ( -0.000000000000000000, 0.000000000000000000, 1.000000000000000000 ) ) ;
#779 = DIRECTION ( 'NONE',  ( 0.000000000000000000, -0.000000000000000000, 1.000000000000000000 ) ) ;
#780 = CIRCLE ( 'NONE', #292, 1.199999999999999734 ) ;
#781 = CARTESIAN_POINT ( 'NONE',  ( 4.699999999999999289, -11.00000000000000533, 2.000000000000000000 ) ) ;
#782 = EDGE_CURVE ( 'NONE', #635, #106, #503, .T. ) ;
#783 = AXIS2_PLACEMENT_3D ( 'NONE', #604, #914, #768 ) ;
#784 = ORIENTED_EDGE ( 'NONE', *, *, #613, .F. ) ;
#785 = CARTESIAN_POINT ( 'NONE',  ( -10.69999999999998508, 0.000000000000000000, 4.000000000000000000 ) ) ;
#786 = CYLINDRICAL_SURFACE ( 'NONE', #783, 2.800000000000000266 ) ;
#787 = AXIS2_PLACEMENT_3D ( 'NONE', #458, #84, #887 ) ;
#788 = LINE ( 'NONE', #650, #152 ) ;
#789 = DIRECTION ( 'NONE',  ( 1.000000000000000000, 0.000000000000000000, 0.000000000000000000 ) ) ;
#790 = ORIENTED_EDGE ( 'NONE', *, *, #72, .F. ) ;
#791 = DIRECTION ( 'NONE',  ( 1.000000000000000000, 0.000000000000000000, 0.000000000000000000 ) ) ;
#792 = DIRECTION ( 'NONE',  ( 1.000000000000000000, 0.000000000000000000, 0.000000000000000000 ) ) ;
#793 = EDGE_CURVE ( 'NONE', #635, #501, #140, .T. ) ;
#794 = ORIENTED_EDGE ( 'NONE', *, *, #545, .T. ) ;
#795 = PLANE ( 'NONE',  #399 ) ;
#796 = FACE_OUTER_BOUND ( 'NONE', #318, .T. ) ;
#797 = CYLINDRICAL_SURFACE ( 'NONE', #596, 1.200000000000000622 ) ;
#798 = DIRECTION ( 'NONE',  ( 1.000000000000000000, 0.000000000000000000, 0.000000000000000000 ) ) ;
#799 = ORIENTED_EDGE ( 'NONE', *, *, #754, .T. ) ;
#800 = DIRECTION ( 'NONE',  ( -0.000000000000000000, -0.000000000000000000, -1.000000000000000000 ) ) ;
#801 = CARTESIAN_POINT ( 'NONE',  ( -10.69999999999998685, 9.799999999999998934, 4.000000000000000000 ) ) ;
#802 = CARTESIAN_POINT ( 'NONE',  ( -11.89999999999998437, -4.500000000000000888, 0.000000000000000000 ) ) ;
#803 = ORIENTED_EDGE ( 'NONE', *, *, #587, .F. ) ;
#804 = VECTOR ( 'NONE', #641, 1000.000000000000000 ) ;
#805 = LINE ( 'NONE', #584, #709 ) ;
#806 = EDGE_CURVE ( 'NONE', #589, #403, #728, .T. ) ;
#807 = DIRECTION ( 'NONE',  ( 0.000000000000000000, 1.000000000000000000, 0.000000000000000000 ) ) ;
#808 = AXIS2_PLACEMENT_3D ( 'NONE', #215, #878, #159 ) ;
#809 = ORIENTED_EDGE ( 'NONE', *, *, #481, .T. ) ;
#810 = DIRECTION ( 'NONE',  ( -1.000000000000000000, 0.000000000000000000, 0.000000000000000000 ) ) ;
#811 = PRODUCT_RELATED_PRODUCT_CATEGORY ( 'part', '', ( #492 ) ) ;
#812 = FACE_OUTER_BOUND ( 'NONE', #108, .T. ) ;
#813 = CARTESIAN_POINT ( 'NONE',  ( -8.699999999999999289, -11.00000000000000711, 4.000000000000000000 ) ) ;
#814 = AXIS2_PLACEMENT_3D ( 'NONE', #375, #863, #149 ) ;
#815 = VERTEX_POINT ( 'NONE', #36 ) ;
#816 = CARTESIAN_POINT ( 'NONE',  ( -9.499999999999984013, -4.500000000000000888, 4.000000000000000000 ) ) ;
#817 = CIRCLE ( 'NONE', #50, 1.199999999999999734 ) ;
#818 = EDGE_LOOP ( 'NONE', ( #153, #862 ) ) ;
#819 = DIRECTION ( 'NONE',  ( 1.000000000000000000, 0.000000000000000000, 0.000000000000000000 ) ) ;
#820 = ORIENTED_EDGE ( 'NONE', *, *, #598, .T. ) ;
#821 = ORIENTED_EDGE ( 'NONE', *, *, #59, .F. ) ;
#822 = ADVANCED_FACE ( 'NONE', ( #745 ), #98, .T. ) ;
#823 = CARTESIAN_POINT ( 'NONE',  ( 7.500000000000000000, -11.00000000000000533, 2.000000000000000000 ) ) ;
#824 = ORIENTED_EDGE ( 'NONE', *, *, #356, .F. ) ;
#825 = ORIENTED_EDGE ( 'NONE', *, *, #659, .F. ) ;
#826 = DIRECTION ( 'NONE',  ( -0.000000000000000000, -0.000000000000000000, -1.000000000000000000 ) ) ;
#827 = ORIENTED_EDGE ( 'NONE', *, *, #310, .F. ) ;
#828 = CARTESIAN_POINT ( 'NONE',  ( -15.50000000000000000, 15.00000000000000000, 0.000000000000000000 ) ) ;
#829 = CARTESIAN_POINT ( 'NONE',  ( 6.299999999999998934, -11.00000000000000533, 4.000000000000000000 ) ) ;
#830 = VECTOR ( 'NONE', #502, 1000.000000000000000 ) ;
#831 = DIRECTION ( 'NONE',  ( -0.000000000000000000, -0.000000000000000000, -1.000000000000000000 ) ) ;
#832 = EDGE_LOOP ( 'NONE', ( #774, #324 ) ) ;
#833 = CIRCLE ( 'NONE', #209, 1.199999999999999734 ) ;
#834 = EDGE_CURVE ( 'NONE', #141, #589, #847, .T. ) ;
#835 = ORIENTED_EDGE ( 'NONE', *, *, #408, .T. ) ;
#836 = LINE ( 'NONE', #192, #289 ) ;
#837 = VERTEX_POINT ( 'NONE', #182 ) ;
#838 = VECTOR ( 'NONE', #591, 1000.000000000000000 ) ;
#839 = CARTESIAN_POINT ( 'NONE',  ( 0.000000000000000000, -1.500000000000003109, 4.000000000000000000 ) ) ;
#840 = DIRECTION ( 'NONE',  ( 1.000000000000000000, 0.000000000000000000, 0.000000000000000000 ) ) ;
#841 = DIRECTION ( 'NONE',  ( -0.000000000000000000, -0.000000000000000000, -1.000000000000000000 ) ) ;
#842 = EDGE_CURVE ( 'NONE', #462, #759, #661, .T. ) ;
#843 = DIRECTION ( 'NONE',  ( 0.000000000000000000, 1.000000000000000000, 0.000000000000000000 ) ) ;
#844 = CARTESIAN_POINT ( 'NONE',  ( 0.000000000000000000, -14.99999999999999822, 4.000000000000000000 ) ) ;
#845 = DIRECTION ( 'NONE',  ( -0.000000000000000000, 0.000000000000000000, 1.000000000000000000 ) ) ;
#846 = AXIS2_PLACEMENT_3D ( 'NONE', #25, #23, #453 ) ;
#847 = LINE ( 'NONE', #350, #428 ) ;
#848 = EDGE_CURVE ( 'NONE', #657, #106, #505, .T. ) ;
#849 = CARTESIAN_POINT ( 'NONE',  ( 15.50000000000000355, -14.99999999999999822, 0.000000000000000000 ) ) ;
#850 = CYLINDRICAL_SURFACE ( 'NONE', #248, 1.199999999999999734 ) ;
#851 = AXIS2_PLACEMENT_3D ( 'NONE', #844, #115, #779 ) ;
#852 = CIRCLE ( 'NONE', #578, 1.199999999999999734 ) ;
#853 = ORIENTED_EDGE ( 'NONE', *, *, #236, .F. ) ;
#854 = EDGE_CURVE ( 'NONE', #176, #741, #121, .T. ) ;
#855 = AXIS2_PLACEMENT_3D ( 'NONE', #29, #508, #798 ) ;
#856 = CARTESIAN_POINT ( 'NONE',  ( 4.699999999999999289, -11.00000000000000533, 0.000000000000000000 ) ) ;
#857 = DIRECTION ( 'NONE',  ( 1.000000000000000000, 0.000000000000000000, 0.000000000000000000 ) ) ;
#858 = ORIENTED_EDGE ( 'NONE', *, *, #14, .T. ) ;
#859 = PLANE ( 'NONE',  #242 ) ;
#860 = AXIS2_PLACEMENT_3D ( 'NONE', #17, #742, #876 ) ;
#861 = CARTESIAN_POINT ( 'NONE',  ( -9.499999999999987566, 9.799999999999998934, 0.000000000000000000 ) ) ;
#862 = ORIENTED_EDGE ( 'NONE', *, *, #906, .T. ) ;
#863 = DIRECTION ( 'NONE',  ( -0.000000000000000000, -0.000000000000000000, -1.000000000000000000 ) ) ;
#864 = VECTOR ( 'NONE', #283, 1000.000000000000000 ) ;
#865 = ADVANCED_FACE ( 'NONE', ( #514 ), #795, .T. ) ;
#866 = VERTEX_POINT ( 'NONE', #123 ) ;
#867 = CYLINDRICAL_SURFACE ( 'NONE', #336, 1.199999999999999734 ) ;
#868 = EDGE_CURVE ( 'NONE', #756, #472, #227, .T. ) ;
#869 = ORIENTED_EDGE ( 'NONE', *, *, #806, .T. ) ;
#870 = CARTESIAN_POINT ( 'NONE',  ( 10.70000000000001350, -4.499999999999997335, 4.000000000000000000 ) ) ;
#871 = DIRECTION ( 'NONE',  ( -0.000000000000000000, -0.000000000000000000, -1.000000000000000000 ) ) ;
#872 = CYLINDRICAL_SURFACE ( 'NONE', #808, 1.199999999999999734 ) ;
#873 = LINE ( 'NONE', #382, #624 ) ;
#874 = ORIENTED_EDGE ( 'NONE', *, *, #705, .F. ) ;
#875 = ORIENTED_EDGE ( 'NONE', *, *, #900, .F. ) ;
#876 = DIRECTION ( 'NONE',  ( 1.000000000000000000, 0.000000000000000000, 0.000000000000000000 ) ) ;
#877 = CARTESIAN_POINT ( 'NONE',  ( -0.000000000000000000, 15.00000000000000000, 0.000000000000000000 ) ) ;
#878 = DIRECTION ( 'NONE',  ( -0.000000000000000000, -0.000000000000000000, -1.000000000000000000 ) ) ;
#879 = VERTEX_POINT ( 'NONE', #901 ) ;
#880 = CARTESIAN_POINT ( 'NONE',  ( -11.89999999999998614, 9.799999999999998934, 4.000000000000000000 ) ) ;
#881 = ADVANCED_FACE ( 'NONE', ( #544 ), #252, .F. ) ;
#882 = LINE ( 'NONE', #19, #202 ) ;
#883 = FACE_OUTER_BOUND ( 'NONE', #600, .T. ) ;
#884 = ORIENTED_EDGE ( 'NONE', *, *, #59, .T. ) ;
#885 = FACE_BOUND ( 'NONE', #628, .T. ) ;
#886 = ORIENTED_EDGE ( 'NONE', *, *, #109, .F. ) ;
#887 = DIRECTION ( 'NONE',  ( 1.000000000000000000, 0.000000000000000000, 0.000000000000000000 ) ) ;
#888 = DIRECTION ( 'NONE',  ( 1.000000000000000000, 0.000000000000000000, 0.000000000000000000 ) ) ;
#889 = EDGE_CURVE ( 'NONE', #741, #176, #679, .T. ) ;
#890 = AXIS2_PLACEMENT_3D ( 'NONE', #61, #11, #572 ) ;
#891 = ORIENTED_EDGE ( 'NONE', *, *, #260, .T. ) ;
#892 = DIRECTION ( 'NONE',  ( -0.000000000000000000, -0.000000000000000000, -1.000000000000000000 ) ) ;
#893 = CARTESIAN_POINT ( 'NONE',  ( -9.499999999999984013, -4.500000000000000888, 4.000000000000000000 ) ) ;
#894 = ORIENTED_EDGE ( 'NONE', *, *, #20, .T. ) ;
#895 = ADVANCED_FACE ( 'NONE', ( #767 ), #352, .F. ) ;
#896 = ORIENTED_EDGE ( 'NONE', *, *, #416, .T. ) ;
#897 = VECTOR ( 'NONE', #761, 1000.000000000000000 ) ;
#898 = DIRECTION ( 'NONE',  ( 1.000000000000000000, 1.213093339843921352E-16, -0.000000000000000000 ) ) ;
#899 = VERTEX_POINT ( 'NONE', #757 ) ;
#900 = EDGE_CURVE ( 'NONE', #407, #161, #201, .T. ) ;
#901 = CARTESIAN_POINT ( 'NONE',  ( 11.90000000000001279, -4.499999999999997335, 0.000000000000000000 ) ) ;
#902 = VERTEX_POINT ( 'NONE', #689 ) ;
#903 = CIRCLE ( 'NONE', #457, 1.199999999999999734 ) ;
#904 = CARTESIAN_POINT ( 'NONE',  ( -7.500000000000000000, -11.00000000000000711, 4.000000000000000000 ) ) ;
#905 = DIRECTION ( 'NONE',  ( -1.000000000000000000, 0.000000000000000000, 0.000000000000000000 ) ) ;
#906 = EDGE_CURVE ( 'NONE', #654, #612, #758, .T. ) ;
#907 = CARTESIAN_POINT ( 'NONE',  ( 15.50000000000000355, 0.000000000000000000, 0.000000000000000000 ) ) ;
#908 = PRODUCT_DEFINITION_CONTEXT ( 'detailed design', #475, 'design' ) ;
#909 = ORIENTED_EDGE ( 'NONE', *, *, #651, .T. ) ;
#910 = DIRECTION ( 'NONE',  ( 1.000000000000000000, 0.000000000000000000, 0.000000000000000000 ) ) ;
#911 = VERTEX_POINT ( 'NONE', #829 ) ;
#912 = CARTESIAN_POINT ( 'NONE',  ( 10.70000000000001350, 1.298009873632997321E-15, 4.000000000000000000 ) ) ;
#913 = CARTESIAN_POINT ( 'NONE',  ( -10.69999999999998685, 9.799999999999998934, 0.000000000000000000 ) ) ;
#914 = DIRECTION ( 'NONE',  ( 0.000000000000000000, 0.000000000000000000, -1.000000000000000000 ) ) ;
#915 = EDGE_LOOP ( 'NONE', ( #886, #189 ) ) ;
#916 = ADVANCED_FACE ( 'NONE', ( #48 ), #340, .F. ) ;
#917 = ORIENTED_EDGE ( 'NONE', *, *, #639, .T. ) ;
#918 = CARTESIAN_POINT ( 'NONE',  ( 9.500000000000014211, -4.499999999999997335, 4.000000000000000000 ) ) ;
#919 = CARTESIAN_POINT ( 'NONE',  ( -10.69999999999998685, 9.799999999999998934, 0.000000000000000000 ) ) ;
#920 = ORIENTED_EDGE ( 'NONE', *, *, #40, .F. ) ;
#921 =( LENGTH_UNIT ( ) NAMED_UNIT ( * ) SI_UNIT ( .MILLI., .METRE. ) );
#922 = CARTESIAN_POINT ( 'NONE',  ( 0.000000000000000000, 0.000000000000000000, 0.000000000000000000 ) ) ;
#923 = CARTESIAN_POINT ( 'NONE',  ( -10.69999999999998330, -4.500000000000000888, 0.000000000000000000 ) ) ;
#924 = VERTEX_POINT ( 'NONE', #918 ) ;
#925 = VECTOR ( 'NONE', #277, 1000.000000000000000 ) ;
#926 = DIRECTION ( 'NONE',  ( 1.000000000000000000, 0.000000000000000000, 0.000000000000000000 ) ) ;
#927 = FACE_OUTER_BOUND ( 'NONE', #249, .T. ) ;
ENDSEC;
END-ISO-10303-21;
